<?xml version="1.0" encoding="utf-8" standalone="no"?>
<!DOCTYPE svg PUBLIC "-//W3C//DTD SVG 1.1//EN"
  "http://www.w3.org/Graphics/SVG/1.1/DTD/svg11.dtd">
<svg xmlns:xlink="http://www.w3.org/1999/xlink" width="432pt" height="288pt" viewBox="0 0 432 288" xmlns="http://www.w3.org/2000/svg" version="1.1">
 <metadata>
  <rdf:RDF xmlns:dc="http://purl.org/dc/elements/1.1/" xmlns:cc="http://creativecommons.org/ns#" xmlns:rdf="http://www.w3.org/1999/02/22-rdf-syntax-ns#">
   <cc:Work>
    <dc:type rdf:resource="http://purl.org/dc/dcmitype/StillImage"/>
    <dc:date>2025-06-18T11:30:45.729841</dc:date>
    <dc:format>image/svg+xml</dc:format>
    <dc:creator>
     <cc:Agent>
      <dc:title>Matplotlib v3.10.1, https://matplotlib.org/</dc:title>
     </cc:Agent>
    </dc:creator>
   </cc:Work>
  </rdf:RDF>
 </metadata>
 <defs>
  <style type="text/css">*{stroke-linejoin: round; stroke-linecap: butt}</style>
 </defs>
 <g id="figure_1">
  <g id="patch_1">
   <path d="M 0 288 
L 432 288 
L 432 0 
L 0 0 
z
" style="fill: #ffffff"/>
  </g>
  <g id="axes_1">
   <g id="patch_2">
    <path d="M 47.81 246.04 
L 421.2 246.04 
L 421.2 25.44 
L 47.81 25.44 
z
" style="fill: #ffffff"/>
   </g>
   <g id="matplotlib.axis_1">
    <g id="xtick_1">
     <g id="line2d_1">
      <defs>
       <path id="m5e03616aac" d="M 0 0 
L 0 3.5 
" style="stroke: #000000; stroke-width: 0.8"/>
      </defs>
      <g>
       <use xlink:href="#m5e03616aac" x="64.782273" y="246.04" style="stroke: #000000; stroke-width: 0.8"/>
      </g>
     </g>
     <g id="text_1">
      <!-- 0 -->
      <g transform="translate(61.601023 260.638438) scale(0.1 -0.1)">
       <defs>
        <path id="DejaVuSans-30" d="M 2034 4250 
Q 1547 4250 1301 3770 
Q 1056 3291 1056 2328 
Q 1056 1369 1301 889 
Q 1547 409 2034 409 
Q 2525 409 2770 889 
Q 3016 1369 3016 2328 
Q 3016 3291 2770 3770 
Q 2525 4250 2034 4250 
z
M 2034 4750 
Q 2819 4750 3233 4129 
Q 3647 3509 3647 2328 
Q 3647 1150 3233 529 
Q 2819 -91 2034 -91 
Q 1250 -91 836 529 
Q 422 1150 422 2328 
Q 422 3509 836 4129 
Q 1250 4750 2034 4750 
z
" transform="scale(0.015625)"/>
       </defs>
       <use xlink:href="#DejaVuSans-30"/>
      </g>
     </g>
    </g>
    <g id="xtick_2">
     <g id="line2d_2">
      <g>
       <use xlink:href="#m5e03616aac" x="110.860841" y="246.04" style="stroke: #000000; stroke-width: 0.8"/>
      </g>
     </g>
     <g id="text_2">
      <!-- 1 -->
      <g transform="translate(107.679591 260.638438) scale(0.1 -0.1)">
       <defs>
        <path id="DejaVuSans-31" d="M 794 531 
L 1825 531 
L 1825 4091 
L 703 3866 
L 703 4441 
L 1819 4666 
L 2450 4666 
L 2450 531 
L 3481 531 
L 3481 0 
L 794 0 
L 794 531 
z
" transform="scale(0.015625)"/>
       </defs>
       <use xlink:href="#DejaVuSans-31"/>
      </g>
     </g>
    </g>
    <g id="xtick_3">
     <g id="line2d_3">
      <g>
       <use xlink:href="#m5e03616aac" x="156.93941" y="246.04" style="stroke: #000000; stroke-width: 0.8"/>
      </g>
     </g>
     <g id="text_3">
      <!-- 2 -->
      <g transform="translate(153.75816 260.638438) scale(0.1 -0.1)">
       <defs>
        <path id="DejaVuSans-32" d="M 1228 531 
L 3431 531 
L 3431 0 
L 469 0 
L 469 531 
Q 828 903 1448 1529 
Q 2069 2156 2228 2338 
Q 2531 2678 2651 2914 
Q 2772 3150 2772 3378 
Q 2772 3750 2511 3984 
Q 2250 4219 1831 4219 
Q 1534 4219 1204 4116 
Q 875 4013 500 3803 
L 500 4441 
Q 881 4594 1212 4672 
Q 1544 4750 1819 4750 
Q 2544 4750 2975 4387 
Q 3406 4025 3406 3419 
Q 3406 3131 3298 2873 
Q 3191 2616 2906 2266 
Q 2828 2175 2409 1742 
Q 1991 1309 1228 531 
z
" transform="scale(0.015625)"/>
       </defs>
       <use xlink:href="#DejaVuSans-32"/>
      </g>
     </g>
    </g>
    <g id="xtick_4">
     <g id="line2d_4">
      <g>
       <use xlink:href="#m5e03616aac" x="203.017978" y="246.04" style="stroke: #000000; stroke-width: 0.8"/>
      </g>
     </g>
     <g id="text_4">
      <!-- 3 -->
      <g transform="translate(199.836728 260.638438) scale(0.1 -0.1)">
       <defs>
        <path id="DejaVuSans-33" d="M 2597 2516 
Q 3050 2419 3304 2112 
Q 3559 1806 3559 1356 
Q 3559 666 3084 287 
Q 2609 -91 1734 -91 
Q 1441 -91 1130 -33 
Q 819 25 488 141 
L 488 750 
Q 750 597 1062 519 
Q 1375 441 1716 441 
Q 2309 441 2620 675 
Q 2931 909 2931 1356 
Q 2931 1769 2642 2001 
Q 2353 2234 1838 2234 
L 1294 2234 
L 1294 2753 
L 1863 2753 
Q 2328 2753 2575 2939 
Q 2822 3125 2822 3475 
Q 2822 3834 2567 4026 
Q 2313 4219 1838 4219 
Q 1578 4219 1281 4162 
Q 984 4106 628 3988 
L 628 4550 
Q 988 4650 1302 4700 
Q 1616 4750 1894 4750 
Q 2613 4750 3031 4423 
Q 3450 4097 3450 3541 
Q 3450 3153 3228 2886 
Q 3006 2619 2597 2516 
z
" transform="scale(0.015625)"/>
       </defs>
       <use xlink:href="#DejaVuSans-33"/>
      </g>
     </g>
    </g>
    <g id="xtick_5">
     <g id="line2d_5">
      <g>
       <use xlink:href="#m5e03616aac" x="249.096547" y="246.04" style="stroke: #000000; stroke-width: 0.8"/>
      </g>
     </g>
     <g id="text_5">
      <!-- 4 -->
      <g transform="translate(245.915297 260.638438) scale(0.1 -0.1)">
       <defs>
        <path id="DejaVuSans-34" d="M 2419 4116 
L 825 1625 
L 2419 1625 
L 2419 4116 
z
M 2253 4666 
L 3047 4666 
L 3047 1625 
L 3713 1625 
L 3713 1100 
L 3047 1100 
L 3047 0 
L 2419 0 
L 2419 1100 
L 313 1100 
L 313 1709 
L 2253 4666 
z
" transform="scale(0.015625)"/>
       </defs>
       <use xlink:href="#DejaVuSans-34"/>
      </g>
     </g>
    </g>
    <g id="xtick_6">
     <g id="line2d_6">
      <g>
       <use xlink:href="#m5e03616aac" x="295.175115" y="246.04" style="stroke: #000000; stroke-width: 0.8"/>
      </g>
     </g>
     <g id="text_6">
      <!-- 5 -->
      <g transform="translate(291.993865 260.638438) scale(0.1 -0.1)">
       <defs>
        <path id="DejaVuSans-35" d="M 691 4666 
L 3169 4666 
L 3169 4134 
L 1269 4134 
L 1269 2991 
Q 1406 3038 1543 3061 
Q 1681 3084 1819 3084 
Q 2600 3084 3056 2656 
Q 3513 2228 3513 1497 
Q 3513 744 3044 326 
Q 2575 -91 1722 -91 
Q 1428 -91 1123 -41 
Q 819 9 494 109 
L 494 744 
Q 775 591 1075 516 
Q 1375 441 1709 441 
Q 2250 441 2565 725 
Q 2881 1009 2881 1497 
Q 2881 1984 2565 2268 
Q 2250 2553 1709 2553 
Q 1456 2553 1204 2497 
Q 953 2441 691 2322 
L 691 4666 
z
" transform="scale(0.015625)"/>
       </defs>
       <use xlink:href="#DejaVuSans-35"/>
      </g>
     </g>
    </g>
    <g id="xtick_7">
     <g id="line2d_7">
      <g>
       <use xlink:href="#m5e03616aac" x="341.253684" y="246.04" style="stroke: #000000; stroke-width: 0.8"/>
      </g>
     </g>
     <g id="text_7">
      <!-- 6 -->
      <g transform="translate(338.072434 260.638438) scale(0.1 -0.1)">
       <defs>
        <path id="DejaVuSans-36" d="M 2113 2584 
Q 1688 2584 1439 2293 
Q 1191 2003 1191 1497 
Q 1191 994 1439 701 
Q 1688 409 2113 409 
Q 2538 409 2786 701 
Q 3034 994 3034 1497 
Q 3034 2003 2786 2293 
Q 2538 2584 2113 2584 
z
M 3366 4563 
L 3366 3988 
Q 3128 4100 2886 4159 
Q 2644 4219 2406 4219 
Q 1781 4219 1451 3797 
Q 1122 3375 1075 2522 
Q 1259 2794 1537 2939 
Q 1816 3084 2150 3084 
Q 2853 3084 3261 2657 
Q 3669 2231 3669 1497 
Q 3669 778 3244 343 
Q 2819 -91 2113 -91 
Q 1303 -91 875 529 
Q 447 1150 447 2328 
Q 447 3434 972 4092 
Q 1497 4750 2381 4750 
Q 2619 4750 2861 4703 
Q 3103 4656 3366 4563 
z
" transform="scale(0.015625)"/>
       </defs>
       <use xlink:href="#DejaVuSans-36"/>
      </g>
     </g>
    </g>
    <g id="xtick_8">
     <g id="line2d_8">
      <g>
       <use xlink:href="#m5e03616aac" x="387.332252" y="246.04" style="stroke: #000000; stroke-width: 0.8"/>
      </g>
     </g>
     <g id="text_8">
      <!-- 7 -->
      <g transform="translate(384.151002 260.638438) scale(0.1 -0.1)">
       <defs>
        <path id="DejaVuSans-37" d="M 525 4666 
L 3525 4666 
L 3525 4397 
L 1831 0 
L 1172 0 
L 2766 4134 
L 525 4134 
L 525 4666 
z
" transform="scale(0.015625)"/>
       </defs>
       <use xlink:href="#DejaVuSans-37"/>
      </g>
     </g>
    </g>
    <g id="text_9">
     <!-- Time [h] -->
     <g transform="translate(213.612031 274.316562) scale(0.1 -0.1)">
      <defs>
       <path id="DejaVuSans-54" d="M -19 4666 
L 3928 4666 
L 3928 4134 
L 2272 4134 
L 2272 0 
L 1638 0 
L 1638 4134 
L -19 4134 
L -19 4666 
z
" transform="scale(0.015625)"/>
       <path id="DejaVuSans-69" d="M 603 3500 
L 1178 3500 
L 1178 0 
L 603 0 
L 603 3500 
z
M 603 4863 
L 1178 4863 
L 1178 4134 
L 603 4134 
L 603 4863 
z
" transform="scale(0.015625)"/>
       <path id="DejaVuSans-6d" d="M 3328 2828 
Q 3544 3216 3844 3400 
Q 4144 3584 4550 3584 
Q 5097 3584 5394 3201 
Q 5691 2819 5691 2113 
L 5691 0 
L 5113 0 
L 5113 2094 
Q 5113 2597 4934 2840 
Q 4756 3084 4391 3084 
Q 3944 3084 3684 2787 
Q 3425 2491 3425 1978 
L 3425 0 
L 2847 0 
L 2847 2094 
Q 2847 2600 2669 2842 
Q 2491 3084 2119 3084 
Q 1678 3084 1418 2786 
Q 1159 2488 1159 1978 
L 1159 0 
L 581 0 
L 581 3500 
L 1159 3500 
L 1159 2956 
Q 1356 3278 1631 3431 
Q 1906 3584 2284 3584 
Q 2666 3584 2933 3390 
Q 3200 3197 3328 2828 
z
" transform="scale(0.015625)"/>
       <path id="DejaVuSans-65" d="M 3597 1894 
L 3597 1613 
L 953 1613 
Q 991 1019 1311 708 
Q 1631 397 2203 397 
Q 2534 397 2845 478 
Q 3156 559 3463 722 
L 3463 178 
Q 3153 47 2828 -22 
Q 2503 -91 2169 -91 
Q 1331 -91 842 396 
Q 353 884 353 1716 
Q 353 2575 817 3079 
Q 1281 3584 2069 3584 
Q 2775 3584 3186 3129 
Q 3597 2675 3597 1894 
z
M 3022 2063 
Q 3016 2534 2758 2815 
Q 2500 3097 2075 3097 
Q 1594 3097 1305 2825 
Q 1016 2553 972 2059 
L 3022 2063 
z
" transform="scale(0.015625)"/>
       <path id="DejaVuSans-20" transform="scale(0.015625)"/>
       <path id="DejaVuSans-5b" d="M 550 4863 
L 1875 4863 
L 1875 4416 
L 1125 4416 
L 1125 -397 
L 1875 -397 
L 1875 -844 
L 550 -844 
L 550 4863 
z
" transform="scale(0.015625)"/>
       <path id="DejaVuSans-68" d="M 3513 2113 
L 3513 0 
L 2938 0 
L 2938 2094 
Q 2938 2591 2744 2837 
Q 2550 3084 2163 3084 
Q 1697 3084 1428 2787 
Q 1159 2491 1159 1978 
L 1159 0 
L 581 0 
L 581 4863 
L 1159 4863 
L 1159 2956 
Q 1366 3272 1645 3428 
Q 1925 3584 2291 3584 
Q 2894 3584 3203 3211 
Q 3513 2838 3513 2113 
z
" transform="scale(0.015625)"/>
       <path id="DejaVuSans-5d" d="M 1947 4863 
L 1947 -844 
L 622 -844 
L 622 -397 
L 1369 -397 
L 1369 4416 
L 622 4416 
L 622 4863 
L 1947 4863 
z
" transform="scale(0.015625)"/>
      </defs>
      <use xlink:href="#DejaVuSans-54"/>
      <use xlink:href="#DejaVuSans-69" transform="translate(57.958984 0)"/>
      <use xlink:href="#DejaVuSans-6d" transform="translate(85.742188 0)"/>
      <use xlink:href="#DejaVuSans-65" transform="translate(183.154297 0)"/>
      <use xlink:href="#DejaVuSans-20" transform="translate(244.677734 0)"/>
      <use xlink:href="#DejaVuSans-5b" transform="translate(276.464844 0)"/>
      <use xlink:href="#DejaVuSans-68" transform="translate(315.478516 0)"/>
      <use xlink:href="#DejaVuSans-5d" transform="translate(378.857422 0)"/>
     </g>
    </g>
   </g>
   <g id="matplotlib.axis_2">
    <g id="ytick_1">
     <g id="line2d_9">
      <defs>
       <path id="m0a4c66f019" d="M 0 0 
L -3.5 0 
" style="stroke: #000000; stroke-width: 0.8"/>
      </defs>
      <g>
       <use xlink:href="#m0a4c66f019" x="47.81" y="236.012727" style="stroke: #000000; stroke-width: 0.8"/>
      </g>
     </g>
     <g id="text_10">
      <!-- 0.0 -->
      <g transform="translate(24.906875 239.811946) scale(0.1 -0.1)">
       <defs>
        <path id="DejaVuSans-2e" d="M 684 794 
L 1344 794 
L 1344 0 
L 684 0 
L 684 794 
z
" transform="scale(0.015625)"/>
       </defs>
       <use xlink:href="#DejaVuSans-30"/>
       <use xlink:href="#DejaVuSans-2e" transform="translate(63.623047 0)"/>
       <use xlink:href="#DejaVuSans-30" transform="translate(95.410156 0)"/>
      </g>
     </g>
    </g>
    <g id="ytick_2">
     <g id="line2d_10">
      <g>
       <use xlink:href="#m0a4c66f019" x="47.81" y="195.903636" style="stroke: #000000; stroke-width: 0.8"/>
      </g>
     </g>
     <g id="text_11">
      <!-- 0.2 -->
      <g transform="translate(24.906875 199.702855) scale(0.1 -0.1)">
       <use xlink:href="#DejaVuSans-30"/>
       <use xlink:href="#DejaVuSans-2e" transform="translate(63.623047 0)"/>
       <use xlink:href="#DejaVuSans-32" transform="translate(95.410156 0)"/>
      </g>
     </g>
    </g>
    <g id="ytick_3">
     <g id="line2d_11">
      <g>
       <use xlink:href="#m0a4c66f019" x="47.81" y="155.794545" style="stroke: #000000; stroke-width: 0.8"/>
      </g>
     </g>
     <g id="text_12">
      <!-- 0.4 -->
      <g transform="translate(24.906875 159.593764) scale(0.1 -0.1)">
       <use xlink:href="#DejaVuSans-30"/>
       <use xlink:href="#DejaVuSans-2e" transform="translate(63.623047 0)"/>
       <use xlink:href="#DejaVuSans-34" transform="translate(95.410156 0)"/>
      </g>
     </g>
    </g>
    <g id="ytick_4">
     <g id="line2d_12">
      <g>
       <use xlink:href="#m0a4c66f019" x="47.81" y="115.685455" style="stroke: #000000; stroke-width: 0.8"/>
      </g>
     </g>
     <g id="text_13">
      <!-- 0.6 -->
      <g transform="translate(24.906875 119.484673) scale(0.1 -0.1)">
       <use xlink:href="#DejaVuSans-30"/>
       <use xlink:href="#DejaVuSans-2e" transform="translate(63.623047 0)"/>
       <use xlink:href="#DejaVuSans-36" transform="translate(95.410156 0)"/>
      </g>
     </g>
    </g>
    <g id="ytick_5">
     <g id="line2d_13">
      <g>
       <use xlink:href="#m0a4c66f019" x="47.81" y="75.576364" style="stroke: #000000; stroke-width: 0.8"/>
      </g>
     </g>
     <g id="text_14">
      <!-- 0.8 -->
      <g transform="translate(24.906875 79.375582) scale(0.1 -0.1)">
       <defs>
        <path id="DejaVuSans-38" d="M 2034 2216 
Q 1584 2216 1326 1975 
Q 1069 1734 1069 1313 
Q 1069 891 1326 650 
Q 1584 409 2034 409 
Q 2484 409 2743 651 
Q 3003 894 3003 1313 
Q 3003 1734 2745 1975 
Q 2488 2216 2034 2216 
z
M 1403 2484 
Q 997 2584 770 2862 
Q 544 3141 544 3541 
Q 544 4100 942 4425 
Q 1341 4750 2034 4750 
Q 2731 4750 3128 4425 
Q 3525 4100 3525 3541 
Q 3525 3141 3298 2862 
Q 3072 2584 2669 2484 
Q 3125 2378 3379 2068 
Q 3634 1759 3634 1313 
Q 3634 634 3220 271 
Q 2806 -91 2034 -91 
Q 1263 -91 848 271 
Q 434 634 434 1313 
Q 434 1759 690 2068 
Q 947 2378 1403 2484 
z
M 1172 3481 
Q 1172 3119 1398 2916 
Q 1625 2713 2034 2713 
Q 2441 2713 2670 2916 
Q 2900 3119 2900 3481 
Q 2900 3844 2670 4047 
Q 2441 4250 2034 4250 
Q 1625 4250 1398 4047 
Q 1172 3844 1172 3481 
z
" transform="scale(0.015625)"/>
       </defs>
       <use xlink:href="#DejaVuSans-30"/>
       <use xlink:href="#DejaVuSans-2e" transform="translate(63.623047 0)"/>
       <use xlink:href="#DejaVuSans-38" transform="translate(95.410156 0)"/>
      </g>
     </g>
    </g>
    <g id="ytick_6">
     <g id="line2d_14">
      <g>
       <use xlink:href="#m0a4c66f019" x="47.81" y="35.467273" style="stroke: #000000; stroke-width: 0.8"/>
      </g>
     </g>
     <g id="text_15">
      <!-- 1.0 -->
      <g transform="translate(24.906875 39.266491) scale(0.1 -0.1)">
       <use xlink:href="#DejaVuSans-31"/>
       <use xlink:href="#DejaVuSans-2e" transform="translate(63.623047 0)"/>
       <use xlink:href="#DejaVuSans-30" transform="translate(95.410156 0)"/>
      </g>
     </g>
    </g>
    <g id="text_16">
     <!-- Mole fraction -->
     <g transform="translate(18.827188 168.374375) rotate(-90) scale(0.1 -0.1)">
      <defs>
       <path id="DejaVuSans-4d" d="M 628 4666 
L 1569 4666 
L 2759 1491 
L 3956 4666 
L 4897 4666 
L 4897 0 
L 4281 0 
L 4281 4097 
L 3078 897 
L 2444 897 
L 1241 4097 
L 1241 0 
L 628 0 
L 628 4666 
z
" transform="scale(0.015625)"/>
       <path id="DejaVuSans-6f" d="M 1959 3097 
Q 1497 3097 1228 2736 
Q 959 2375 959 1747 
Q 959 1119 1226 758 
Q 1494 397 1959 397 
Q 2419 397 2687 759 
Q 2956 1122 2956 1747 
Q 2956 2369 2687 2733 
Q 2419 3097 1959 3097 
z
M 1959 3584 
Q 2709 3584 3137 3096 
Q 3566 2609 3566 1747 
Q 3566 888 3137 398 
Q 2709 -91 1959 -91 
Q 1206 -91 779 398 
Q 353 888 353 1747 
Q 353 2609 779 3096 
Q 1206 3584 1959 3584 
z
" transform="scale(0.015625)"/>
       <path id="DejaVuSans-6c" d="M 603 4863 
L 1178 4863 
L 1178 0 
L 603 0 
L 603 4863 
z
" transform="scale(0.015625)"/>
       <path id="DejaVuSans-66" d="M 2375 4863 
L 2375 4384 
L 1825 4384 
Q 1516 4384 1395 4259 
Q 1275 4134 1275 3809 
L 1275 3500 
L 2222 3500 
L 2222 3053 
L 1275 3053 
L 1275 0 
L 697 0 
L 697 3053 
L 147 3053 
L 147 3500 
L 697 3500 
L 697 3744 
Q 697 4328 969 4595 
Q 1241 4863 1831 4863 
L 2375 4863 
z
" transform="scale(0.015625)"/>
       <path id="DejaVuSans-72" d="M 2631 2963 
Q 2534 3019 2420 3045 
Q 2306 3072 2169 3072 
Q 1681 3072 1420 2755 
Q 1159 2438 1159 1844 
L 1159 0 
L 581 0 
L 581 3500 
L 1159 3500 
L 1159 2956 
Q 1341 3275 1631 3429 
Q 1922 3584 2338 3584 
Q 2397 3584 2469 3576 
Q 2541 3569 2628 3553 
L 2631 2963 
z
" transform="scale(0.015625)"/>
       <path id="DejaVuSans-61" d="M 2194 1759 
Q 1497 1759 1228 1600 
Q 959 1441 959 1056 
Q 959 750 1161 570 
Q 1363 391 1709 391 
Q 2188 391 2477 730 
Q 2766 1069 2766 1631 
L 2766 1759 
L 2194 1759 
z
M 3341 1997 
L 3341 0 
L 2766 0 
L 2766 531 
Q 2569 213 2275 61 
Q 1981 -91 1556 -91 
Q 1019 -91 701 211 
Q 384 513 384 1019 
Q 384 1609 779 1909 
Q 1175 2209 1959 2209 
L 2766 2209 
L 2766 2266 
Q 2766 2663 2505 2880 
Q 2244 3097 1772 3097 
Q 1472 3097 1187 3025 
Q 903 2953 641 2809 
L 641 3341 
Q 956 3463 1253 3523 
Q 1550 3584 1831 3584 
Q 2591 3584 2966 3190 
Q 3341 2797 3341 1997 
z
" transform="scale(0.015625)"/>
       <path id="DejaVuSans-63" d="M 3122 3366 
L 3122 2828 
Q 2878 2963 2633 3030 
Q 2388 3097 2138 3097 
Q 1578 3097 1268 2742 
Q 959 2388 959 1747 
Q 959 1106 1268 751 
Q 1578 397 2138 397 
Q 2388 397 2633 464 
Q 2878 531 3122 666 
L 3122 134 
Q 2881 22 2623 -34 
Q 2366 -91 2075 -91 
Q 1284 -91 818 406 
Q 353 903 353 1747 
Q 353 2603 823 3093 
Q 1294 3584 2113 3584 
Q 2378 3584 2631 3529 
Q 2884 3475 3122 3366 
z
" transform="scale(0.015625)"/>
       <path id="DejaVuSans-74" d="M 1172 4494 
L 1172 3500 
L 2356 3500 
L 2356 3053 
L 1172 3053 
L 1172 1153 
Q 1172 725 1289 603 
Q 1406 481 1766 481 
L 2356 481 
L 2356 0 
L 1766 0 
Q 1100 0 847 248 
Q 594 497 594 1153 
L 594 3053 
L 172 3053 
L 172 3500 
L 594 3500 
L 594 4494 
L 1172 4494 
z
" transform="scale(0.015625)"/>
       <path id="DejaVuSans-6e" d="M 3513 2113 
L 3513 0 
L 2938 0 
L 2938 2094 
Q 2938 2591 2744 2837 
Q 2550 3084 2163 3084 
Q 1697 3084 1428 2787 
Q 1159 2491 1159 1978 
L 1159 0 
L 581 0 
L 581 3500 
L 1159 3500 
L 1159 2956 
Q 1366 3272 1645 3428 
Q 1925 3584 2291 3584 
Q 2894 3584 3203 3211 
Q 3513 2838 3513 2113 
z
" transform="scale(0.015625)"/>
      </defs>
      <use xlink:href="#DejaVuSans-4d"/>
      <use xlink:href="#DejaVuSans-6f" transform="translate(86.279297 0)"/>
      <use xlink:href="#DejaVuSans-6c" transform="translate(147.460938 0)"/>
      <use xlink:href="#DejaVuSans-65" transform="translate(175.244141 0)"/>
      <use xlink:href="#DejaVuSans-20" transform="translate(236.767578 0)"/>
      <use xlink:href="#DejaVuSans-66" transform="translate(268.554688 0)"/>
      <use xlink:href="#DejaVuSans-72" transform="translate(303.759766 0)"/>
      <use xlink:href="#DejaVuSans-61" transform="translate(344.873047 0)"/>
      <use xlink:href="#DejaVuSans-63" transform="translate(406.152344 0)"/>
      <use xlink:href="#DejaVuSans-74" transform="translate(461.132812 0)"/>
      <use xlink:href="#DejaVuSans-69" transform="translate(500.341797 0)"/>
      <use xlink:href="#DejaVuSans-6f" transform="translate(528.125 0)"/>
      <use xlink:href="#DejaVuSans-6e" transform="translate(589.306641 0)"/>
     </g>
    </g>
   </g>
   <g id="line2d_15">
    <path d="M 64.782273 236.012727 
L 126.98834 236.012727 
L 127.756316 235.832168 
L 129.292269 235.832168 
L 130.060245 234.962754 
L 130.828221 233.590579 
L 132.364173 233.590579 
L 133.132149 231.60226 
L 133.900125 229.969583 
L 134.668102 229.661447 
L 137.740006 229.661447 
L 138.507982 229.490885 
L 139.275958 228.69925 
L 140.043935 227.547911 
L 140.811911 227.210147 
L 141.579887 226.68823 
L 142.347863 226.68823 
L 143.115839 225.1213 
L 143.883815 225.025523 
L 144.651791 224.35347 
L 145.419768 222.343089 
L 146.187744 222.343089 
L 146.95572 221.073613 
L 147.723696 220.571824 
L 148.491672 220.55371 
L 149.259648 219.947187 
L 150.027624 219.947187 
L 150.795601 219.668784 
L 151.563577 218.023907 
L 152.331553 218.023907 
L 153.099529 217.621807 
L 153.867505 216.433891 
L 154.635481 215.918593 
L 155.403457 215.918593 
L 156.171434 214.060176 
L 156.93941 214.060176 
L 157.707386 211.245723 
L 160.77929 211.137759 
L 161.547267 210.731956 
L 162.315243 208.701281 
L 163.083219 207.436719 
L 163.851195 206.45441 
L 164.619171 206.267136 
L 165.387147 205.77901 
L 166.155123 204.213726 
L 166.9231 204.009367 
L 167.691076 202.260261 
L 168.459052 202.260261 
L 169.227028 201.416027 
L 170.76298 199.102066 
L 171.530956 197.379756 
L 172.298933 197.026676 
L 173.066909 194.677687 
L 173.834885 194.464521 
L 174.602861 194.464521 
L 175.370837 192.34216 
L 176.138813 192.120718 
L 176.906789 192.069141 
L 177.674766 191.317582 
L 178.442742 191.317582 
L 179.210718 189.526166 
L 180.74667 186.71749 
L 181.514646 186.71749 
L 182.282622 185.15606 
L 184.586551 185.15606 
L 185.354527 184.701883 
L 186.890479 184.701883 
L 187.658455 184.110822 
L 188.426431 181.680476 
L 189.194408 181.680476 
L 189.962384 180.636911 
L 190.73036 180.636911 
L 192.266312 178.637563 
L 193.034288 176.179336 
L 193.802264 176.167652 
L 194.570241 173.647842 
L 195.338217 172.331345 
L 196.106193 171.891046 
L 196.874169 170.423926 
L 197.642145 169.489013 
L 198.410121 167.297625 
L 199.178098 166.368206 
L 199.946074 164.334043 
L 200.71405 163.220684 
L 201.482026 162.514981 
L 202.250002 158.676913 
L 203.017978 157.173104 
L 203.785954 156.60398 
L 204.55393 154.017497 
L 205.321907 152.519272 
L 206.089883 150.365498 
L 207.625835 147.592949 
L 208.393811 145.637411 
L 209.161787 145.637411 
L 209.929763 142.433174 
L 210.69774 140.75235 
L 211.465716 140.607379 
L 212.233692 137.848953 
L 213.001668 135.722906 
L 213.769644 135.135532 
L 214.53762 133.055863 
L 216.073573 130.500809 
L 216.841549 128.212155 
L 217.609525 127.29469 
L 218.377501 127.29469 
L 219.145477 124.292758 
L 219.913453 124.176213 
L 220.681429 122.754975 
L 221.449406 122.754975 
L 222.217382 120.504572 
L 222.985358 120.504572 
L 224.52131 116.690771 
L 225.289286 115.156305 
L 226.057262 115.156305 
L 226.825239 113.360891 
L 227.593215 113.360891 
L 228.361191 110.055923 
L 229.129167 109.425318 
L 229.897143 108.307627 
L 230.665119 108.307627 
L 232.201072 107.547489 
L 232.969048 107.547489 
L 233.737024 107.063999 
L 234.505 107.063999 
L 235.272976 102.714593 
L 236.040952 96.680274 
L 236.808928 95.190254 
L 238.344881 95.124644 
L 239.112857 92.735917 
L 239.880833 92.493656 
L 241.416785 92.493656 
L 242.184761 89.612377 
L 243.720714 89.612377 
L 244.48869 84.277954 
L 245.256666 82.924143 
L 246.024642 82.726435 
L 246.792618 81.732244 
L 247.560594 79.776161 
L 248.328571 79.776161 
L 249.096547 76.121683 
L 249.864523 74.541621 
L 250.632499 74.541621 
L 252.168451 70.000611 
L 252.936427 68.91476 
L 254.47238 68.833948 
L 255.240356 66.899452 
L 257.544284 66.899452 
L 258.31226 63.05259 
L 260.616189 63.022908 
L 261.384165 61.24167 
L 262.152141 61.095484 
L 262.920117 58.974374 
L 264.456069 58.974374 
L 265.224046 58.236498 
L 265.992022 55.427316 
L 266.759998 55.427316 
L 267.527974 51.321979 
L 269.831902 51.321979 
L 270.599879 49.374928 
L 271.367855 49.633534 
L 272.135831 50.11128 
L 272.903807 51.991401 
L 273.671783 51.991401 
L 275.207736 59.954215 
L 275.975712 60.075985 
L 277.511664 60.075985 
L 278.27964 64.684379 
L 279.047616 65.455615 
L 280.583568 72.724505 
L 282.887497 80.114755 
L 283.655473 85.870304 
L 284.423449 86.874038 
L 285.959401 91.423801 
L 286.727378 92.633726 
L 287.495354 97.12817 
L 288.26333 98.717373 
L 289.031306 100.642251 
L 289.799282 101.474824 
L 290.567258 104.826116 
L 291.335234 109.213821 
L 293.639163 113.272417 
L 294.407139 113.272417 
L 295.175115 114.875441 
L 295.943091 115.421311 
L 296.711067 117.404854 
L 297.479044 117.756251 
L 298.24702 118.981536 
L 299.014996 120.526973 
L 299.782972 122.515531 
L 300.550948 125.288446 
L 301.318924 125.38648 
L 302.0869 126.675565 
L 302.854877 129.508558 
L 303.622853 131.698869 
L 304.390829 131.767508 
L 305.158805 132.835628 
L 305.926781 136.424355 
L 306.694757 137.813213 
L 307.462733 138.230501 
L 308.23071 140.001807 
L 308.998686 142.158109 
L 309.766662 143.623726 
L 310.534638 147.27407 
L 311.302614 147.383942 
L 312.07059 150.854829 
L 312.838566 152.327402 
L 313.606543 152.678532 
L 314.374519 154.078924 
L 315.142495 154.758013 
L 315.910471 157.027362 
L 316.678447 159.906402 
L 318.214399 163.018836 
L 318.982376 163.788071 
L 319.750352 166.525179 
L 320.518328 167.515284 
L 321.286304 169.37194 
L 322.05428 170.390711 
L 322.822256 173.581615 
L 323.590232 174.228227 
L 324.358209 174.282067 
L 325.126185 176.379865 
L 325.894161 177.345282 
L 326.662137 177.589507 
L 327.430113 180.207448 
L 328.198089 182.0627 
L 328.966065 182.082072 
L 329.734042 187.130019 
L 330.502018 187.130019 
L 331.269994 189.827748 
L 332.03797 189.933988 
L 333.573922 192.633988 
L 334.341898 195.235105 
L 335.109875 195.235105 
L 335.877851 195.731603 
L 337.413803 195.731603 
L 338.181779 197.301726 
L 338.949755 197.301726 
L 339.717731 200.110097 
L 340.485707 201.098081 
L 342.789636 201.192592 
L 343.557612 201.250443 
L 344.325588 201.678528 
L 349.701421 201.727133 
L 350.469397 201.91121 
L 354.309278 201.91121 
L 355.077254 203.039478 
L 355.84523 203.175288 
L 356.613206 204.237189 
L 358.149159 204.237189 
L 358.917135 206.689199 
L 362.757016 206.689199 
L 363.524992 207.640257 
L 365.060944 207.640257 
L 365.82892 207.926023 
L 366.596896 208.656062 
L 367.364872 209.73862 
L 368.900825 209.73862 
L 369.668801 213.112667 
L 371.204753 213.112667 
L 371.972729 213.946975 
L 372.740705 215.968887 
L 373.508682 215.968887 
L 374.276658 217.482953 
L 375.044634 217.482953 
L 375.81261 218.207639 
L 376.580586 218.207639 
L 377.348562 220.712505 
L 378.116538 220.712505 
L 378.884515 222.911657 
L 381.188443 222.911657 
L 381.956419 225.679419 
L 382.724395 225.679419 
L 383.492371 227.070988 
L 384.260348 227.415454 
L 385.028324 228.063665 
L 385.7963 228.063665 
L 386.564276 231.368581 
L 389.636181 231.368581 
L 390.404157 233.349649 
L 393.476061 233.349649 
L 394.244037 234.171379 
L 395.012014 235.437082 
L 398.851894 235.437082 
L 399.61987 236.012727 
L 404.227727 236.012727 
L 404.227727 236.012727 
" clip-path="url(#p5d8b23a7ac)" style="fill: none; stroke: #1f77b4; stroke-width: 1.5; stroke-linecap: square"/>
   </g>
   <g id="line2d_16">
    <path d="M 64.782273 236.012727 
L 144.651791 236.012727 
L 145.419768 235.807381 
L 150.027624 235.807381 
L 150.795601 235.662665 
L 151.563577 235.662665 
L 152.331553 235.492263 
L 153.099529 235.492263 
L 153.867505 235.059547 
L 155.403457 234.489268 
L 156.93941 234.4852 
L 157.707386 234.068463 
L 172.298933 234.068463 
L 173.066909 234.281629 
L 173.834885 234.068463 
L 175.370837 234.068463 
L 176.138813 232.838606 
L 178.442742 232.787029 
L 209.161787 232.677518 
L 209.929763 232.530261 
L 216.073573 232.476467 
L 219.913453 232.022626 
L 222.985358 231.997479 
L 223.753334 231.651459 
L 226.057262 231.651459 
L 226.825239 231.272895 
L 269.063926 231.272895 
L 269.831902 230.295197 
L 270.599879 229.677944 
L 272.135831 229.180418 
L 272.903807 229.180418 
L 273.671783 225.590777 
L 275.207736 221.178294 
L 275.975712 220.394244 
L 276.743688 216.698205 
L 278.27964 211.742637 
L 279.047616 210.317123 
L 280.583568 205.668484 
L 281.351545 204.142929 
L 282.887497 198.361637 
L 283.655473 197.161914 
L 284.423449 195.220082 
L 285.959401 190.710185 
L 286.727378 189.189925 
L 287.495354 185.915421 
L 290.567258 178.536069 
L 291.335234 176.364704 
L 292.103211 175.455355 
L 292.871187 173.225015 
L 293.639163 172.088278 
L 294.407139 169.666921 
L 295.175115 168.045835 
L 295.943091 165.038841 
L 296.711067 164.724313 
L 297.479044 161.740049 
L 299.014996 159.555267 
L 299.782972 157.263389 
L 300.550948 156.410518 
L 301.318924 153.344557 
L 302.0869 151.868259 
L 303.622853 150.926742 
L 305.926781 145.151061 
L 306.694757 141.979861 
L 307.462733 139.600364 
L 308.23071 138.799706 
L 308.998686 135.046095 
L 310.534638 133.474706 
L 311.302614 129.902302 
L 312.07059 129.902302 
L 312.838566 128.846806 
L 313.606543 125.981717 
L 314.374519 124.248564 
L 315.142495 123.234217 
L 315.910471 120.511726 
L 316.678447 119.131811 
L 317.446423 118.701154 
L 318.214399 117.55281 
L 318.982376 115.649878 
L 319.750352 112.058576 
L 320.518328 112.058576 
L 321.286304 109.559905 
L 322.05428 108.681894 
L 322.822256 107.424346 
L 323.590232 105.557213 
L 324.358209 99.638729 
L 325.126185 99.426632 
L 325.894161 97.799346 
L 326.662137 97.184418 
L 327.430113 93.837613 
L 328.198089 91.35468 
L 328.966065 90.515933 
L 329.734042 90.496561 
L 330.502018 87.784561 
L 331.269994 87.784561 
L 332.03797 87.254286 
L 332.805946 87.254286 
L 333.573922 85.203669 
L 334.341898 85.203669 
L 335.109875 82.944403 
L 335.877851 81.261271 
L 336.645827 79.848876 
L 345.093564 79.848876 
L 345.861541 79.529482 
L 348.933445 79.529482 
L 349.701421 78.176189 
L 358.917135 78.176189 
L 359.685111 76.186299 
L 360.453087 76.180574 
L 361.221063 74.674113 
L 362.014639 74.674113 
L 362.757016 74.270832 
L 364.292968 74.270832 
L 365.060944 70.745935 
L 367.364872 70.745935 
L 368.132849 67.332918 
L 369.668801 67.332918 
L 370.436777 66.914684 
L 371.204753 64.58655 
L 374.276658 64.58655 
L 375.044634 57.946514 
L 375.81261 57.946514 
L 376.580586 56.576051 
L 377.348562 56.576051 
L 378.116538 56.263159 
L 378.884515 56.263159 
L 379.652491 54.467024 
L 380.420467 54.467024 
L 381.188443 53.3117 
L 381.956419 53.3117 
L 382.724395 52.808581 
L 384.260348 52.297115 
L 385.028324 49.500699 
L 387.332252 49.479995 
L 388.113028 47.039842 
L 388.868204 47.039842 
L 389.636181 45.615757 
L 391.940109 45.615757 
L 392.708085 42.727122 
L 395.77999 42.727122 
L 396.547966 42.198819 
L 401.923799 42.198819 
L 402.691775 38.937836 
L 403.459751 38.082267 
L 404.227727 35.773397 
L 404.227727 35.773397 
" clip-path="url(#p5d8b23a7ac)" style="fill: none; stroke: #ff7f0e; stroke-width: 1.5; stroke-linecap: square"/>
   </g>
   <g id="line2d_17">
    <path d="M 64.782273 36.115004 
L 65.550249 35.467273 
L 66.318225 39.81933 
L 67.086201 39.81933 
L 67.854177 41.010317 
L 68.622153 48.161386 
L 69.39013 53.844098 
L 70.158106 55.970203 
L 70.926082 56.250953 
L 71.694058 57.337488 
L 72.462034 60.093823 
L 73.23001 60.180752 
L 73.997986 63.996234 
L 74.765963 63.996234 
L 75.533939 65.86464 
L 76.301915 66.109164 
L 77.069891 66.690987 
L 78.605843 66.690987 
L 79.373819 66.886314 
L 81.677748 66.886314 
L 82.445724 67.061389 
L 83.2137 67.501074 
L 83.981676 71.698336 
L 84.749652 71.698336 
L 85.517629 73.586072 
L 86.285605 73.586072 
L 87.053581 73.720497 
L 87.821557 75.527603 
L 88.589533 75.527603 
L 89.357509 76.834002 
L 90.125485 79.917999 
L 90.893462 81.594567 
L 92.429414 84.517932 
L 93.19739 85.520025 
L 93.965366 87.258637 
L 94.733342 87.258637 
L 95.501318 88.892056 
L 96.269295 89.764784 
L 97.037271 92.859791 
L 97.805247 94.639767 
L 100.109175 94.639767 
L 100.877151 95.791835 
L 104.717032 95.791835 
L 105.485008 97.666712 
L 106.252984 97.666712 
L 107.020961 101.579444 
L 107.788937 101.579444 
L 108.556913 104.077358 
L 110.092865 104.077358 
L 110.860841 107.968007 
L 111.628817 107.968007 
L 112.396793 110.932925 
L 113.16477 111.191648 
L 113.932746 111.191648 
L 114.700722 115.356403 
L 116.236674 115.356403 
L 117.00465 120.778977 
L 117.772626 120.778977 
L 119.308579 122.357978 
L 120.076555 122.952798 
L 120.844531 122.952798 
L 121.612507 125.359945 
L 122.380483 126.278122 
L 123.148459 130.742837 
L 123.916436 132.380643 
L 124.684412 135.622771 
L 125.452388 136.666798 
L 126.220364 137.257476 
L 126.98834 140.502895 
L 127.756316 141.483028 
L 128.524292 141.483028 
L 129.292269 144.946182 
L 130.060245 145.043441 
L 130.828221 149.561006 
L 131.596197 149.561006 
L 132.364173 153.531114 
L 133.132149 153.531114 
L 133.900125 156.92131 
L 134.668102 156.92131 
L 135.436078 161.745498 
L 136.204054 161.745498 
L 136.97203 164.489858 
L 137.740006 164.489858 
L 138.507982 166.710674 
L 139.275958 166.710674 
L 140.043935 167.212781 
L 140.811911 167.959669 
L 141.579887 169.446521 
L 142.347863 169.446521 
L 144.651791 175.970503 
L 145.419768 177.243771 
L 146.187744 177.98231 
L 146.95572 177.98231 
L 148.491672 182.050341 
L 150.027624 182.050341 
L 150.795601 184.540947 
L 151.563577 184.540947 
L 152.331553 186.881894 
L 153.099529 187.413019 
L 153.867505 188.93558 
L 154.635481 190.034719 
L 155.403457 190.254198 
L 156.171434 190.254198 
L 156.93941 193.431227 
L 157.707386 193.431227 
L 158.475362 194.722016 
L 159.243338 194.722016 
L 160.011314 196.484248 
L 161.547267 196.484248 
L 162.315243 199.048692 
L 163.083219 200.776094 
L 163.851195 200.776094 
L 164.619171 201.289132 
L 165.387147 203.079324 
L 166.155123 203.079324 
L 166.9231 204.868913 
L 167.691076 204.868913 
L 169.227028 206.383014 
L 169.995004 209.432472 
L 172.298933 209.432472 
L 173.066909 209.645638 
L 173.834885 211.140219 
L 174.602861 211.939641 
L 175.370837 211.939641 
L 176.138813 212.415307 
L 176.906789 213.354732 
L 177.674766 213.354732 
L 178.442742 214.605966 
L 179.210718 215.020017 
L 179.978694 217.213293 
L 181.514646 217.213293 
L 182.282622 217.567051 
L 183.050599 217.567051 
L 183.818575 218.209022 
L 185.354527 218.209022 
L 186.122503 220.337267 
L 188.426431 220.337267 
L 189.194408 220.632967 
L 189.962384 220.632967 
L 190.73036 222.345588 
L 193.034288 222.357272 
L 193.802264 224.604345 
L 195.338217 224.604345 
L 196.106193 226.254387 
L 196.874169 226.254387 
L 197.642145 227.049013 
L 198.410121 227.049013 
L 199.178098 229.878254 
L 199.946074 229.878254 
L 200.71405 230.068005 
L 202.250002 230.068005 
L 203.785954 231.444442 
L 205.321907 231.444442 
L 206.089883 232.205625 
L 206.857859 234.480793 
L 207.625835 234.875351 
L 216.073573 234.875351 
L 216.841549 235.090811 
L 217.609525 234.875351 
L 218.377501 234.875351 
L 219.145477 234.991896 
L 219.913453 234.875351 
L 362.757016 234.875351 
L 363.524992 235.114222 
L 376.580586 235.176703 
L 377.348562 235.587641 
L 381.188443 235.587641 
L 381.956419 236.012727 
L 404.227727 236.012727 
L 404.227727 236.012727 
" clip-path="url(#p5d8b23a7ac)" style="fill: none; stroke: #2ca02c; stroke-width: 1.5; stroke-linecap: square"/>
   </g>
   <g id="line2d_18">
    <path d="M 64.782273 236.012727 
L 69.39013 236.012727 
L 70.158106 235.1945 
L 70.926082 234.787692 
L 71.694058 234.787692 
L 73.23001 231.565661 
L 73.997986 230.961986 
L 74.765963 229.044937 
L 75.533939 229.044937 
L 76.301915 227.875255 
L 77.069891 227.875255 
L 77.837867 224.49997 
L 78.605843 222.698133 
L 79.373819 222.698133 
L 80.141796 221.898249 
L 80.909772 221.400283 
L 83.2137 221.400283 
L 84.749652 219.089818 
L 85.517629 218.729441 
L 86.285605 218.515219 
L 87.053581 216.873169 
L 87.821557 216.873169 
L 88.589533 214.464924 
L 89.357509 213.350932 
L 90.125485 208.023107 
L 90.893462 206.676146 
L 91.661438 205.679992 
L 92.429414 202.544489 
L 93.19739 200.21271 
L 93.965366 199.707358 
L 94.733342 196.454216 
L 95.501318 196.454216 
L 96.269295 193.951131 
L 97.037271 192.522845 
L 97.805247 192.522845 
L 98.573223 190.80041 
L 99.341199 190.263217 
L 100.109175 188.337909 
L 100.877151 188.337909 
L 101.645128 186.049023 
L 102.413104 181.28689 
L 103.18108 180.972409 
L 103.949056 180.296844 
L 104.717032 179.120742 
L 105.485008 179.120742 
L 106.252984 178.515364 
L 107.020961 177.359158 
L 108.556913 176.707649 
L 109.324889 172.973371 
L 110.860841 172.889544 
L 111.628817 169.357739 
L 113.16477 169.357739 
L 113.932746 165.027606 
L 114.700722 165.027606 
L 115.468698 162.187327 
L 116.236674 160.848494 
L 117.00465 160.848494 
L 117.772626 158.120013 
L 120.076555 158.120013 
L 120.844531 154.960115 
L 121.612507 154.865494 
L 122.380483 149.912655 
L 123.148459 149.912655 
L 123.916436 148.381677 
L 124.684412 144.978319 
L 125.452388 142.303102 
L 126.220364 140.906823 
L 126.98834 138.000362 
L 127.756316 138.000362 
L 128.524292 134.145138 
L 129.292269 133.712454 
L 130.060245 132.67751 
L 130.828221 132.67751 
L 131.596197 129.32889 
L 132.364173 129.32889 
L 133.132149 128.308429 
L 133.900125 128.308429 
L 134.668102 123.323335 
L 135.436078 123.323335 
L 136.204054 119.093318 
L 136.97203 119.093318 
L 137.740006 117.891915 
L 138.507982 117.891915 
L 139.275958 116.088443 
L 140.811911 115.889704 
L 142.347863 113.621404 
L 143.115839 113.483724 
L 143.883815 113.483724 
L 144.651791 112.727782 
L 146.187744 110.305048 
L 148.491672 110.256106 
L 149.259648 108.421886 
L 150.027624 107.947697 
L 150.795601 107.947697 
L 151.563577 107.58774 
L 156.93941 107.58774 
L 157.707386 107.359615 
L 160.011314 107.359615 
L 160.77929 106.0175 
L 161.547267 103.85937 
L 165.387147 103.808584 
L 166.155123 103.592011 
L 166.9231 104.100016 
L 169.227028 104.100016 
L 169.995004 104.687335 
L 172.298933 104.687335 
L 173.834885 105.116927 
L 174.602861 106.079246 
L 177.674766 106.079246 
L 178.442742 107.653551 
L 179.978694 107.653551 
L 180.74667 108.545918 
L 181.514646 108.820627 
L 182.282622 108.820627 
L 183.050599 109.348373 
L 188.426431 109.413576 
L 189.194408 109.682195 
L 189.962384 109.682195 
L 190.73036 112.15845 
L 193.034288 112.170134 
L 193.802264 112.995065 
L 194.570241 112.995065 
L 195.338217 114.236831 
L 196.874169 117.064859 
L 197.642145 117.064859 
L 198.410121 117.801423 
L 199.178098 120.88296 
L 200.71405 120.88296 
L 201.482026 124.514662 
L 202.250002 124.514662 
L 203.017978 125.271509 
L 203.785954 127.194811 
L 205.321907 127.198574 
L 206.089883 128.53225 
L 206.857859 128.53225 
L 207.625835 131.312473 
L 208.393811 132.642334 
L 209.161787 135.309982 
L 209.929763 135.509913 
L 212.233692 139.220557 
L 213.001668 141.237175 
L 213.769644 143.994056 
L 214.53762 144.073639 
L 215.305596 147.020145 
L 216.073573 147.264029 
L 216.841549 147.836017 
L 217.609525 151.225634 
L 218.377501 151.965086 
L 219.145477 152.08163 
L 219.913453 156.045263 
L 220.681429 156.045263 
L 221.449406 156.715655 
L 222.217382 156.715655 
L 222.985358 159.131378 
L 223.753334 159.131378 
L 224.52131 162.897012 
L 225.289286 164.301797 
L 226.057262 166.621205 
L 226.825239 168.070281 
L 227.593215 171.212127 
L 228.361191 171.212127 
L 229.129167 173.081412 
L 229.897143 174.409616 
L 230.665119 177.428732 
L 231.433095 177.83466 
L 232.201072 177.83466 
L 232.969048 180.016975 
L 233.737024 180.998497 
L 235.272976 186.735817 
L 236.040952 186.735817 
L 236.808928 187.249049 
L 237.576905 191.29185 
L 238.344881 191.40487 
L 239.880833 191.40487 
L 241.416785 195.430523 
L 242.952738 195.430523 
L 243.720714 198.789581 
L 244.48869 198.789581 
L 245.256666 201.305983 
L 247.560594 201.354605 
L 248.328571 203.102267 
L 249.096547 204.129783 
L 249.864523 204.129783 
L 251.400475 207.221844 
L 252.168451 207.266762 
L 252.936427 208.384155 
L 253.704404 208.863187 
L 254.47238 210.609413 
L 255.240356 210.853326 
L 256.008332 211.706341 
L 256.776308 212.852612 
L 257.544284 215.44576 
L 258.31226 215.44576 
L 259.080237 217.785264 
L 259.848213 218.653102 
L 261.384165 219.552549 
L 262.152141 219.552549 
L 262.920117 221.860165 
L 265.224046 225.743891 
L 265.992022 226.454101 
L 266.759998 226.641058 
L 267.527974 226.641058 
L 268.29595 229.411771 
L 269.063926 231.356105 
L 269.831902 231.356105 
L 270.599879 233.057801 
L 271.367855 233.057801 
L 272.135831 233.501314 
L 272.903807 234.462524 
L 273.671783 234.462524 
L 274.439759 234.790684 
L 280.583568 234.790684 
L 281.351545 235.457181 
L 282.887497 236.012727 
L 404.227727 236.012727 
L 404.227727 236.012727 
" clip-path="url(#p5d8b23a7ac)" style="fill: none; stroke: #d62728; stroke-width: 1.5; stroke-linecap: square"/>
   </g>
   <g id="patch_3">
    <path d="M 47.81 246.04 
L 47.81 25.44 
" style="fill: none; stroke: #000000; stroke-width: 0.8; stroke-linejoin: miter; stroke-linecap: square"/>
   </g>
   <g id="patch_4">
    <path d="M 421.2 246.04 
L 421.2 25.44 
" style="fill: none; stroke: #000000; stroke-width: 0.8; stroke-linejoin: miter; stroke-linecap: square"/>
   </g>
   <g id="patch_5">
    <path d="M 47.81 246.04 
L 421.2 246.04 
" style="fill: none; stroke: #000000; stroke-width: 0.8; stroke-linejoin: miter; stroke-linecap: square"/>
   </g>
   <g id="patch_6">
    <path d="M 47.81 25.44 
L 421.2 25.44 
" style="fill: none; stroke: #000000; stroke-width: 0.8; stroke-linejoin: miter; stroke-linecap: square"/>
   </g>
   <g id="text_17">
    <!-- Concentration Evolution with All Components Unimodal -->
    <g transform="translate(67.893438 19.44) scale(0.12 -0.12)">
     <defs>
      <path id="DejaVuSans-43" d="M 4122 4306 
L 4122 3641 
Q 3803 3938 3442 4084 
Q 3081 4231 2675 4231 
Q 1875 4231 1450 3742 
Q 1025 3253 1025 2328 
Q 1025 1406 1450 917 
Q 1875 428 2675 428 
Q 3081 428 3442 575 
Q 3803 722 4122 1019 
L 4122 359 
Q 3791 134 3420 21 
Q 3050 -91 2638 -91 
Q 1578 -91 968 557 
Q 359 1206 359 2328 
Q 359 3453 968 4101 
Q 1578 4750 2638 4750 
Q 3056 4750 3426 4639 
Q 3797 4528 4122 4306 
z
" transform="scale(0.015625)"/>
      <path id="DejaVuSans-45" d="M 628 4666 
L 3578 4666 
L 3578 4134 
L 1259 4134 
L 1259 2753 
L 3481 2753 
L 3481 2222 
L 1259 2222 
L 1259 531 
L 3634 531 
L 3634 0 
L 628 0 
L 628 4666 
z
" transform="scale(0.015625)"/>
      <path id="DejaVuSans-76" d="M 191 3500 
L 800 3500 
L 1894 563 
L 2988 3500 
L 3597 3500 
L 2284 0 
L 1503 0 
L 191 3500 
z
" transform="scale(0.015625)"/>
      <path id="DejaVuSans-75" d="M 544 1381 
L 544 3500 
L 1119 3500 
L 1119 1403 
Q 1119 906 1312 657 
Q 1506 409 1894 409 
Q 2359 409 2629 706 
Q 2900 1003 2900 1516 
L 2900 3500 
L 3475 3500 
L 3475 0 
L 2900 0 
L 2900 538 
Q 2691 219 2414 64 
Q 2138 -91 1772 -91 
Q 1169 -91 856 284 
Q 544 659 544 1381 
z
M 1991 3584 
L 1991 3584 
z
" transform="scale(0.015625)"/>
      <path id="DejaVuSans-77" d="M 269 3500 
L 844 3500 
L 1563 769 
L 2278 3500 
L 2956 3500 
L 3675 769 
L 4391 3500 
L 4966 3500 
L 4050 0 
L 3372 0 
L 2619 2869 
L 1863 0 
L 1184 0 
L 269 3500 
z
" transform="scale(0.015625)"/>
      <path id="DejaVuSans-41" d="M 2188 4044 
L 1331 1722 
L 3047 1722 
L 2188 4044 
z
M 1831 4666 
L 2547 4666 
L 4325 0 
L 3669 0 
L 3244 1197 
L 1141 1197 
L 716 0 
L 50 0 
L 1831 4666 
z
" transform="scale(0.015625)"/>
      <path id="DejaVuSans-70" d="M 1159 525 
L 1159 -1331 
L 581 -1331 
L 581 3500 
L 1159 3500 
L 1159 2969 
Q 1341 3281 1617 3432 
Q 1894 3584 2278 3584 
Q 2916 3584 3314 3078 
Q 3713 2572 3713 1747 
Q 3713 922 3314 415 
Q 2916 -91 2278 -91 
Q 1894 -91 1617 61 
Q 1341 213 1159 525 
z
M 3116 1747 
Q 3116 2381 2855 2742 
Q 2594 3103 2138 3103 
Q 1681 3103 1420 2742 
Q 1159 2381 1159 1747 
Q 1159 1113 1420 752 
Q 1681 391 2138 391 
Q 2594 391 2855 752 
Q 3116 1113 3116 1747 
z
" transform="scale(0.015625)"/>
      <path id="DejaVuSans-73" d="M 2834 3397 
L 2834 2853 
Q 2591 2978 2328 3040 
Q 2066 3103 1784 3103 
Q 1356 3103 1142 2972 
Q 928 2841 928 2578 
Q 928 2378 1081 2264 
Q 1234 2150 1697 2047 
L 1894 2003 
Q 2506 1872 2764 1633 
Q 3022 1394 3022 966 
Q 3022 478 2636 193 
Q 2250 -91 1575 -91 
Q 1294 -91 989 -36 
Q 684 19 347 128 
L 347 722 
Q 666 556 975 473 
Q 1284 391 1588 391 
Q 1994 391 2212 530 
Q 2431 669 2431 922 
Q 2431 1156 2273 1281 
Q 2116 1406 1581 1522 
L 1381 1569 
Q 847 1681 609 1914 
Q 372 2147 372 2553 
Q 372 3047 722 3315 
Q 1072 3584 1716 3584 
Q 2034 3584 2315 3537 
Q 2597 3491 2834 3397 
z
" transform="scale(0.015625)"/>
      <path id="DejaVuSans-55" d="M 556 4666 
L 1191 4666 
L 1191 1831 
Q 1191 1081 1462 751 
Q 1734 422 2344 422 
Q 2950 422 3222 751 
Q 3494 1081 3494 1831 
L 3494 4666 
L 4128 4666 
L 4128 1753 
Q 4128 841 3676 375 
Q 3225 -91 2344 -91 
Q 1459 -91 1007 375 
Q 556 841 556 1753 
L 556 4666 
z
" transform="scale(0.015625)"/>
      <path id="DejaVuSans-64" d="M 2906 2969 
L 2906 4863 
L 3481 4863 
L 3481 0 
L 2906 0 
L 2906 525 
Q 2725 213 2448 61 
Q 2172 -91 1784 -91 
Q 1150 -91 751 415 
Q 353 922 353 1747 
Q 353 2572 751 3078 
Q 1150 3584 1784 3584 
Q 2172 3584 2448 3432 
Q 2725 3281 2906 2969 
z
M 947 1747 
Q 947 1113 1208 752 
Q 1469 391 1925 391 
Q 2381 391 2643 752 
Q 2906 1113 2906 1747 
Q 2906 2381 2643 2742 
Q 2381 3103 1925 3103 
Q 1469 3103 1208 2742 
Q 947 2381 947 1747 
z
" transform="scale(0.015625)"/>
     </defs>
     <use xlink:href="#DejaVuSans-43"/>
     <use xlink:href="#DejaVuSans-6f" transform="translate(69.824219 0)"/>
     <use xlink:href="#DejaVuSans-6e" transform="translate(131.005859 0)"/>
     <use xlink:href="#DejaVuSans-63" transform="translate(194.384766 0)"/>
     <use xlink:href="#DejaVuSans-65" transform="translate(249.365234 0)"/>
     <use xlink:href="#DejaVuSans-6e" transform="translate(310.888672 0)"/>
     <use xlink:href="#DejaVuSans-74" transform="translate(374.267578 0)"/>
     <use xlink:href="#DejaVuSans-72" transform="translate(413.476562 0)"/>
     <use xlink:href="#DejaVuSans-61" transform="translate(454.589844 0)"/>
     <use xlink:href="#DejaVuSans-74" transform="translate(515.869141 0)"/>
     <use xlink:href="#DejaVuSans-69" transform="translate(555.078125 0)"/>
     <use xlink:href="#DejaVuSans-6f" transform="translate(582.861328 0)"/>
     <use xlink:href="#DejaVuSans-6e" transform="translate(644.042969 0)"/>
     <use xlink:href="#DejaVuSans-20" transform="translate(707.421875 0)"/>
     <use xlink:href="#DejaVuSans-45" transform="translate(739.208984 0)"/>
     <use xlink:href="#DejaVuSans-76" transform="translate(802.392578 0)"/>
     <use xlink:href="#DejaVuSans-6f" transform="translate(861.572266 0)"/>
     <use xlink:href="#DejaVuSans-6c" transform="translate(922.753906 0)"/>
     <use xlink:href="#DejaVuSans-75" transform="translate(950.537109 0)"/>
     <use xlink:href="#DejaVuSans-74" transform="translate(1013.916016 0)"/>
     <use xlink:href="#DejaVuSans-69" transform="translate(1053.125 0)"/>
     <use xlink:href="#DejaVuSans-6f" transform="translate(1080.908203 0)"/>
     <use xlink:href="#DejaVuSans-6e" transform="translate(1142.089844 0)"/>
     <use xlink:href="#DejaVuSans-20" transform="translate(1205.46875 0)"/>
     <use xlink:href="#DejaVuSans-77" transform="translate(1237.255859 0)"/>
     <use xlink:href="#DejaVuSans-69" transform="translate(1319.042969 0)"/>
     <use xlink:href="#DejaVuSans-74" transform="translate(1346.826172 0)"/>
     <use xlink:href="#DejaVuSans-68" transform="translate(1386.035156 0)"/>
     <use xlink:href="#DejaVuSans-20" transform="translate(1449.414062 0)"/>
     <use xlink:href="#DejaVuSans-41" transform="translate(1481.201172 0)"/>
     <use xlink:href="#DejaVuSans-6c" transform="translate(1549.609375 0)"/>
     <use xlink:href="#DejaVuSans-6c" transform="translate(1577.392578 0)"/>
     <use xlink:href="#DejaVuSans-20" transform="translate(1605.175781 0)"/>
     <use xlink:href="#DejaVuSans-43" transform="translate(1636.962891 0)"/>
     <use xlink:href="#DejaVuSans-6f" transform="translate(1706.787109 0)"/>
     <use xlink:href="#DejaVuSans-6d" transform="translate(1767.96875 0)"/>
     <use xlink:href="#DejaVuSans-70" transform="translate(1865.380859 0)"/>
     <use xlink:href="#DejaVuSans-6f" transform="translate(1928.857422 0)"/>
     <use xlink:href="#DejaVuSans-6e" transform="translate(1990.039062 0)"/>
     <use xlink:href="#DejaVuSans-65" transform="translate(2053.417969 0)"/>
     <use xlink:href="#DejaVuSans-6e" transform="translate(2114.941406 0)"/>
     <use xlink:href="#DejaVuSans-74" transform="translate(2178.320312 0)"/>
     <use xlink:href="#DejaVuSans-73" transform="translate(2217.529297 0)"/>
     <use xlink:href="#DejaVuSans-20" transform="translate(2269.628906 0)"/>
     <use xlink:href="#DejaVuSans-55" transform="translate(2301.416016 0)"/>
     <use xlink:href="#DejaVuSans-6e" transform="translate(2374.609375 0)"/>
     <use xlink:href="#DejaVuSans-69" transform="translate(2437.988281 0)"/>
     <use xlink:href="#DejaVuSans-6d" transform="translate(2465.771484 0)"/>
     <use xlink:href="#DejaVuSans-6f" transform="translate(2563.183594 0)"/>
     <use xlink:href="#DejaVuSans-64" transform="translate(2624.365234 0)"/>
     <use xlink:href="#DejaVuSans-61" transform="translate(2687.841797 0)"/>
     <use xlink:href="#DejaVuSans-6c" transform="translate(2749.121094 0)"/>
    </g>
   </g>
   <g id="legend_1">
    <g id="patch_7">
     <path d="M 352.142187 173.935313 
L 414.2 173.935313 
Q 416.2 173.935313 416.2 171.935313 
L 416.2 99.544688 
Q 416.2 97.544688 414.2 97.544688 
L 352.142187 97.544688 
Q 350.142187 97.544688 350.142187 99.544688 
L 350.142187 171.935313 
Q 350.142187 173.935313 352.142187 173.935313 
z
" style="fill: #ffffff; opacity: 0.8; stroke: #cccccc; stroke-linejoin: miter"/>
    </g>
    <g id="text_18">
     <!-- Component -->
     <g transform="translate(354.142187 109.143125) scale(0.1 -0.1)">
      <use xlink:href="#DejaVuSans-43"/>
      <use xlink:href="#DejaVuSans-6f" transform="translate(69.824219 0)"/>
      <use xlink:href="#DejaVuSans-6d" transform="translate(131.005859 0)"/>
      <use xlink:href="#DejaVuSans-70" transform="translate(228.417969 0)"/>
      <use xlink:href="#DejaVuSans-6f" transform="translate(291.894531 0)"/>
      <use xlink:href="#DejaVuSans-6e" transform="translate(353.076172 0)"/>
      <use xlink:href="#DejaVuSans-65" transform="translate(416.455078 0)"/>
      <use xlink:href="#DejaVuSans-6e" transform="translate(477.978516 0)"/>
      <use xlink:href="#DejaVuSans-74" transform="translate(541.357422 0)"/>
     </g>
    </g>
    <g id="line2d_19">
     <path d="M 365.989844 120.32125 
L 375.989844 120.32125 
L 385.989844 120.32125 
" style="fill: none; stroke: #1f77b4; stroke-width: 1.5; stroke-linecap: square"/>
    </g>
    <g id="text_19">
     <!-- 0 -->
     <g transform="translate(393.989844 123.82125) scale(0.1 -0.1)">
      <use xlink:href="#DejaVuSans-30"/>
     </g>
    </g>
    <g id="line2d_20">
     <path d="M 365.989844 134.999375 
L 375.989844 134.999375 
L 385.989844 134.999375 
" style="fill: none; stroke: #ff7f0e; stroke-width: 1.5; stroke-linecap: square"/>
    </g>
    <g id="text_20">
     <!-- 1 -->
     <g transform="translate(393.989844 138.499375) scale(0.1 -0.1)">
      <use xlink:href="#DejaVuSans-31"/>
     </g>
    </g>
    <g id="line2d_21">
     <path d="M 365.989844 149.6775 
L 375.989844 149.6775 
L 385.989844 149.6775 
" style="fill: none; stroke: #2ca02c; stroke-width: 1.5; stroke-linecap: square"/>
    </g>
    <g id="text_21">
     <!-- 2 -->
     <g transform="translate(393.989844 153.1775) scale(0.1 -0.1)">
      <use xlink:href="#DejaVuSans-32"/>
     </g>
    </g>
    <g id="line2d_22">
     <path d="M 365.989844 164.355625 
L 375.989844 164.355625 
L 385.989844 164.355625 
" style="fill: none; stroke: #d62728; stroke-width: 1.5; stroke-linecap: square"/>
    </g>
    <g id="text_22">
     <!-- 3 -->
     <g transform="translate(393.989844 167.855625) scale(0.1 -0.1)">
      <use xlink:href="#DejaVuSans-33"/>
     </g>
    </g>
   </g>
  </g>
 </g>
 <defs>
  <clipPath id="p5d8b23a7ac">
   <rect x="47.81" y="25.44" width="373.39" height="220.6"/>
  </clipPath>
 </defs>
</svg>
