<?xml version="1.0" encoding="utf-8" standalone="no"?>
<!DOCTYPE svg PUBLIC "-//W3C//DTD SVG 1.1//EN"
  "http://www.w3.org/Graphics/SVG/1.1/DTD/svg11.dtd">
<svg xmlns:xlink="http://www.w3.org/1999/xlink" width="432pt" height="288pt" viewBox="0 0 432 288" xmlns="http://www.w3.org/2000/svg" version="1.1">
 <metadata>
  <rdf:RDF xmlns:dc="http://purl.org/dc/elements/1.1/" xmlns:cc="http://creativecommons.org/ns#" xmlns:rdf="http://www.w3.org/1999/02/22-rdf-syntax-ns#">
   <cc:Work>
    <dc:type rdf:resource="http://purl.org/dc/dcmitype/StillImage"/>
    <dc:date>2025-06-18T11:30:46.379138</dc:date>
    <dc:format>image/svg+xml</dc:format>
    <dc:creator>
     <cc:Agent>
      <dc:title>Matplotlib v3.10.1, https://matplotlib.org/</dc:title>
     </cc:Agent>
    </dc:creator>
   </cc:Work>
  </rdf:RDF>
 </metadata>
 <defs>
  <style type="text/css">*{stroke-linejoin: round; stroke-linecap: butt}</style>
 </defs>
 <g id="figure_1">
  <g id="patch_1">
   <path d="M 0 288 
L 432 288 
L 432 0 
L 0 0 
z
" style="fill: #ffffff"/>
  </g>
  <g id="axes_1">
   <g id="patch_2">
    <path d="M 47.81 246.04 
L 421.2 246.04 
L 421.2 25.44 
L 47.81 25.44 
z
" style="fill: #ffffff"/>
   </g>
   <g id="matplotlib.axis_1">
    <g id="xtick_1">
     <g id="line2d_1">
      <defs>
       <path id="m43112b4c7c" d="M 0 0 
L 0 3.5 
" style="stroke: #000000; stroke-width: 0.8"/>
      </defs>
      <g>
       <use xlink:href="#m43112b4c7c" x="64.782273" y="246.04" style="stroke: #000000; stroke-width: 0.8"/>
      </g>
     </g>
     <g id="text_1">
      <!-- 0 -->
      <g transform="translate(61.601023 260.638438) scale(0.1 -0.1)">
       <defs>
        <path id="DejaVuSans-30" d="M 2034 4250 
Q 1547 4250 1301 3770 
Q 1056 3291 1056 2328 
Q 1056 1369 1301 889 
Q 1547 409 2034 409 
Q 2525 409 2770 889 
Q 3016 1369 3016 2328 
Q 3016 3291 2770 3770 
Q 2525 4250 2034 4250 
z
M 2034 4750 
Q 2819 4750 3233 4129 
Q 3647 3509 3647 2328 
Q 3647 1150 3233 529 
Q 2819 -91 2034 -91 
Q 1250 -91 836 529 
Q 422 1150 422 2328 
Q 422 3509 836 4129 
Q 1250 4750 2034 4750 
z
" transform="scale(0.015625)"/>
       </defs>
       <use xlink:href="#DejaVuSans-30"/>
      </g>
     </g>
    </g>
    <g id="xtick_2">
     <g id="line2d_2">
      <g>
       <use xlink:href="#m43112b4c7c" x="110.860841" y="246.04" style="stroke: #000000; stroke-width: 0.8"/>
      </g>
     </g>
     <g id="text_2">
      <!-- 1 -->
      <g transform="translate(107.679591 260.638438) scale(0.1 -0.1)">
       <defs>
        <path id="DejaVuSans-31" d="M 794 531 
L 1825 531 
L 1825 4091 
L 703 3866 
L 703 4441 
L 1819 4666 
L 2450 4666 
L 2450 531 
L 3481 531 
L 3481 0 
L 794 0 
L 794 531 
z
" transform="scale(0.015625)"/>
       </defs>
       <use xlink:href="#DejaVuSans-31"/>
      </g>
     </g>
    </g>
    <g id="xtick_3">
     <g id="line2d_3">
      <g>
       <use xlink:href="#m43112b4c7c" x="156.93941" y="246.04" style="stroke: #000000; stroke-width: 0.8"/>
      </g>
     </g>
     <g id="text_3">
      <!-- 2 -->
      <g transform="translate(153.75816 260.638438) scale(0.1 -0.1)">
       <defs>
        <path id="DejaVuSans-32" d="M 1228 531 
L 3431 531 
L 3431 0 
L 469 0 
L 469 531 
Q 828 903 1448 1529 
Q 2069 2156 2228 2338 
Q 2531 2678 2651 2914 
Q 2772 3150 2772 3378 
Q 2772 3750 2511 3984 
Q 2250 4219 1831 4219 
Q 1534 4219 1204 4116 
Q 875 4013 500 3803 
L 500 4441 
Q 881 4594 1212 4672 
Q 1544 4750 1819 4750 
Q 2544 4750 2975 4387 
Q 3406 4025 3406 3419 
Q 3406 3131 3298 2873 
Q 3191 2616 2906 2266 
Q 2828 2175 2409 1742 
Q 1991 1309 1228 531 
z
" transform="scale(0.015625)"/>
       </defs>
       <use xlink:href="#DejaVuSans-32"/>
      </g>
     </g>
    </g>
    <g id="xtick_4">
     <g id="line2d_4">
      <g>
       <use xlink:href="#m43112b4c7c" x="203.017978" y="246.04" style="stroke: #000000; stroke-width: 0.8"/>
      </g>
     </g>
     <g id="text_4">
      <!-- 3 -->
      <g transform="translate(199.836728 260.638438) scale(0.1 -0.1)">
       <defs>
        <path id="DejaVuSans-33" d="M 2597 2516 
Q 3050 2419 3304 2112 
Q 3559 1806 3559 1356 
Q 3559 666 3084 287 
Q 2609 -91 1734 -91 
Q 1441 -91 1130 -33 
Q 819 25 488 141 
L 488 750 
Q 750 597 1062 519 
Q 1375 441 1716 441 
Q 2309 441 2620 675 
Q 2931 909 2931 1356 
Q 2931 1769 2642 2001 
Q 2353 2234 1838 2234 
L 1294 2234 
L 1294 2753 
L 1863 2753 
Q 2328 2753 2575 2939 
Q 2822 3125 2822 3475 
Q 2822 3834 2567 4026 
Q 2313 4219 1838 4219 
Q 1578 4219 1281 4162 
Q 984 4106 628 3988 
L 628 4550 
Q 988 4650 1302 4700 
Q 1616 4750 1894 4750 
Q 2613 4750 3031 4423 
Q 3450 4097 3450 3541 
Q 3450 3153 3228 2886 
Q 3006 2619 2597 2516 
z
" transform="scale(0.015625)"/>
       </defs>
       <use xlink:href="#DejaVuSans-33"/>
      </g>
     </g>
    </g>
    <g id="xtick_5">
     <g id="line2d_5">
      <g>
       <use xlink:href="#m43112b4c7c" x="249.096547" y="246.04" style="stroke: #000000; stroke-width: 0.8"/>
      </g>
     </g>
     <g id="text_5">
      <!-- 4 -->
      <g transform="translate(245.915297 260.638438) scale(0.1 -0.1)">
       <defs>
        <path id="DejaVuSans-34" d="M 2419 4116 
L 825 1625 
L 2419 1625 
L 2419 4116 
z
M 2253 4666 
L 3047 4666 
L 3047 1625 
L 3713 1625 
L 3713 1100 
L 3047 1100 
L 3047 0 
L 2419 0 
L 2419 1100 
L 313 1100 
L 313 1709 
L 2253 4666 
z
" transform="scale(0.015625)"/>
       </defs>
       <use xlink:href="#DejaVuSans-34"/>
      </g>
     </g>
    </g>
    <g id="xtick_6">
     <g id="line2d_6">
      <g>
       <use xlink:href="#m43112b4c7c" x="295.175115" y="246.04" style="stroke: #000000; stroke-width: 0.8"/>
      </g>
     </g>
     <g id="text_6">
      <!-- 5 -->
      <g transform="translate(291.993865 260.638438) scale(0.1 -0.1)">
       <defs>
        <path id="DejaVuSans-35" d="M 691 4666 
L 3169 4666 
L 3169 4134 
L 1269 4134 
L 1269 2991 
Q 1406 3038 1543 3061 
Q 1681 3084 1819 3084 
Q 2600 3084 3056 2656 
Q 3513 2228 3513 1497 
Q 3513 744 3044 326 
Q 2575 -91 1722 -91 
Q 1428 -91 1123 -41 
Q 819 9 494 109 
L 494 744 
Q 775 591 1075 516 
Q 1375 441 1709 441 
Q 2250 441 2565 725 
Q 2881 1009 2881 1497 
Q 2881 1984 2565 2268 
Q 2250 2553 1709 2553 
Q 1456 2553 1204 2497 
Q 953 2441 691 2322 
L 691 4666 
z
" transform="scale(0.015625)"/>
       </defs>
       <use xlink:href="#DejaVuSans-35"/>
      </g>
     </g>
    </g>
    <g id="xtick_7">
     <g id="line2d_7">
      <g>
       <use xlink:href="#m43112b4c7c" x="341.253684" y="246.04" style="stroke: #000000; stroke-width: 0.8"/>
      </g>
     </g>
     <g id="text_7">
      <!-- 6 -->
      <g transform="translate(338.072434 260.638438) scale(0.1 -0.1)">
       <defs>
        <path id="DejaVuSans-36" d="M 2113 2584 
Q 1688 2584 1439 2293 
Q 1191 2003 1191 1497 
Q 1191 994 1439 701 
Q 1688 409 2113 409 
Q 2538 409 2786 701 
Q 3034 994 3034 1497 
Q 3034 2003 2786 2293 
Q 2538 2584 2113 2584 
z
M 3366 4563 
L 3366 3988 
Q 3128 4100 2886 4159 
Q 2644 4219 2406 4219 
Q 1781 4219 1451 3797 
Q 1122 3375 1075 2522 
Q 1259 2794 1537 2939 
Q 1816 3084 2150 3084 
Q 2853 3084 3261 2657 
Q 3669 2231 3669 1497 
Q 3669 778 3244 343 
Q 2819 -91 2113 -91 
Q 1303 -91 875 529 
Q 447 1150 447 2328 
Q 447 3434 972 4092 
Q 1497 4750 2381 4750 
Q 2619 4750 2861 4703 
Q 3103 4656 3366 4563 
z
" transform="scale(0.015625)"/>
       </defs>
       <use xlink:href="#DejaVuSans-36"/>
      </g>
     </g>
    </g>
    <g id="xtick_8">
     <g id="line2d_8">
      <g>
       <use xlink:href="#m43112b4c7c" x="387.332252" y="246.04" style="stroke: #000000; stroke-width: 0.8"/>
      </g>
     </g>
     <g id="text_8">
      <!-- 7 -->
      <g transform="translate(384.151002 260.638438) scale(0.1 -0.1)">
       <defs>
        <path id="DejaVuSans-37" d="M 525 4666 
L 3525 4666 
L 3525 4397 
L 1831 0 
L 1172 0 
L 2766 4134 
L 525 4134 
L 525 4666 
z
" transform="scale(0.015625)"/>
       </defs>
       <use xlink:href="#DejaVuSans-37"/>
      </g>
     </g>
    </g>
    <g id="text_9">
     <!-- Time [h] -->
     <g transform="translate(213.612031 274.316562) scale(0.1 -0.1)">
      <defs>
       <path id="DejaVuSans-54" d="M -19 4666 
L 3928 4666 
L 3928 4134 
L 2272 4134 
L 2272 0 
L 1638 0 
L 1638 4134 
L -19 4134 
L -19 4666 
z
" transform="scale(0.015625)"/>
       <path id="DejaVuSans-69" d="M 603 3500 
L 1178 3500 
L 1178 0 
L 603 0 
L 603 3500 
z
M 603 4863 
L 1178 4863 
L 1178 4134 
L 603 4134 
L 603 4863 
z
" transform="scale(0.015625)"/>
       <path id="DejaVuSans-6d" d="M 3328 2828 
Q 3544 3216 3844 3400 
Q 4144 3584 4550 3584 
Q 5097 3584 5394 3201 
Q 5691 2819 5691 2113 
L 5691 0 
L 5113 0 
L 5113 2094 
Q 5113 2597 4934 2840 
Q 4756 3084 4391 3084 
Q 3944 3084 3684 2787 
Q 3425 2491 3425 1978 
L 3425 0 
L 2847 0 
L 2847 2094 
Q 2847 2600 2669 2842 
Q 2491 3084 2119 3084 
Q 1678 3084 1418 2786 
Q 1159 2488 1159 1978 
L 1159 0 
L 581 0 
L 581 3500 
L 1159 3500 
L 1159 2956 
Q 1356 3278 1631 3431 
Q 1906 3584 2284 3584 
Q 2666 3584 2933 3390 
Q 3200 3197 3328 2828 
z
" transform="scale(0.015625)"/>
       <path id="DejaVuSans-65" d="M 3597 1894 
L 3597 1613 
L 953 1613 
Q 991 1019 1311 708 
Q 1631 397 2203 397 
Q 2534 397 2845 478 
Q 3156 559 3463 722 
L 3463 178 
Q 3153 47 2828 -22 
Q 2503 -91 2169 -91 
Q 1331 -91 842 396 
Q 353 884 353 1716 
Q 353 2575 817 3079 
Q 1281 3584 2069 3584 
Q 2775 3584 3186 3129 
Q 3597 2675 3597 1894 
z
M 3022 2063 
Q 3016 2534 2758 2815 
Q 2500 3097 2075 3097 
Q 1594 3097 1305 2825 
Q 1016 2553 972 2059 
L 3022 2063 
z
" transform="scale(0.015625)"/>
       <path id="DejaVuSans-20" transform="scale(0.015625)"/>
       <path id="DejaVuSans-5b" d="M 550 4863 
L 1875 4863 
L 1875 4416 
L 1125 4416 
L 1125 -397 
L 1875 -397 
L 1875 -844 
L 550 -844 
L 550 4863 
z
" transform="scale(0.015625)"/>
       <path id="DejaVuSans-68" d="M 3513 2113 
L 3513 0 
L 2938 0 
L 2938 2094 
Q 2938 2591 2744 2837 
Q 2550 3084 2163 3084 
Q 1697 3084 1428 2787 
Q 1159 2491 1159 1978 
L 1159 0 
L 581 0 
L 581 4863 
L 1159 4863 
L 1159 2956 
Q 1366 3272 1645 3428 
Q 1925 3584 2291 3584 
Q 2894 3584 3203 3211 
Q 3513 2838 3513 2113 
z
" transform="scale(0.015625)"/>
       <path id="DejaVuSans-5d" d="M 1947 4863 
L 1947 -844 
L 622 -844 
L 622 -397 
L 1369 -397 
L 1369 4416 
L 622 4416 
L 622 4863 
L 1947 4863 
z
" transform="scale(0.015625)"/>
      </defs>
      <use xlink:href="#DejaVuSans-54"/>
      <use xlink:href="#DejaVuSans-69" transform="translate(57.958984 0)"/>
      <use xlink:href="#DejaVuSans-6d" transform="translate(85.742188 0)"/>
      <use xlink:href="#DejaVuSans-65" transform="translate(183.154297 0)"/>
      <use xlink:href="#DejaVuSans-20" transform="translate(244.677734 0)"/>
      <use xlink:href="#DejaVuSans-5b" transform="translate(276.464844 0)"/>
      <use xlink:href="#DejaVuSans-68" transform="translate(315.478516 0)"/>
      <use xlink:href="#DejaVuSans-5d" transform="translate(378.857422 0)"/>
     </g>
    </g>
   </g>
   <g id="matplotlib.axis_2">
    <g id="ytick_1">
     <g id="line2d_9">
      <defs>
       <path id="md824dbf98d" d="M 0 0 
L -3.5 0 
" style="stroke: #000000; stroke-width: 0.8"/>
      </defs>
      <g>
       <use xlink:href="#md824dbf98d" x="47.81" y="236.012727" style="stroke: #000000; stroke-width: 0.8"/>
      </g>
     </g>
     <g id="text_10">
      <!-- 0.0 -->
      <g transform="translate(24.906875 239.811946) scale(0.1 -0.1)">
       <defs>
        <path id="DejaVuSans-2e" d="M 684 794 
L 1344 794 
L 1344 0 
L 684 0 
L 684 794 
z
" transform="scale(0.015625)"/>
       </defs>
       <use xlink:href="#DejaVuSans-30"/>
       <use xlink:href="#DejaVuSans-2e" transform="translate(63.623047 0)"/>
       <use xlink:href="#DejaVuSans-30" transform="translate(95.410156 0)"/>
      </g>
     </g>
    </g>
    <g id="ytick_2">
     <g id="line2d_10">
      <g>
       <use xlink:href="#md824dbf98d" x="47.81" y="195.835548" style="stroke: #000000; stroke-width: 0.8"/>
      </g>
     </g>
     <g id="text_11">
      <!-- 0.2 -->
      <g transform="translate(24.906875 199.634766) scale(0.1 -0.1)">
       <use xlink:href="#DejaVuSans-30"/>
       <use xlink:href="#DejaVuSans-2e" transform="translate(63.623047 0)"/>
       <use xlink:href="#DejaVuSans-32" transform="translate(95.410156 0)"/>
      </g>
     </g>
    </g>
    <g id="ytick_3">
     <g id="line2d_11">
      <g>
       <use xlink:href="#md824dbf98d" x="47.81" y="155.658368" style="stroke: #000000; stroke-width: 0.8"/>
      </g>
     </g>
     <g id="text_12">
      <!-- 0.4 -->
      <g transform="translate(24.906875 159.457587) scale(0.1 -0.1)">
       <use xlink:href="#DejaVuSans-30"/>
       <use xlink:href="#DejaVuSans-2e" transform="translate(63.623047 0)"/>
       <use xlink:href="#DejaVuSans-34" transform="translate(95.410156 0)"/>
      </g>
     </g>
    </g>
    <g id="ytick_4">
     <g id="line2d_12">
      <g>
       <use xlink:href="#md824dbf98d" x="47.81" y="115.481189" style="stroke: #000000; stroke-width: 0.8"/>
      </g>
     </g>
     <g id="text_13">
      <!-- 0.6 -->
      <g transform="translate(24.906875 119.280407) scale(0.1 -0.1)">
       <use xlink:href="#DejaVuSans-30"/>
       <use xlink:href="#DejaVuSans-2e" transform="translate(63.623047 0)"/>
       <use xlink:href="#DejaVuSans-36" transform="translate(95.410156 0)"/>
      </g>
     </g>
    </g>
    <g id="ytick_5">
     <g id="line2d_13">
      <g>
       <use xlink:href="#md824dbf98d" x="47.81" y="75.304009" style="stroke: #000000; stroke-width: 0.8"/>
      </g>
     </g>
     <g id="text_14">
      <!-- 0.8 -->
      <g transform="translate(24.906875 79.103228) scale(0.1 -0.1)">
       <defs>
        <path id="DejaVuSans-38" d="M 2034 2216 
Q 1584 2216 1326 1975 
Q 1069 1734 1069 1313 
Q 1069 891 1326 650 
Q 1584 409 2034 409 
Q 2484 409 2743 651 
Q 3003 894 3003 1313 
Q 3003 1734 2745 1975 
Q 2488 2216 2034 2216 
z
M 1403 2484 
Q 997 2584 770 2862 
Q 544 3141 544 3541 
Q 544 4100 942 4425 
Q 1341 4750 2034 4750 
Q 2731 4750 3128 4425 
Q 3525 4100 3525 3541 
Q 3525 3141 3298 2862 
Q 3072 2584 2669 2484 
Q 3125 2378 3379 2068 
Q 3634 1759 3634 1313 
Q 3634 634 3220 271 
Q 2806 -91 2034 -91 
Q 1263 -91 848 271 
Q 434 634 434 1313 
Q 434 1759 690 2068 
Q 947 2378 1403 2484 
z
M 1172 3481 
Q 1172 3119 1398 2916 
Q 1625 2713 2034 2713 
Q 2441 2713 2670 2916 
Q 2900 3119 2900 3481 
Q 2900 3844 2670 4047 
Q 2441 4250 2034 4250 
Q 1625 4250 1398 4047 
Q 1172 3844 1172 3481 
z
" transform="scale(0.015625)"/>
       </defs>
       <use xlink:href="#DejaVuSans-30"/>
       <use xlink:href="#DejaVuSans-2e" transform="translate(63.623047 0)"/>
       <use xlink:href="#DejaVuSans-38" transform="translate(95.410156 0)"/>
      </g>
     </g>
    </g>
    <g id="ytick_6">
     <g id="line2d_14">
      <g>
       <use xlink:href="#md824dbf98d" x="47.81" y="35.126829" style="stroke: #000000; stroke-width: 0.8"/>
      </g>
     </g>
     <g id="text_15">
      <!-- 1.0 -->
      <g transform="translate(24.906875 38.926048) scale(0.1 -0.1)">
       <use xlink:href="#DejaVuSans-31"/>
       <use xlink:href="#DejaVuSans-2e" transform="translate(63.623047 0)"/>
       <use xlink:href="#DejaVuSans-30" transform="translate(95.410156 0)"/>
      </g>
     </g>
    </g>
    <g id="text_16">
     <!-- Mole fraction -->
     <g transform="translate(18.827188 168.374375) rotate(-90) scale(0.1 -0.1)">
      <defs>
       <path id="DejaVuSans-4d" d="M 628 4666 
L 1569 4666 
L 2759 1491 
L 3956 4666 
L 4897 4666 
L 4897 0 
L 4281 0 
L 4281 4097 
L 3078 897 
L 2444 897 
L 1241 4097 
L 1241 0 
L 628 0 
L 628 4666 
z
" transform="scale(0.015625)"/>
       <path id="DejaVuSans-6f" d="M 1959 3097 
Q 1497 3097 1228 2736 
Q 959 2375 959 1747 
Q 959 1119 1226 758 
Q 1494 397 1959 397 
Q 2419 397 2687 759 
Q 2956 1122 2956 1747 
Q 2956 2369 2687 2733 
Q 2419 3097 1959 3097 
z
M 1959 3584 
Q 2709 3584 3137 3096 
Q 3566 2609 3566 1747 
Q 3566 888 3137 398 
Q 2709 -91 1959 -91 
Q 1206 -91 779 398 
Q 353 888 353 1747 
Q 353 2609 779 3096 
Q 1206 3584 1959 3584 
z
" transform="scale(0.015625)"/>
       <path id="DejaVuSans-6c" d="M 603 4863 
L 1178 4863 
L 1178 0 
L 603 0 
L 603 4863 
z
" transform="scale(0.015625)"/>
       <path id="DejaVuSans-66" d="M 2375 4863 
L 2375 4384 
L 1825 4384 
Q 1516 4384 1395 4259 
Q 1275 4134 1275 3809 
L 1275 3500 
L 2222 3500 
L 2222 3053 
L 1275 3053 
L 1275 0 
L 697 0 
L 697 3053 
L 147 3053 
L 147 3500 
L 697 3500 
L 697 3744 
Q 697 4328 969 4595 
Q 1241 4863 1831 4863 
L 2375 4863 
z
" transform="scale(0.015625)"/>
       <path id="DejaVuSans-72" d="M 2631 2963 
Q 2534 3019 2420 3045 
Q 2306 3072 2169 3072 
Q 1681 3072 1420 2755 
Q 1159 2438 1159 1844 
L 1159 0 
L 581 0 
L 581 3500 
L 1159 3500 
L 1159 2956 
Q 1341 3275 1631 3429 
Q 1922 3584 2338 3584 
Q 2397 3584 2469 3576 
Q 2541 3569 2628 3553 
L 2631 2963 
z
" transform="scale(0.015625)"/>
       <path id="DejaVuSans-61" d="M 2194 1759 
Q 1497 1759 1228 1600 
Q 959 1441 959 1056 
Q 959 750 1161 570 
Q 1363 391 1709 391 
Q 2188 391 2477 730 
Q 2766 1069 2766 1631 
L 2766 1759 
L 2194 1759 
z
M 3341 1997 
L 3341 0 
L 2766 0 
L 2766 531 
Q 2569 213 2275 61 
Q 1981 -91 1556 -91 
Q 1019 -91 701 211 
Q 384 513 384 1019 
Q 384 1609 779 1909 
Q 1175 2209 1959 2209 
L 2766 2209 
L 2766 2266 
Q 2766 2663 2505 2880 
Q 2244 3097 1772 3097 
Q 1472 3097 1187 3025 
Q 903 2953 641 2809 
L 641 3341 
Q 956 3463 1253 3523 
Q 1550 3584 1831 3584 
Q 2591 3584 2966 3190 
Q 3341 2797 3341 1997 
z
" transform="scale(0.015625)"/>
       <path id="DejaVuSans-63" d="M 3122 3366 
L 3122 2828 
Q 2878 2963 2633 3030 
Q 2388 3097 2138 3097 
Q 1578 3097 1268 2742 
Q 959 2388 959 1747 
Q 959 1106 1268 751 
Q 1578 397 2138 397 
Q 2388 397 2633 464 
Q 2878 531 3122 666 
L 3122 134 
Q 2881 22 2623 -34 
Q 2366 -91 2075 -91 
Q 1284 -91 818 406 
Q 353 903 353 1747 
Q 353 2603 823 3093 
Q 1294 3584 2113 3584 
Q 2378 3584 2631 3529 
Q 2884 3475 3122 3366 
z
" transform="scale(0.015625)"/>
       <path id="DejaVuSans-74" d="M 1172 4494 
L 1172 3500 
L 2356 3500 
L 2356 3053 
L 1172 3053 
L 1172 1153 
Q 1172 725 1289 603 
Q 1406 481 1766 481 
L 2356 481 
L 2356 0 
L 1766 0 
Q 1100 0 847 248 
Q 594 497 594 1153 
L 594 3053 
L 172 3053 
L 172 3500 
L 594 3500 
L 594 4494 
L 1172 4494 
z
" transform="scale(0.015625)"/>
       <path id="DejaVuSans-6e" d="M 3513 2113 
L 3513 0 
L 2938 0 
L 2938 2094 
Q 2938 2591 2744 2837 
Q 2550 3084 2163 3084 
Q 1697 3084 1428 2787 
Q 1159 2491 1159 1978 
L 1159 0 
L 581 0 
L 581 3500 
L 1159 3500 
L 1159 2956 
Q 1366 3272 1645 3428 
Q 1925 3584 2291 3584 
Q 2894 3584 3203 3211 
Q 3513 2838 3513 2113 
z
" transform="scale(0.015625)"/>
      </defs>
      <use xlink:href="#DejaVuSans-4d"/>
      <use xlink:href="#DejaVuSans-6f" transform="translate(86.279297 0)"/>
      <use xlink:href="#DejaVuSans-6c" transform="translate(147.460938 0)"/>
      <use xlink:href="#DejaVuSans-65" transform="translate(175.244141 0)"/>
      <use xlink:href="#DejaVuSans-20" transform="translate(236.767578 0)"/>
      <use xlink:href="#DejaVuSans-66" transform="translate(268.554688 0)"/>
      <use xlink:href="#DejaVuSans-72" transform="translate(303.759766 0)"/>
      <use xlink:href="#DejaVuSans-61" transform="translate(344.873047 0)"/>
      <use xlink:href="#DejaVuSans-63" transform="translate(406.152344 0)"/>
      <use xlink:href="#DejaVuSans-74" transform="translate(461.132812 0)"/>
      <use xlink:href="#DejaVuSans-69" transform="translate(500.341797 0)"/>
      <use xlink:href="#DejaVuSans-6f" transform="translate(528.125 0)"/>
      <use xlink:href="#DejaVuSans-6e" transform="translate(589.306641 0)"/>
     </g>
    </g>
   </g>
   <g id="line2d_15">
    <path d="M 64.782273 236.012727 
L 129.292269 236.012727 
L 130.060245 235.684296 
L 130.828221 234.543489 
L 131.596197 234.543489 
L 132.364173 234.077879 
L 133.132149 233.29319 
L 133.900125 231.247218 
L 134.668102 231.247218 
L 135.436078 230.729989 
L 137.740006 230.729989 
L 138.507982 230.243779 
L 139.275958 229.564353 
L 140.043935 228.4066 
L 140.811911 228.328626 
L 141.579887 227.585189 
L 142.347863 227.585189 
L 143.115839 226.276557 
L 143.883815 225.733501 
L 144.651791 225.327096 
L 145.419768 223.292416 
L 146.187744 223.292416 
L 146.95572 222.721014 
L 147.723696 221.805639 
L 148.491672 221.069668 
L 150.027624 221.069668 
L 150.795601 220.154216 
L 151.563577 219.538539 
L 152.331553 218.496084 
L 153.099529 218.496084 
L 153.867505 217.25692 
L 154.635481 216.779943 
L 155.403457 216.779943 
L 156.171434 214.936275 
L 156.93941 214.181256 
L 157.707386 212.414193 
L 159.243338 212.414193 
L 160.011314 211.825151 
L 161.547267 211.739555 
L 162.315243 209.33044 
L 163.851195 207.15283 
L 164.619171 206.226602 
L 165.387147 205.890273 
L 167.691076 203.219959 
L 169.227028 202.062244 
L 169.995004 200.172952 
L 170.76298 198.91975 
L 171.530956 198.758071 
L 172.298933 196.634555 
L 173.066909 195.324733 
L 173.834885 194.777689 
L 174.602861 194.777689 
L 176.138813 192.866474 
L 176.906789 192.799495 
L 177.674766 192.893809 
L 178.442742 192.799495 
L 179.210718 191.010727 
L 179.978694 189.796575 
L 180.74667 187.62616 
L 181.514646 187.62616 
L 182.282622 185.433912 
L 183.050599 185.433912 
L 183.818575 185.184432 
L 186.122503 185.170835 
L 186.890479 184.98541 
L 187.658455 183.141973 
L 188.426431 182.581108 
L 189.194408 182.502792 
L 189.962384 180.334841 
L 190.73036 180.334841 
L 191.498336 178.880209 
L 192.266312 178.880209 
L 193.034288 175.140148 
L 193.802264 175.140148 
L 194.570241 174.038965 
L 195.338217 171.651993 
L 196.106193 171.549876 
L 196.874169 170.062361 
L 197.642145 169.049098 
L 198.410121 166.566447 
L 199.178098 165.385827 
L 199.946074 164.720794 
L 201.482026 160.939268 
L 203.017978 156.533252 
L 203.785954 156.077798 
L 204.55393 153.395771 
L 205.321907 151.585935 
L 206.089883 149.084442 
L 206.857859 148.587311 
L 208.393811 144.884959 
L 209.161787 144.884959 
L 209.929763 141.763732 
L 210.69774 140.335065 
L 211.465716 139.313218 
L 213.001668 134.503323 
L 213.769644 134.503323 
L 214.53762 131.812293 
L 215.305596 130.439576 
L 216.073573 129.334975 
L 216.841549 127.165114 
L 217.609525 125.989733 
L 218.377501 125.482735 
L 219.145477 122.979119 
L 219.913453 122.840764 
L 221.449406 120.701776 
L 222.217382 119.267993 
L 222.985358 119.267993 
L 223.753334 117.30474 
L 224.52131 114.978524 
L 225.289286 113.494196 
L 226.057262 113.494196 
L 226.825239 111.616606 
L 227.593215 111.616606 
L 228.361191 109.47965 
L 229.897143 106.573964 
L 232.969048 106.464573 
L 233.737024 105.525543 
L 234.505 105.525543 
L 235.272976 102.914528 
L 236.040952 97.927676 
L 236.808928 95.192083 
L 238.344881 95.192083 
L 239.112857 91.988252 
L 239.880833 91.342825 
L 241.416785 91.342825 
L 242.184761 88.739747 
L 242.952738 88.039582 
L 243.720714 88.039582 
L 244.48869 82.352069 
L 245.256666 81.917428 
L 246.024642 79.281711 
L 246.792618 78.671608 
L 248.328571 76.193373 
L 249.096547 72.430465 
L 249.864523 70.807996 
L 250.632499 70.807996 
L 251.400475 67.989702 
L 252.168451 65.917832 
L 252.936427 64.914166 
L 253.704404 64.907328 
L 254.47238 64.730508 
L 255.240356 62.723886 
L 257.544284 62.723886 
L 258.31226 59.14412 
L 259.848213 59.14412 
L 260.616189 58.819398 
L 261.384165 56.885041 
L 262.152141 56.885041 
L 262.920117 54.776133 
L 264.456069 54.776133 
L 265.224046 54.286737 
L 265.992022 51.396398 
L 266.759998 50.627709 
L 267.527974 47.831578 
L 269.831902 47.831578 
L 270.599879 45.549235 
L 271.367855 46.367949 
L 272.135831 46.689516 
L 272.903807 48.490115 
L 273.671783 48.490115 
L 275.207736 56.625978 
L 275.975712 56.816907 
L 277.511664 56.816907 
L 278.27964 61.16879 
L 279.047616 62.651831 
L 279.815592 65.63529 
L 280.583568 70.618557 
L 281.351545 72.362544 
L 282.119521 75.294649 
L 282.887497 77.67167 
L 283.655473 83.526969 
L 284.423449 84.53604 
L 285.959401 89.151809 
L 286.727378 90.63597 
L 287.495354 94.944089 
L 289.031306 98.505486 
L 289.799282 99.349941 
L 290.567258 102.757192 
L 291.335234 107.214365 
L 293.639163 111.327184 
L 294.407139 111.327184 
L 295.175115 113.144454 
L 295.943091 113.52726 
L 296.711067 115.519134 
L 297.479044 115.880309 
L 298.24702 117.121235 
L 299.014996 118.710693 
L 299.782972 120.706238 
L 300.550948 123.857 
L 301.318924 123.857 
L 302.0869 124.926355 
L 302.854877 128.051094 
L 303.622853 130.031678 
L 304.390829 130.681324 
L 305.158805 131.170066 
L 305.926781 134.821503 
L 306.694757 136.327926 
L 307.462733 136.652833 
L 308.998686 140.741756 
L 309.766662 142.117486 
L 310.534638 145.830227 
L 311.302614 145.991814 
L 312.07059 149.402683 
L 312.838566 150.960614 
L 313.606543 151.306787 
L 314.374519 153.081417 
L 315.142495 153.976368 
L 315.910471 156.013097 
L 316.678447 158.64544 
L 318.214399 161.821514 
L 318.982376 162.587719 
L 319.750352 165.407523 
L 320.518328 166.33007 
L 321.286304 168.950612 
L 322.05428 169.442695 
L 322.822256 172.535031 
L 323.590232 173.316905 
L 324.358209 173.730264 
L 325.126185 176.485131 
L 325.894161 176.485131 
L 326.662137 178.039737 
L 327.430113 179.251075 
L 328.198089 181.749257 
L 328.966065 182.209612 
L 329.734042 186.003032 
L 330.502018 186.003032 
L 332.03797 190.304301 
L 332.805946 191.528996 
L 333.573922 193.143507 
L 334.341898 194.277276 
L 335.109875 195.207349 
L 335.877851 196.796921 
L 336.645827 196.982424 
L 337.413803 196.982424 
L 338.181779 198.62499 
L 338.949755 198.62499 
L 339.717731 200.365695 
L 341.253684 200.38416 
L 342.02166 200.898969 
L 342.789636 200.898969 
L 343.557612 201.318574 
L 344.325588 202.208613 
L 345.093564 202.610467 
L 346.629517 202.610467 
L 347.397493 203.265227 
L 349.701421 203.265227 
L 351.237374 204.200326 
L 352.773326 204.200326 
L 353.541302 204.421874 
L 354.309278 204.421874 
L 355.077254 205.256746 
L 355.84523 205.256746 
L 356.613206 205.387413 
L 357.381183 205.387413 
L 358.149159 206.107375 
L 358.917135 206.341025 
L 362.757016 206.341025 
L 364.292968 207.109277 
L 365.060944 208.28517 
L 365.82892 208.420401 
L 368.132849 211.128653 
L 368.900825 211.128653 
L 369.668801 213.129304 
L 370.436777 213.25784 
L 371.204753 213.607112 
L 373.508682 218.084694 
L 374.276658 218.367447 
L 375.044634 218.95511 
L 375.81261 219.082225 
L 376.580586 220.56876 
L 377.348562 220.81594 
L 379.652491 224.26633 
L 380.420467 224.533873 
L 381.188443 225.823568 
L 381.956419 225.994769 
L 382.724395 226.600511 
L 383.492371 228.362682 
L 384.260348 228.412239 
L 385.028324 230.256278 
L 385.7963 230.256278 
L 386.564276 231.985655 
L 387.332252 232.350791 
L 388.113028 233.304223 
L 388.868204 234.779944 
L 389.636181 234.923536 
L 390.404157 235.756 
L 392.708085 235.756 
L 393.476061 236.012727 
L 404.227727 236.012727 
L 404.227727 236.012727 
" clip-path="url(#p58664cec72)" style="fill: none; stroke: #1f77b4; stroke-width: 1.5; stroke-linecap: square"/>
   </g>
   <g id="line2d_16">
    <path d="M 64.782273 233.762065 
L 65.550249 231.192566 
L 66.318225 233.49428 
L 67.086201 232.984908 
L 67.854177 233.175493 
L 68.622153 231.891173 
L 70.158106 231.231934 
L 70.926082 231.727401 
L 71.694058 231.045181 
L 72.462034 231.895456 
L 73.23001 230.410803 
L 74.765963 231.397864 
L 75.533939 231.585957 
L 77.069891 231.481044 
L 77.837867 232.15296 
L 78.605843 231.984924 
L 79.373819 232.29475 
L 80.141796 231.854125 
L 81.677748 232.15035 
L 82.445724 232.795753 
L 83.2137 232.177938 
L 84.749652 232.419097 
L 85.517629 232.939895 
L 86.285605 232.69445 
L 87.821557 233.354133 
L 88.589533 233.660345 
L 89.357509 233.292002 
L 90.125485 233.906913 
L 90.893462 233.30946 
L 91.661438 234.311409 
L 92.429414 234.18516 
L 93.19739 233.213811 
L 93.965366 232.536917 
L 96.269295 233.791578 
L 97.037271 233.696176 
L 97.805247 233.261452 
L 98.573223 233.839286 
L 99.341199 233.980376 
L 100.877151 232.959552 
L 102.413104 235.518799 
L 103.18108 235.056377 
L 103.949056 235.690397 
L 104.717032 236.012727 
L 105.485008 235.464077 
L 106.252984 235.778672 
L 107.020961 235.171121 
L 107.788937 236.001167 
L 108.556913 235.682442 
L 109.324889 236.012727 
L 110.092865 235.159467 
L 110.860841 235.991162 
L 112.396793 235.682777 
L 113.16477 235.052392 
L 113.932746 236.012727 
L 114.700722 234.737006 
L 115.468698 235.667115 
L 116.236674 236.012727 
L 117.00465 234.908831 
L 117.772626 235.349113 
L 118.540603 236.012727 
L 119.308579 236.012727 
L 120.844531 235.75789 
L 121.612507 236.012727 
L 122.380483 236.012727 
L 123.148459 235.839431 
L 123.916436 235.413358 
L 124.684412 235.521631 
L 125.452388 236.012727 
L 130.060245 236.012727 
L 130.828221 234.001141 
L 131.596197 236.012727 
L 133.132149 236.012727 
L 133.900125 233.325664 
L 134.668102 234.834089 
L 135.436078 233.778511 
L 136.204054 235.427317 
L 136.97203 236.012727 
L 140.043935 236.012727 
L 140.811911 235.560755 
L 141.579887 236.012727 
L 144.651791 236.012727 
L 145.419768 235.748954 
L 146.187744 236.012727 
L 146.95572 236.012727 
L 147.723696 235.404311 
L 148.491672 235.951642 
L 149.259648 235.847557 
L 150.027624 236.012727 
L 150.795601 235.679263 
L 151.563577 236.012727 
L 152.331553 235.855337 
L 153.099529 236.012727 
L 153.867505 235.664881 
L 154.635481 235.546921 
L 155.403457 234.958378 
L 156.171434 235.309098 
L 156.93941 234.954956 
L 157.707386 230.428425 
L 158.475362 235.211497 
L 159.243338 236.012727 
L 160.011314 235.569842 
L 160.77929 234.785735 
L 161.547267 234.795656 
L 162.315243 235.300418 
L 163.083219 234.724275 
L 165.387147 236.012727 
L 166.155123 234.891931 
L 166.9231 234.54431 
L 167.691076 235.487535 
L 168.459052 235.786853 
L 169.227028 235.384127 
L 169.995004 235.190836 
L 170.76298 234.605554 
L 171.530956 234.56151 
L 173.066909 235.618692 
L 173.834885 236.012727 
L 175.370837 235.903003 
L 176.138813 233.598805 
L 176.906789 232.515166 
L 177.674766 232.95639 
L 178.442742 232.121206 
L 179.210718 232.845927 
L 179.978694 231.932564 
L 181.514646 233.373959 
L 182.282622 232.180871 
L 183.050599 232.15949 
L 183.818575 231.268154 
L 184.586551 233.780223 
L 185.354527 233.360669 
L 186.122503 235.430033 
L 186.890479 235.452064 
L 187.658455 235.902548 
L 188.426431 235.366722 
L 189.194408 235.56077 
L 189.962384 234.753258 
L 190.73036 234.954298 
L 191.498336 235.689821 
L 192.266312 236.012727 
L 195.338217 235.618029 
L 196.106193 235.025996 
L 196.874169 234.745489 
L 197.642145 235.375747 
L 198.410121 235.577124 
L 199.178098 234.22424 
L 199.946074 235.180658 
L 200.71405 234.900047 
L 201.482026 235.940883 
L 202.250002 234.945893 
L 203.017978 235.096184 
L 203.785954 234.588962 
L 204.55393 235.228333 
L 206.089883 235.612819 
L 206.857859 234.775963 
L 207.625835 234.896295 
L 208.393811 234.646504 
L 209.161787 234.972458 
L 210.69774 233.90417 
L 211.465716 235.397321 
L 212.233692 234.678092 
L 213.001668 235.104082 
L 213.769644 233.938647 
L 214.53762 234.976439 
L 215.305596 235.177874 
L 216.841549 234.278354 
L 217.609525 234.086256 
L 218.377501 234.812432 
L 219.145477 234.081084 
L 219.913453 233.892329 
L 220.681429 234.242096 
L 221.449406 234.909288 
L 222.217382 234.235604 
L 222.985358 234.336788 
L 223.753334 233.563672 
L 224.52131 234.143112 
L 225.289286 233.835709 
L 226.057262 234.083399 
L 226.825239 233.078 
L 227.593215 233.349397 
L 228.361191 232.181355 
L 229.897143 233.226075 
L 230.665119 233.379535 
L 231.433095 232.528999 
L 232.201072 231.949551 
L 233.737024 232.391774 
L 234.505 233.137332 
L 235.272976 228.735451 
L 236.040952 228.427171 
L 236.808928 228.890119 
L 237.576905 230.552678 
L 238.344881 228.759706 
L 239.112857 228.384637 
L 239.880833 230.043311 
L 240.648809 232.453433 
L 242.184761 231.800143 
L 243.720714 233.207299 
L 244.48869 233.179298 
L 245.256666 230.877133 
L 246.024642 234.121442 
L 246.792618 234.235256 
L 247.560594 234.204282 
L 248.328571 235.303344 
L 249.096547 234.863063 
L 249.864523 235.667273 
L 250.632499 235.437276 
L 251.400475 236.012727 
L 252.168451 235.952738 
L 252.936427 235.496701 
L 254.47238 235.698727 
L 255.240356 235.289486 
L 256.008332 234.671418 
L 256.776308 236.012727 
L 257.544284 235.763844 
L 258.31226 235.696848 
L 259.080237 236.012727 
L 259.848213 234.429615 
L 260.616189 235.813316 
L 261.384165 235.55894 
L 262.152141 235.700955 
L 262.920117 235.409524 
L 263.688093 234.631283 
L 264.456069 236.012727 
L 265.224046 234.831726 
L 265.992022 234.20889 
L 266.759998 235.142408 
L 267.527974 234.291268 
L 268.29595 235.010299 
L 269.063926 233.507996 
L 269.831902 233.142702 
L 270.599879 232.114357 
L 271.367855 231.95698 
L 272.135831 231.454432 
L 272.903807 231.246943 
L 275.207736 223.526846 
L 275.975712 222.406037 
L 277.511664 216.450428 
L 278.27964 213.963164 
L 279.047616 212.681003 
L 279.815592 210.031886 
L 281.351545 206.310963 
L 282.887497 200.531644 
L 283.655473 199.239768 
L 284.423449 197.293078 
L 285.959401 192.719163 
L 286.727378 191.242296 
L 287.495354 187.839445 
L 289.799282 182.530914 
L 291.335234 178.112263 
L 292.103211 177.18797 
L 292.871187 174.942466 
L 293.639163 173.784375 
L 294.407139 171.357372 
L 295.175115 169.763685 
L 295.943091 166.712679 
L 296.711067 166.356121 
L 297.479044 163.374841 
L 299.014996 161.153974 
L 299.782972 158.815837 
L 300.550948 158.078009 
L 301.318924 154.851513 
L 302.0869 153.360183 
L 302.854877 152.972074 
L 303.622853 152.344508 
L 304.390829 150.518038 
L 305.158805 148.099759 
L 305.926781 146.50544 
L 306.694757 143.343824 
L 307.462733 140.923457 
L 308.23071 140.156124 
L 308.998686 136.348206 
L 310.534638 134.672842 
L 311.302614 131.023184 
L 312.07059 131.131279 
L 312.838566 129.969843 
L 313.606543 127.10724 
L 314.374519 125.432886 
L 315.142495 124.452971 
L 315.910471 121.638381 
L 316.678447 120.149033 
L 317.446423 119.701347 
L 318.214399 118.535867 
L 318.982376 116.608049 
L 319.750352 112.918353 
L 320.518328 113.017589 
L 321.286304 110.599593 
L 322.05428 109.588143 
L 322.822256 108.233272 
L 323.590232 106.404383 
L 324.358209 100.562876 
L 325.126185 100.618142 
L 325.894161 98.434201 
L 326.662137 98.26859 
L 327.430113 94.547377 
L 328.198089 91.493661 
L 328.966065 90.011973 
L 329.734042 92.10989 
L 330.502018 88.148278 
L 331.269994 89.717182 
L 332.03797 87.858583 
L 332.805946 88.288365 
L 333.573922 84.697548 
L 334.341898 86.472085 
L 335.109875 84.135357 
L 335.877851 80.643552 
L 336.645827 78.276515 
L 337.413803 76.335826 
L 338.181779 79.83911 
L 338.949755 76.058677 
L 340.485707 84.636189 
L 341.253684 80.426882 
L 342.02166 81.30074 
L 342.789636 81.45858 
L 343.557612 82.219585 
L 344.325588 80.941962 
L 345.093564 82.015311 
L 345.861541 79.663982 
L 346.629517 81.64589 
L 347.397493 79.515884 
L 348.165469 80.727807 
L 348.933445 79.876562 
L 349.701421 77.153355 
L 350.469397 77.753067 
L 351.237374 78.211103 
L 352.00535 79.31531 
L 352.773326 77.709963 
L 353.541302 75.717734 
L 354.309278 77.535598 
L 355.077254 78.702741 
L 355.84523 77.903779 
L 356.613206 79.570723 
L 357.381183 77.918679 
L 358.149159 78.289781 
L 358.917135 84.807865 
L 359.685111 77.928515 
L 360.453087 77.74043 
L 361.221063 73.638506 
L 362.014639 81.000069 
L 362.757016 74.361051 
L 363.524992 76.620604 
L 364.292968 75.39333 
L 365.060944 71.983091 
L 365.82892 71.627095 
L 367.364872 71.496765 
L 368.132849 66.931594 
L 368.900825 66.209234 
L 369.668801 69.01862 
L 370.436777 67.464794 
L 371.204753 63.92101 
L 371.972729 65.538624 
L 372.740705 65.798568 
L 373.508682 64.155366 
L 374.276658 65.631788 
L 375.044634 58.678628 
L 375.81261 58.672653 
L 376.580586 56.103403 
L 377.348562 58.840708 
L 378.116538 55.765457 
L 378.884515 57.913691 
L 379.652491 54.684496 
L 380.420467 54.662887 
L 381.188443 53.136724 
L 381.956419 55.855728 
L 382.724395 53.430366 
L 383.492371 52.954364 
L 384.260348 52.626924 
L 385.028324 49.100787 
L 385.7963 47.94929 
L 386.564276 50.741297 
L 387.332252 50.227206 
L 388.113028 47.942104 
L 389.636181 42.717214 
L 390.404157 49.670962 
L 391.172133 44.841218 
L 391.940109 44.898665 
L 392.708085 42.000515 
L 393.476061 40.018625 
L 394.244037 42.59063 
L 395.012014 45.724315 
L 395.77999 45.294244 
L 396.547966 42.123629 
L 397.315942 43.238811 
L 398.851894 40.595622 
L 399.61987 44.200706 
L 400.387847 41.285548 
L 401.155823 44.202144 
L 401.923799 44.898388 
L 402.691775 40.797748 
L 403.459751 39.225569 
L 404.227727 35.467273 
L 404.227727 35.467273 
" clip-path="url(#p58664cec72)" style="fill: none; stroke: #ff7f0e; stroke-width: 1.5; stroke-linecap: square"/>
   </g>
   <g id="line2d_17">
    <path d="M 64.782273 38.071307 
L 65.550249 39.946991 
L 66.318225 42.15119 
L 67.086201 42.15119 
L 67.854177 43.386223 
L 68.622153 51.465659 
L 69.39013 57.425898 
L 70.158106 58.949281 
L 70.926082 58.949281 
L 71.694058 60.076681 
L 72.462034 62.479958 
L 73.23001 62.951233 
L 73.997986 66.604213 
L 74.765963 66.604213 
L 75.533939 68.233726 
L 76.301915 69.065825 
L 78.605843 69.104045 
L 83.2137 69.104045 
L 83.981676 73.828095 
L 84.749652 73.828095 
L 85.517629 75.569685 
L 86.285605 75.569685 
L 87.053581 76.03069 
L 87.821557 77.086033 
L 88.589533 77.086033 
L 89.357509 78.621582 
L 90.125485 81.528638 
L 90.893462 83.310282 
L 91.661438 84.452245 
L 93.965366 89.092215 
L 94.733342 89.092215 
L 95.501318 90.315428 
L 96.269295 91.219124 
L 97.037271 95.419315 
L 97.805247 95.419315 
L 98.573223 95.83778 
L 99.341199 96.601827 
L 104.717032 96.601827 
L 105.485008 98.453355 
L 106.252984 98.453355 
L 107.020961 102.376729 
L 107.788937 102.376729 
L 108.556913 105.509725 
L 109.324889 105.509725 
L 110.092865 106.609822 
L 110.860841 108.914588 
L 111.628817 108.914588 
L 113.16477 112.339368 
L 113.932746 112.339368 
L 114.700722 115.652696 
L 116.236674 115.652696 
L 117.00465 120.050557 
L 117.772626 121.665972 
L 120.076555 122.933323 
L 120.844531 122.933323 
L 121.612507 125.736161 
L 122.380483 126.794387 
L 123.148459 131.018335 
L 123.916436 132.933584 
L 124.684412 136.117036 
L 125.452388 136.950898 
L 126.220364 137.581428 
L 126.98834 141.079041 
L 127.756316 141.509513 
L 128.524292 141.610351 
L 129.292269 145.108442 
L 130.060245 146.154002 
L 130.828221 150.292688 
L 131.596197 150.292688 
L 132.364173 154.328617 
L 133.132149 154.762784 
L 133.900125 158.511026 
L 134.668102 158.511026 
L 135.436078 161.355989 
L 136.97203 161.355989 
L 137.740006 163.512319 
L 138.507982 166.478935 
L 139.275958 166.478935 
L 140.043935 167.145011 
L 140.811911 168.02465 
L 141.579887 169.39453 
L 142.347863 169.39453 
L 143.115839 172.213828 
L 143.883815 173.085291 
L 144.651791 175.789183 
L 145.419768 177.166719 
L 146.187744 178.980355 
L 146.95572 178.980355 
L 147.723696 179.863344 
L 148.491672 181.634317 
L 150.027624 181.634317 
L 150.795601 184.574685 
L 152.331553 184.682588 
L 153.099529 187.537579 
L 153.867505 188.776973 
L 154.635481 190.39523 
L 156.171434 190.39523 
L 156.93941 193.133113 
L 157.707386 193.133113 
L 159.243338 194.877542 
L 160.011314 194.877542 
L 160.77929 195.687361 
L 161.547267 195.687361 
L 162.315243 198.900806 
L 163.083219 200.082937 
L 164.619171 200.082937 
L 165.387147 202.495546 
L 166.155123 202.495546 
L 166.9231 203.890711 
L 167.691076 203.890711 
L 168.459052 205.277305 
L 169.227028 206.377662 
L 169.995004 207.133781 
L 170.76298 209.31731 
L 172.298933 209.31731 
L 173.066909 210.262879 
L 173.834885 210.062957 
L 174.602861 210.062957 
L 175.370837 211.801118 
L 176.138813 212.402954 
L 176.906789 212.335974 
L 177.674766 213.731937 
L 178.442742 213.637623 
L 179.210718 215.837511 
L 179.978694 216.81706 
L 181.514646 216.81706 
L 182.282622 217.632816 
L 184.586551 217.641276 
L 185.354527 218.666076 
L 186.122503 219.142321 
L 186.890479 219.142321 
L 187.658455 219.610219 
L 189.194408 219.610219 
L 189.962384 219.934803 
L 190.73036 220.928184 
L 191.498336 221.121844 
L 192.266312 221.121844 
L 193.802264 223.63901 
L 195.338217 223.63901 
L 196.106193 225.296816 
L 196.874169 225.296816 
L 197.642145 226.418512 
L 198.410121 226.418512 
L 199.178098 229.017634 
L 201.482026 229.35864 
L 202.250002 229.35864 
L 203.785954 230.720261 
L 206.089883 230.720261 
L 206.857859 234.421136 
L 209.161787 234.421136 
L 209.929763 234.735957 
L 216.073573 234.735957 
L 216.841549 234.927857 
L 217.609525 234.735957 
L 218.377501 234.735957 
L 219.145477 234.874312 
L 219.913453 234.735957 
L 328.198089 234.735957 
L 328.966065 234.930698 
L 329.734042 234.735957 
L 366.596896 234.752755 
L 367.364872 235.346767 
L 376.580586 235.346767 
L 377.348562 236.012727 
L 404.227727 236.012727 
L 404.227727 236.012727 
" clip-path="url(#p58664cec72)" style="fill: none; stroke: #2ca02c; stroke-width: 1.5; stroke-linecap: square"/>
   </g>
   <g id="line2d_18">
    <path d="M 64.782273 236.012727 
L 70.158106 236.012727 
L 70.926082 235.54766 
L 71.694058 236.012727 
L 72.462034 234.165753 
L 73.997986 232.396654 
L 74.765963 230.109777 
L 75.533939 230.2094 
L 76.301915 228.445314 
L 77.069891 229.114553 
L 77.837867 225.179723 
L 78.605843 223.30008 
L 79.373819 223.653328 
L 80.909772 222.262294 
L 81.677748 222.098304 
L 82.445724 222.099375 
L 83.2137 222.902626 
L 83.981676 221.116347 
L 84.749652 219.820736 
L 85.517629 219.210295 
L 86.285605 219.179472 
L 87.053581 216.904987 
L 87.821557 217.485424 
L 88.589533 214.80229 
L 89.357509 213.739668 
L 90.125485 208.101431 
L 90.893462 207.095145 
L 91.661438 205.601223 
L 92.429414 202.581972 
L 93.19739 200.731267 
L 93.965366 200.563986 
L 94.733342 196.952658 
L 95.501318 197.107693 
L 97.037271 191.644907 
L 97.805247 193.969131 
L 98.573223 191.258427 
L 99.341199 189.889523 
L 100.109175 188.162818 
L 100.877151 189.991273 
L 101.645128 186.561119 
L 102.413104 180.840465 
L 103.18108 180.86866 
L 103.949056 179.718852 
L 104.717032 178.2966 
L 105.485008 178.731319 
L 107.788937 176.231102 
L 108.556913 175.524118 
L 109.324889 171.537024 
L 110.092865 170.71003 
L 110.860841 172.252407 
L 111.628817 168.068502 
L 112.396793 169.764607 
L 113.16477 169.182218 
L 113.932746 163.43466 
L 114.700722 165.965292 
L 115.468698 162.034905 
L 116.236674 160.167009 
L 117.00465 162.489036 
L 117.772626 157.494216 
L 118.540603 157.560348 
L 119.308579 157.833718 
L 120.076555 158.235613 
L 120.844531 155.011378 
L 121.612507 154.351867 
L 122.380483 149.232351 
L 123.148459 149.615931 
L 123.916436 148.113694 
L 124.684412 144.67131 
L 125.452388 141.824091 
L 126.220364 140.383897 
L 126.98834 137.191782 
L 127.756316 137.608865 
L 128.524292 133.613499 
L 129.292269 133.143912 
L 130.060245 130.595017 
L 130.828221 132.409559 
L 131.596197 127.296567 
L 132.364173 128.010919 
L 133.132149 124.895772 
L 133.900125 127.663524 
L 134.668102 120.299731 
L 135.436078 124.60951 
L 136.204054 118.128863 
L 136.97203 121.160696 
L 137.740006 117.451352 
L 138.507982 117.094841 
L 139.275958 115.148278 
L 140.043935 114.86398 
L 140.811911 114.755088 
L 143.115839 111.448504 
L 143.883815 113.278564 
L 144.651791 111.603808 
L 145.419768 110.325772 
L 146.187744 107.914048 
L 146.95572 106.953869 
L 147.723696 109.058208 
L 148.491672 109.893938 
L 149.259648 107.308329 
L 150.027624 106.534572 
L 150.795601 107.214259 
L 151.563577 105.193706 
L 152.331553 108.731062 
L 153.099529 105.781501 
L 153.867505 106.053748 
L 154.635481 105.318613 
L 155.403457 105.90085 
L 156.171434 105.443964 
L 156.93941 107.238157 
L 157.707386 108.596749 
L 158.475362 105.687775 
L 159.243338 104.033772 
L 160.011314 107.01171 
L 160.77929 105.116145 
L 161.547267 102.569981 
L 162.315243 101.957115 
L 163.083219 102.90668 
L 163.851195 102.526278 
L 164.619171 103.444852 
L 165.387147 102.305333 
L 166.155123 102.32814 
L 166.9231 104.479314 
L 167.691076 102.342575 
L 169.227028 101.932829 
L 169.995004 105.844319 
L 170.76298 104.383762 
L 171.530956 102.441577 
L 172.298933 104.119785 
L 173.066909 101.958707 
L 173.834885 103.850904 
L 174.602861 106.125428 
L 175.370837 102.47248 
L 176.906789 106.295565 
L 177.674766 103.582875 
L 178.442742 107.243298 
L 179.210718 104.744617 
L 179.978694 106.518985 
L 180.74667 107.530957 
L 181.514646 107.362989 
L 182.282622 108.331246 
L 183.050599 108.910613 
L 183.818575 111.693115 
L 185.354527 105.952806 
L 186.122503 108.350163 
L 186.890479 108.081295 
L 187.658455 108.206432 
L 188.426431 105.576671 
L 189.194408 107.629922 
L 189.962384 108.162768 
L 190.73036 112.104192 
L 191.498336 111.39646 
L 192.266312 109.641263 
L 193.034288 109.86555 
L 193.802264 112.313105 
L 194.570241 110.351118 
L 195.338217 113.073645 
L 196.874169 116.289389 
L 197.642145 115.488911 
L 198.410121 116.389971 
L 199.178098 121.258465 
L 199.946074 118.496049 
L 200.71405 119.645482 
L 201.482026 123.870725 
L 202.250002 122.800212 
L 203.017978 124.21698 
L 203.785954 126.45101 
L 204.55393 125.959566 
L 205.321907 126.120934 
L 206.089883 128.468817 
L 206.857859 126.657493 
L 207.625835 130.13591 
L 208.393811 131.657751 
L 209.161787 134.094002 
L 209.929763 134.212772 
L 210.69774 135.547666 
L 211.465716 136.313969 
L 212.233692 137.965361 
L 213.001668 139.937464 
L 213.769644 142.997927 
L 214.53762 142.875264 
L 215.305596 145.843213 
L 216.073573 146.187303 
L 216.841549 146.793687 
L 217.609525 150.481896 
L 218.377501 151.313303 
L 219.145477 151.230497 
L 219.913453 155.647893 
L 220.681429 154.500272 
L 221.449406 156.181476 
L 222.217382 155.460888 
L 222.985358 158.077065 
L 223.753334 158.19041 
L 224.52131 162.119021 
L 225.289286 163.702382 
L 226.825239 167.834242 
L 227.593215 170.924094 
L 228.361191 170.406628 
L 229.129167 172.752324 
L 229.897143 174.056404 
L 230.665119 176.973617 
L 231.433095 177.627359 
L 232.201072 177.823646 
L 232.969048 179.829704 
L 233.737024 181.098314 
L 234.505 183.386738 
L 235.272976 188.069809 
L 236.040952 186.989615 
L 236.808928 188.474134 
L 237.576905 191.30108 
L 239.112857 194.181006 
L 239.880833 192.276182 
L 240.648809 193.178316 
L 241.416785 195.923074 
L 242.184761 195.002733 
L 242.952738 195.16462 
L 243.720714 198.427962 
L 244.48869 198.533114 
L 245.256666 202.01094 
L 246.024642 202.125863 
L 246.792618 201.528461 
L 247.560594 200.632635 
L 248.328571 202.941794 
L 249.096547 204.472027 
L 249.864523 203.743987 
L 251.400475 207.220995 
L 252.168451 206.955445 
L 252.936427 208.398876 
L 253.704404 208.827423 
L 254.47238 210.634056 
L 255.240356 211.240843 
L 256.008332 212.556853 
L 256.776308 212.71502 
L 257.544284 215.721068 
L 258.31226 215.054597 
L 259.848213 219.411915 
L 260.616189 219.131357 
L 261.384165 220.009714 
L 262.152141 219.588544 
L 262.920117 222.187616 
L 263.688093 224.126743 
L 264.456069 224.540434 
L 265.224046 226.278709 
L 265.992022 227.520303 
L 266.759998 228.065665 
L 267.527974 226.795648 
L 268.29595 229.373438 
L 269.063926 232.650768 
L 269.831902 231.761818 
L 270.599879 234.398298 
L 271.367855 233.581909 
L 272.135831 234.485626 
L 272.903807 236.012727 
L 273.671783 234.553864 
L 274.439759 236.012727 
L 275.207736 235.641535 
L 275.975712 236.012727 
L 276.743688 235.107932 
L 277.511664 235.494849 
L 278.27964 236.012727 
L 279.047616 234.984032 
L 279.815592 235.782138 
L 280.583568 234.123731 
L 281.351545 235.99531 
L 284.423449 236.012727 
L 285.191425 235.888345 
L 285.959401 236.012727 
L 286.727378 235.632107 
L 287.495354 236.012727 
L 288.26333 235.788458 
L 289.031306 236.012727 
L 294.407139 236.012727 
L 295.175115 235.725259 
L 295.943091 235.969771 
L 298.24702 236.012727 
L 299.782972 236.012727 
L 300.550948 235.417873 
L 302.0869 236.012727 
L 302.854877 235.638329 
L 303.622853 236.012727 
L 304.390829 235.142451 
L 305.158805 236.012727 
L 305.926781 236.012727 
L 306.694757 235.858853 
L 307.462733 236.012727 
L 308.23071 235.704009 
L 309.766662 236.012727 
L 313.606543 236.012727 
L 314.374519 235.492526 
L 315.142495 235.191175 
L 316.678447 236.012727 
L 320.518328 236.012727 
L 321.286304 234.98134 
L 322.05428 235.775809 
L 322.822256 236.012727 
L 323.590232 235.805773 
L 324.358209 235.269432 
L 325.126185 234.140122 
L 325.894161 236.012727 
L 326.662137 233.875199 
L 327.430113 236.012727 
L 331.269994 235.993461 
L 332.03797 234.491338 
L 332.805946 234.287887 
L 333.573922 235.361733 
L 334.341898 235.807524 
L 335.109875 234.260565 
L 335.877851 235.409186 
L 336.645827 236.012727 
L 338.181779 236.012727 
L 339.717731 234.551514 
L 340.485707 233.655566 
L 341.253684 234.344025 
L 342.02166 234.640311 
L 342.789636 234.436367 
L 343.557612 233.302804 
L 344.325588 234.337802 
L 345.093564 233.526722 
L 345.861541 234.430558 
L 346.629517 230.757746 
L 347.397493 234.191377 
L 348.165469 233.405747 
L 348.933445 233.649026 
L 349.701421 232.875671 
L 350.469397 233.761075 
L 351.237374 232.968753 
L 352.00535 231.773679 
L 352.773326 233.383537 
L 353.541302 233.880108 
L 355.077254 232.168109 
L 355.84523 233.365513 
L 356.613206 233.614915 
L 357.381183 233.692467 
L 358.149159 233.086811 
L 358.917135 234.851169 
L 359.685111 233.878646 
L 360.453087 234.124578 
L 362.014639 232.147706 
L 362.757016 233.966506 
L 363.524992 235.346623 
L 364.292968 235.936832 
L 365.060944 232.954907 
L 365.82892 234.404819 
L 366.596896 234.235293 
L 367.364872 234.464724 
L 368.132849 234.110032 
L 368.900825 234.1418 
L 369.668801 234.763953 
L 371.204753 234.424527 
L 371.972729 233.093841 
L 372.740705 234.343018 
L 373.508682 232.653314 
L 374.276658 234.425164 
L 375.044634 231.704837 
L 375.81261 234.55105 
L 376.580586 231.877475 
L 377.348562 233.544745 
L 378.116538 233.449221 
L 378.884515 233.829442 
L 379.652491 232.884065 
L 380.420467 233.54133 
L 381.188443 230.968869 
L 381.956419 232.941941 
L 382.724395 233.728487 
L 383.492371 233.59057 
L 384.260348 234.031125 
L 385.028324 233.606385 
L 386.564276 233.993384 
L 387.332252 233.994143 
L 388.113028 231.830521 
L 388.868204 234.223389 
L 389.636181 232.328074 
L 390.404157 229.677711 
L 391.172133 234.109522 
L 391.940109 234.228934 
L 392.708085 233.267303 
L 393.476061 232.032031 
L 394.244037 233.33528 
L 395.012014 233.16631 
L 395.77999 234.190214 
L 396.547966 232.75575 
L 397.315942 235.116448 
L 398.083918 234.510372 
L 399.61987 234.730387 
L 400.387847 235.130971 
L 401.155823 234.612998 
L 401.923799 234.393944 
L 402.691775 233.118325 
L 403.459751 234.083012 
L 404.227727 236.012727 
L 404.227727 236.012727 
" clip-path="url(#p58664cec72)" style="fill: none; stroke: #d62728; stroke-width: 1.5; stroke-linecap: square"/>
   </g>
   <g id="patch_3">
    <path d="M 47.81 246.04 
L 47.81 25.44 
" style="fill: none; stroke: #000000; stroke-width: 0.8; stroke-linejoin: miter; stroke-linecap: square"/>
   </g>
   <g id="patch_4">
    <path d="M 421.2 246.04 
L 421.2 25.44 
" style="fill: none; stroke: #000000; stroke-width: 0.8; stroke-linejoin: miter; stroke-linecap: square"/>
   </g>
   <g id="patch_5">
    <path d="M 47.81 246.04 
L 421.2 246.04 
" style="fill: none; stroke: #000000; stroke-width: 0.8; stroke-linejoin: miter; stroke-linecap: square"/>
   </g>
   <g id="patch_6">
    <path d="M 47.81 25.44 
L 421.2 25.44 
" style="fill: none; stroke: #000000; stroke-width: 0.8; stroke-linejoin: miter; stroke-linecap: square"/>
   </g>
   <g id="text_17">
    <!-- Unimodality Applied Only to Components 0 and 2 of H -->
    <g transform="translate(71.74 19.44) scale(0.12 -0.12)">
     <defs>
      <path id="DejaVuSans-55" d="M 556 4666 
L 1191 4666 
L 1191 1831 
Q 1191 1081 1462 751 
Q 1734 422 2344 422 
Q 2950 422 3222 751 
Q 3494 1081 3494 1831 
L 3494 4666 
L 4128 4666 
L 4128 1753 
Q 4128 841 3676 375 
Q 3225 -91 2344 -91 
Q 1459 -91 1007 375 
Q 556 841 556 1753 
L 556 4666 
z
" transform="scale(0.015625)"/>
      <path id="DejaVuSans-64" d="M 2906 2969 
L 2906 4863 
L 3481 4863 
L 3481 0 
L 2906 0 
L 2906 525 
Q 2725 213 2448 61 
Q 2172 -91 1784 -91 
Q 1150 -91 751 415 
Q 353 922 353 1747 
Q 353 2572 751 3078 
Q 1150 3584 1784 3584 
Q 2172 3584 2448 3432 
Q 2725 3281 2906 2969 
z
M 947 1747 
Q 947 1113 1208 752 
Q 1469 391 1925 391 
Q 2381 391 2643 752 
Q 2906 1113 2906 1747 
Q 2906 2381 2643 2742 
Q 2381 3103 1925 3103 
Q 1469 3103 1208 2742 
Q 947 2381 947 1747 
z
" transform="scale(0.015625)"/>
      <path id="DejaVuSans-79" d="M 2059 -325 
Q 1816 -950 1584 -1140 
Q 1353 -1331 966 -1331 
L 506 -1331 
L 506 -850 
L 844 -850 
Q 1081 -850 1212 -737 
Q 1344 -625 1503 -206 
L 1606 56 
L 191 3500 
L 800 3500 
L 1894 763 
L 2988 3500 
L 3597 3500 
L 2059 -325 
z
" transform="scale(0.015625)"/>
      <path id="DejaVuSans-41" d="M 2188 4044 
L 1331 1722 
L 3047 1722 
L 2188 4044 
z
M 1831 4666 
L 2547 4666 
L 4325 0 
L 3669 0 
L 3244 1197 
L 1141 1197 
L 716 0 
L 50 0 
L 1831 4666 
z
" transform="scale(0.015625)"/>
      <path id="DejaVuSans-70" d="M 1159 525 
L 1159 -1331 
L 581 -1331 
L 581 3500 
L 1159 3500 
L 1159 2969 
Q 1341 3281 1617 3432 
Q 1894 3584 2278 3584 
Q 2916 3584 3314 3078 
Q 3713 2572 3713 1747 
Q 3713 922 3314 415 
Q 2916 -91 2278 -91 
Q 1894 -91 1617 61 
Q 1341 213 1159 525 
z
M 3116 1747 
Q 3116 2381 2855 2742 
Q 2594 3103 2138 3103 
Q 1681 3103 1420 2742 
Q 1159 2381 1159 1747 
Q 1159 1113 1420 752 
Q 1681 391 2138 391 
Q 2594 391 2855 752 
Q 3116 1113 3116 1747 
z
" transform="scale(0.015625)"/>
      <path id="DejaVuSans-4f" d="M 2522 4238 
Q 1834 4238 1429 3725 
Q 1025 3213 1025 2328 
Q 1025 1447 1429 934 
Q 1834 422 2522 422 
Q 3209 422 3611 934 
Q 4013 1447 4013 2328 
Q 4013 3213 3611 3725 
Q 3209 4238 2522 4238 
z
M 2522 4750 
Q 3503 4750 4090 4092 
Q 4678 3434 4678 2328 
Q 4678 1225 4090 567 
Q 3503 -91 2522 -91 
Q 1538 -91 948 565 
Q 359 1222 359 2328 
Q 359 3434 948 4092 
Q 1538 4750 2522 4750 
z
" transform="scale(0.015625)"/>
      <path id="DejaVuSans-43" d="M 4122 4306 
L 4122 3641 
Q 3803 3938 3442 4084 
Q 3081 4231 2675 4231 
Q 1875 4231 1450 3742 
Q 1025 3253 1025 2328 
Q 1025 1406 1450 917 
Q 1875 428 2675 428 
Q 3081 428 3442 575 
Q 3803 722 4122 1019 
L 4122 359 
Q 3791 134 3420 21 
Q 3050 -91 2638 -91 
Q 1578 -91 968 557 
Q 359 1206 359 2328 
Q 359 3453 968 4101 
Q 1578 4750 2638 4750 
Q 3056 4750 3426 4639 
Q 3797 4528 4122 4306 
z
" transform="scale(0.015625)"/>
      <path id="DejaVuSans-73" d="M 2834 3397 
L 2834 2853 
Q 2591 2978 2328 3040 
Q 2066 3103 1784 3103 
Q 1356 3103 1142 2972 
Q 928 2841 928 2578 
Q 928 2378 1081 2264 
Q 1234 2150 1697 2047 
L 1894 2003 
Q 2506 1872 2764 1633 
Q 3022 1394 3022 966 
Q 3022 478 2636 193 
Q 2250 -91 1575 -91 
Q 1294 -91 989 -36 
Q 684 19 347 128 
L 347 722 
Q 666 556 975 473 
Q 1284 391 1588 391 
Q 1994 391 2212 530 
Q 2431 669 2431 922 
Q 2431 1156 2273 1281 
Q 2116 1406 1581 1522 
L 1381 1569 
Q 847 1681 609 1914 
Q 372 2147 372 2553 
Q 372 3047 722 3315 
Q 1072 3584 1716 3584 
Q 2034 3584 2315 3537 
Q 2597 3491 2834 3397 
z
" transform="scale(0.015625)"/>
      <path id="DejaVuSans-48" d="M 628 4666 
L 1259 4666 
L 1259 2753 
L 3553 2753 
L 3553 4666 
L 4184 4666 
L 4184 0 
L 3553 0 
L 3553 2222 
L 1259 2222 
L 1259 0 
L 628 0 
L 628 4666 
z
" transform="scale(0.015625)"/>
     </defs>
     <use xlink:href="#DejaVuSans-55"/>
     <use xlink:href="#DejaVuSans-6e" transform="translate(73.193359 0)"/>
     <use xlink:href="#DejaVuSans-69" transform="translate(136.572266 0)"/>
     <use xlink:href="#DejaVuSans-6d" transform="translate(164.355469 0)"/>
     <use xlink:href="#DejaVuSans-6f" transform="translate(261.767578 0)"/>
     <use xlink:href="#DejaVuSans-64" transform="translate(322.949219 0)"/>
     <use xlink:href="#DejaVuSans-61" transform="translate(386.425781 0)"/>
     <use xlink:href="#DejaVuSans-6c" transform="translate(447.705078 0)"/>
     <use xlink:href="#DejaVuSans-69" transform="translate(475.488281 0)"/>
     <use xlink:href="#DejaVuSans-74" transform="translate(503.271484 0)"/>
     <use xlink:href="#DejaVuSans-79" transform="translate(542.480469 0)"/>
     <use xlink:href="#DejaVuSans-20" transform="translate(601.660156 0)"/>
     <use xlink:href="#DejaVuSans-41" transform="translate(633.447266 0)"/>
     <use xlink:href="#DejaVuSans-70" transform="translate(701.855469 0)"/>
     <use xlink:href="#DejaVuSans-70" transform="translate(765.332031 0)"/>
     <use xlink:href="#DejaVuSans-6c" transform="translate(828.808594 0)"/>
     <use xlink:href="#DejaVuSans-69" transform="translate(856.591797 0)"/>
     <use xlink:href="#DejaVuSans-65" transform="translate(884.375 0)"/>
     <use xlink:href="#DejaVuSans-64" transform="translate(945.898438 0)"/>
     <use xlink:href="#DejaVuSans-20" transform="translate(1009.375 0)"/>
     <use xlink:href="#DejaVuSans-4f" transform="translate(1041.162109 0)"/>
     <use xlink:href="#DejaVuSans-6e" transform="translate(1119.873047 0)"/>
     <use xlink:href="#DejaVuSans-6c" transform="translate(1183.251953 0)"/>
     <use xlink:href="#DejaVuSans-79" transform="translate(1211.035156 0)"/>
     <use xlink:href="#DejaVuSans-20" transform="translate(1270.214844 0)"/>
     <use xlink:href="#DejaVuSans-74" transform="translate(1302.001953 0)"/>
     <use xlink:href="#DejaVuSans-6f" transform="translate(1341.210938 0)"/>
     <use xlink:href="#DejaVuSans-20" transform="translate(1402.392578 0)"/>
     <use xlink:href="#DejaVuSans-43" transform="translate(1434.179688 0)"/>
     <use xlink:href="#DejaVuSans-6f" transform="translate(1504.003906 0)"/>
     <use xlink:href="#DejaVuSans-6d" transform="translate(1565.185547 0)"/>
     <use xlink:href="#DejaVuSans-70" transform="translate(1662.597656 0)"/>
     <use xlink:href="#DejaVuSans-6f" transform="translate(1726.074219 0)"/>
     <use xlink:href="#DejaVuSans-6e" transform="translate(1787.255859 0)"/>
     <use xlink:href="#DejaVuSans-65" transform="translate(1850.634766 0)"/>
     <use xlink:href="#DejaVuSans-6e" transform="translate(1912.158203 0)"/>
     <use xlink:href="#DejaVuSans-74" transform="translate(1975.537109 0)"/>
     <use xlink:href="#DejaVuSans-73" transform="translate(2014.746094 0)"/>
     <use xlink:href="#DejaVuSans-20" transform="translate(2066.845703 0)"/>
     <use xlink:href="#DejaVuSans-30" transform="translate(2098.632812 0)"/>
     <use xlink:href="#DejaVuSans-20" transform="translate(2162.255859 0)"/>
     <use xlink:href="#DejaVuSans-61" transform="translate(2194.042969 0)"/>
     <use xlink:href="#DejaVuSans-6e" transform="translate(2255.322266 0)"/>
     <use xlink:href="#DejaVuSans-64" transform="translate(2318.701172 0)"/>
     <use xlink:href="#DejaVuSans-20" transform="translate(2382.177734 0)"/>
     <use xlink:href="#DejaVuSans-32" transform="translate(2413.964844 0)"/>
     <use xlink:href="#DejaVuSans-20" transform="translate(2477.587891 0)"/>
     <use xlink:href="#DejaVuSans-6f" transform="translate(2509.375 0)"/>
     <use xlink:href="#DejaVuSans-66" transform="translate(2570.556641 0)"/>
     <use xlink:href="#DejaVuSans-20" transform="translate(2605.761719 0)"/>
     <use xlink:href="#DejaVuSans-48" transform="translate(2637.548828 0)"/>
    </g>
   </g>
   <g id="legend_1">
    <g id="patch_7">
     <path d="M 352.142187 173.935313 
L 414.2 173.935313 
Q 416.2 173.935313 416.2 171.935313 
L 416.2 99.544688 
Q 416.2 97.544688 414.2 97.544688 
L 352.142187 97.544688 
Q 350.142187 97.544688 350.142187 99.544688 
L 350.142187 171.935313 
Q 350.142187 173.935313 352.142187 173.935313 
z
" style="fill: #ffffff; opacity: 0.8; stroke: #cccccc; stroke-linejoin: miter"/>
    </g>
    <g id="text_18">
     <!-- Component -->
     <g transform="translate(354.142187 109.143125) scale(0.1 -0.1)">
      <use xlink:href="#DejaVuSans-43"/>
      <use xlink:href="#DejaVuSans-6f" transform="translate(69.824219 0)"/>
      <use xlink:href="#DejaVuSans-6d" transform="translate(131.005859 0)"/>
      <use xlink:href="#DejaVuSans-70" transform="translate(228.417969 0)"/>
      <use xlink:href="#DejaVuSans-6f" transform="translate(291.894531 0)"/>
      <use xlink:href="#DejaVuSans-6e" transform="translate(353.076172 0)"/>
      <use xlink:href="#DejaVuSans-65" transform="translate(416.455078 0)"/>
      <use xlink:href="#DejaVuSans-6e" transform="translate(477.978516 0)"/>
      <use xlink:href="#DejaVuSans-74" transform="translate(541.357422 0)"/>
     </g>
    </g>
    <g id="line2d_19">
     <path d="M 365.989844 120.32125 
L 375.989844 120.32125 
L 385.989844 120.32125 
" style="fill: none; stroke: #1f77b4; stroke-width: 1.5; stroke-linecap: square"/>
    </g>
    <g id="text_19">
     <!-- 0 -->
     <g transform="translate(393.989844 123.82125) scale(0.1 -0.1)">
      <use xlink:href="#DejaVuSans-30"/>
     </g>
    </g>
    <g id="line2d_20">
     <path d="M 365.989844 134.999375 
L 375.989844 134.999375 
L 385.989844 134.999375 
" style="fill: none; stroke: #ff7f0e; stroke-width: 1.5; stroke-linecap: square"/>
    </g>
    <g id="text_20">
     <!-- 1 -->
     <g transform="translate(393.989844 138.499375) scale(0.1 -0.1)">
      <use xlink:href="#DejaVuSans-31"/>
     </g>
    </g>
    <g id="line2d_21">
     <path d="M 365.989844 149.6775 
L 375.989844 149.6775 
L 385.989844 149.6775 
" style="fill: none; stroke: #2ca02c; stroke-width: 1.5; stroke-linecap: square"/>
    </g>
    <g id="text_21">
     <!-- 2 -->
     <g transform="translate(393.989844 153.1775) scale(0.1 -0.1)">
      <use xlink:href="#DejaVuSans-32"/>
     </g>
    </g>
    <g id="line2d_22">
     <path d="M 365.989844 164.355625 
L 375.989844 164.355625 
L 385.989844 164.355625 
" style="fill: none; stroke: #d62728; stroke-width: 1.5; stroke-linecap: square"/>
    </g>
    <g id="text_22">
     <!-- 3 -->
     <g transform="translate(393.989844 167.855625) scale(0.1 -0.1)">
      <use xlink:href="#DejaVuSans-33"/>
     </g>
    </g>
   </g>
  </g>
 </g>
 <defs>
  <clipPath id="p58664cec72">
   <rect x="47.81" y="25.44" width="373.39" height="220.6"/>
  </clipPath>
 </defs>
</svg>
