<?xml version="1.0" encoding="utf-8" standalone="no"?>
<!DOCTYPE svg PUBLIC "-//W3C//DTD SVG 1.1//EN"
  "http://www.w3.org/Graphics/SVG/1.1/DTD/svg11.dtd">
<svg xmlns:xlink="http://www.w3.org/1999/xlink" width="432pt" height="288pt" viewBox="0 0 432 288" xmlns="http://www.w3.org/2000/svg" version="1.1">
 <metadata>
  <rdf:RDF xmlns:dc="http://purl.org/dc/elements/1.1/" xmlns:cc="http://creativecommons.org/ns#" xmlns:rdf="http://www.w3.org/1999/02/22-rdf-syntax-ns#">
   <cc:Work>
    <dc:type rdf:resource="http://purl.org/dc/dcmitype/StillImage"/>
    <dc:date>2025-06-18T11:30:46.188900</dc:date>
    <dc:format>image/svg+xml</dc:format>
    <dc:creator>
     <cc:Agent>
      <dc:title>Matplotlib v3.10.1, https://matplotlib.org/</dc:title>
     </cc:Agent>
    </dc:creator>
   </cc:Work>
  </rdf:RDF>
 </metadata>
 <defs>
  <style type="text/css">*{stroke-linejoin: round; stroke-linecap: butt}</style>
 </defs>
 <g id="figure_1">
  <g id="patch_1">
   <path d="M 0 288 
L 432 288 
L 432 0 
L 0 0 
z
" style="fill: #ffffff"/>
  </g>
  <g id="axes_1">
   <g id="patch_2">
    <path d="M 47.81 246.04 
L 421.2 246.04 
L 421.2 25.44 
L 47.81 25.44 
z
" style="fill: #ffffff"/>
   </g>
   <g id="matplotlib.axis_1">
    <g id="xtick_1">
     <g id="line2d_1">
      <defs>
       <path id="m31c81aaff3" d="M 0 0 
L 0 3.5 
" style="stroke: #000000; stroke-width: 0.8"/>
      </defs>
      <g>
       <use xlink:href="#m31c81aaff3" x="64.782273" y="246.04" style="stroke: #000000; stroke-width: 0.8"/>
      </g>
     </g>
     <g id="text_1">
      <!-- 0 -->
      <g transform="translate(61.601023 260.638438) scale(0.1 -0.1)">
       <defs>
        <path id="DejaVuSans-30" d="M 2034 4250 
Q 1547 4250 1301 3770 
Q 1056 3291 1056 2328 
Q 1056 1369 1301 889 
Q 1547 409 2034 409 
Q 2525 409 2770 889 
Q 3016 1369 3016 2328 
Q 3016 3291 2770 3770 
Q 2525 4250 2034 4250 
z
M 2034 4750 
Q 2819 4750 3233 4129 
Q 3647 3509 3647 2328 
Q 3647 1150 3233 529 
Q 2819 -91 2034 -91 
Q 1250 -91 836 529 
Q 422 1150 422 2328 
Q 422 3509 836 4129 
Q 1250 4750 2034 4750 
z
" transform="scale(0.015625)"/>
       </defs>
       <use xlink:href="#DejaVuSans-30"/>
      </g>
     </g>
    </g>
    <g id="xtick_2">
     <g id="line2d_2">
      <g>
       <use xlink:href="#m31c81aaff3" x="110.860841" y="246.04" style="stroke: #000000; stroke-width: 0.8"/>
      </g>
     </g>
     <g id="text_2">
      <!-- 1 -->
      <g transform="translate(107.679591 260.638438) scale(0.1 -0.1)">
       <defs>
        <path id="DejaVuSans-31" d="M 794 531 
L 1825 531 
L 1825 4091 
L 703 3866 
L 703 4441 
L 1819 4666 
L 2450 4666 
L 2450 531 
L 3481 531 
L 3481 0 
L 794 0 
L 794 531 
z
" transform="scale(0.015625)"/>
       </defs>
       <use xlink:href="#DejaVuSans-31"/>
      </g>
     </g>
    </g>
    <g id="xtick_3">
     <g id="line2d_3">
      <g>
       <use xlink:href="#m31c81aaff3" x="156.93941" y="246.04" style="stroke: #000000; stroke-width: 0.8"/>
      </g>
     </g>
     <g id="text_3">
      <!-- 2 -->
      <g transform="translate(153.75816 260.638438) scale(0.1 -0.1)">
       <defs>
        <path id="DejaVuSans-32" d="M 1228 531 
L 3431 531 
L 3431 0 
L 469 0 
L 469 531 
Q 828 903 1448 1529 
Q 2069 2156 2228 2338 
Q 2531 2678 2651 2914 
Q 2772 3150 2772 3378 
Q 2772 3750 2511 3984 
Q 2250 4219 1831 4219 
Q 1534 4219 1204 4116 
Q 875 4013 500 3803 
L 500 4441 
Q 881 4594 1212 4672 
Q 1544 4750 1819 4750 
Q 2544 4750 2975 4387 
Q 3406 4025 3406 3419 
Q 3406 3131 3298 2873 
Q 3191 2616 2906 2266 
Q 2828 2175 2409 1742 
Q 1991 1309 1228 531 
z
" transform="scale(0.015625)"/>
       </defs>
       <use xlink:href="#DejaVuSans-32"/>
      </g>
     </g>
    </g>
    <g id="xtick_4">
     <g id="line2d_4">
      <g>
       <use xlink:href="#m31c81aaff3" x="203.017978" y="246.04" style="stroke: #000000; stroke-width: 0.8"/>
      </g>
     </g>
     <g id="text_4">
      <!-- 3 -->
      <g transform="translate(199.836728 260.638438) scale(0.1 -0.1)">
       <defs>
        <path id="DejaVuSans-33" d="M 2597 2516 
Q 3050 2419 3304 2112 
Q 3559 1806 3559 1356 
Q 3559 666 3084 287 
Q 2609 -91 1734 -91 
Q 1441 -91 1130 -33 
Q 819 25 488 141 
L 488 750 
Q 750 597 1062 519 
Q 1375 441 1716 441 
Q 2309 441 2620 675 
Q 2931 909 2931 1356 
Q 2931 1769 2642 2001 
Q 2353 2234 1838 2234 
L 1294 2234 
L 1294 2753 
L 1863 2753 
Q 2328 2753 2575 2939 
Q 2822 3125 2822 3475 
Q 2822 3834 2567 4026 
Q 2313 4219 1838 4219 
Q 1578 4219 1281 4162 
Q 984 4106 628 3988 
L 628 4550 
Q 988 4650 1302 4700 
Q 1616 4750 1894 4750 
Q 2613 4750 3031 4423 
Q 3450 4097 3450 3541 
Q 3450 3153 3228 2886 
Q 3006 2619 2597 2516 
z
" transform="scale(0.015625)"/>
       </defs>
       <use xlink:href="#DejaVuSans-33"/>
      </g>
     </g>
    </g>
    <g id="xtick_5">
     <g id="line2d_5">
      <g>
       <use xlink:href="#m31c81aaff3" x="249.096547" y="246.04" style="stroke: #000000; stroke-width: 0.8"/>
      </g>
     </g>
     <g id="text_5">
      <!-- 4 -->
      <g transform="translate(245.915297 260.638438) scale(0.1 -0.1)">
       <defs>
        <path id="DejaVuSans-34" d="M 2419 4116 
L 825 1625 
L 2419 1625 
L 2419 4116 
z
M 2253 4666 
L 3047 4666 
L 3047 1625 
L 3713 1625 
L 3713 1100 
L 3047 1100 
L 3047 0 
L 2419 0 
L 2419 1100 
L 313 1100 
L 313 1709 
L 2253 4666 
z
" transform="scale(0.015625)"/>
       </defs>
       <use xlink:href="#DejaVuSans-34"/>
      </g>
     </g>
    </g>
    <g id="xtick_6">
     <g id="line2d_6">
      <g>
       <use xlink:href="#m31c81aaff3" x="295.175115" y="246.04" style="stroke: #000000; stroke-width: 0.8"/>
      </g>
     </g>
     <g id="text_6">
      <!-- 5 -->
      <g transform="translate(291.993865 260.638438) scale(0.1 -0.1)">
       <defs>
        <path id="DejaVuSans-35" d="M 691 4666 
L 3169 4666 
L 3169 4134 
L 1269 4134 
L 1269 2991 
Q 1406 3038 1543 3061 
Q 1681 3084 1819 3084 
Q 2600 3084 3056 2656 
Q 3513 2228 3513 1497 
Q 3513 744 3044 326 
Q 2575 -91 1722 -91 
Q 1428 -91 1123 -41 
Q 819 9 494 109 
L 494 744 
Q 775 591 1075 516 
Q 1375 441 1709 441 
Q 2250 441 2565 725 
Q 2881 1009 2881 1497 
Q 2881 1984 2565 2268 
Q 2250 2553 1709 2553 
Q 1456 2553 1204 2497 
Q 953 2441 691 2322 
L 691 4666 
z
" transform="scale(0.015625)"/>
       </defs>
       <use xlink:href="#DejaVuSans-35"/>
      </g>
     </g>
    </g>
    <g id="xtick_7">
     <g id="line2d_7">
      <g>
       <use xlink:href="#m31c81aaff3" x="341.253684" y="246.04" style="stroke: #000000; stroke-width: 0.8"/>
      </g>
     </g>
     <g id="text_7">
      <!-- 6 -->
      <g transform="translate(338.072434 260.638438) scale(0.1 -0.1)">
       <defs>
        <path id="DejaVuSans-36" d="M 2113 2584 
Q 1688 2584 1439 2293 
Q 1191 2003 1191 1497 
Q 1191 994 1439 701 
Q 1688 409 2113 409 
Q 2538 409 2786 701 
Q 3034 994 3034 1497 
Q 3034 2003 2786 2293 
Q 2538 2584 2113 2584 
z
M 3366 4563 
L 3366 3988 
Q 3128 4100 2886 4159 
Q 2644 4219 2406 4219 
Q 1781 4219 1451 3797 
Q 1122 3375 1075 2522 
Q 1259 2794 1537 2939 
Q 1816 3084 2150 3084 
Q 2853 3084 3261 2657 
Q 3669 2231 3669 1497 
Q 3669 778 3244 343 
Q 2819 -91 2113 -91 
Q 1303 -91 875 529 
Q 447 1150 447 2328 
Q 447 3434 972 4092 
Q 1497 4750 2381 4750 
Q 2619 4750 2861 4703 
Q 3103 4656 3366 4563 
z
" transform="scale(0.015625)"/>
       </defs>
       <use xlink:href="#DejaVuSans-36"/>
      </g>
     </g>
    </g>
    <g id="xtick_8">
     <g id="line2d_8">
      <g>
       <use xlink:href="#m31c81aaff3" x="387.332252" y="246.04" style="stroke: #000000; stroke-width: 0.8"/>
      </g>
     </g>
     <g id="text_8">
      <!-- 7 -->
      <g transform="translate(384.151002 260.638438) scale(0.1 -0.1)">
       <defs>
        <path id="DejaVuSans-37" d="M 525 4666 
L 3525 4666 
L 3525 4397 
L 1831 0 
L 1172 0 
L 2766 4134 
L 525 4134 
L 525 4666 
z
" transform="scale(0.015625)"/>
       </defs>
       <use xlink:href="#DejaVuSans-37"/>
      </g>
     </g>
    </g>
    <g id="text_9">
     <!-- Time [h] -->
     <g transform="translate(213.612031 274.316562) scale(0.1 -0.1)">
      <defs>
       <path id="DejaVuSans-54" d="M -19 4666 
L 3928 4666 
L 3928 4134 
L 2272 4134 
L 2272 0 
L 1638 0 
L 1638 4134 
L -19 4134 
L -19 4666 
z
" transform="scale(0.015625)"/>
       <path id="DejaVuSans-69" d="M 603 3500 
L 1178 3500 
L 1178 0 
L 603 0 
L 603 3500 
z
M 603 4863 
L 1178 4863 
L 1178 4134 
L 603 4134 
L 603 4863 
z
" transform="scale(0.015625)"/>
       <path id="DejaVuSans-6d" d="M 3328 2828 
Q 3544 3216 3844 3400 
Q 4144 3584 4550 3584 
Q 5097 3584 5394 3201 
Q 5691 2819 5691 2113 
L 5691 0 
L 5113 0 
L 5113 2094 
Q 5113 2597 4934 2840 
Q 4756 3084 4391 3084 
Q 3944 3084 3684 2787 
Q 3425 2491 3425 1978 
L 3425 0 
L 2847 0 
L 2847 2094 
Q 2847 2600 2669 2842 
Q 2491 3084 2119 3084 
Q 1678 3084 1418 2786 
Q 1159 2488 1159 1978 
L 1159 0 
L 581 0 
L 581 3500 
L 1159 3500 
L 1159 2956 
Q 1356 3278 1631 3431 
Q 1906 3584 2284 3584 
Q 2666 3584 2933 3390 
Q 3200 3197 3328 2828 
z
" transform="scale(0.015625)"/>
       <path id="DejaVuSans-65" d="M 3597 1894 
L 3597 1613 
L 953 1613 
Q 991 1019 1311 708 
Q 1631 397 2203 397 
Q 2534 397 2845 478 
Q 3156 559 3463 722 
L 3463 178 
Q 3153 47 2828 -22 
Q 2503 -91 2169 -91 
Q 1331 -91 842 396 
Q 353 884 353 1716 
Q 353 2575 817 3079 
Q 1281 3584 2069 3584 
Q 2775 3584 3186 3129 
Q 3597 2675 3597 1894 
z
M 3022 2063 
Q 3016 2534 2758 2815 
Q 2500 3097 2075 3097 
Q 1594 3097 1305 2825 
Q 1016 2553 972 2059 
L 3022 2063 
z
" transform="scale(0.015625)"/>
       <path id="DejaVuSans-20" transform="scale(0.015625)"/>
       <path id="DejaVuSans-5b" d="M 550 4863 
L 1875 4863 
L 1875 4416 
L 1125 4416 
L 1125 -397 
L 1875 -397 
L 1875 -844 
L 550 -844 
L 550 4863 
z
" transform="scale(0.015625)"/>
       <path id="DejaVuSans-68" d="M 3513 2113 
L 3513 0 
L 2938 0 
L 2938 2094 
Q 2938 2591 2744 2837 
Q 2550 3084 2163 3084 
Q 1697 3084 1428 2787 
Q 1159 2491 1159 1978 
L 1159 0 
L 581 0 
L 581 4863 
L 1159 4863 
L 1159 2956 
Q 1366 3272 1645 3428 
Q 1925 3584 2291 3584 
Q 2894 3584 3203 3211 
Q 3513 2838 3513 2113 
z
" transform="scale(0.015625)"/>
       <path id="DejaVuSans-5d" d="M 1947 4863 
L 1947 -844 
L 622 -844 
L 622 -397 
L 1369 -397 
L 1369 4416 
L 622 4416 
L 622 4863 
L 1947 4863 
z
" transform="scale(0.015625)"/>
      </defs>
      <use xlink:href="#DejaVuSans-54"/>
      <use xlink:href="#DejaVuSans-69" transform="translate(57.958984 0)"/>
      <use xlink:href="#DejaVuSans-6d" transform="translate(85.742188 0)"/>
      <use xlink:href="#DejaVuSans-65" transform="translate(183.154297 0)"/>
      <use xlink:href="#DejaVuSans-20" transform="translate(244.677734 0)"/>
      <use xlink:href="#DejaVuSans-5b" transform="translate(276.464844 0)"/>
      <use xlink:href="#DejaVuSans-68" transform="translate(315.478516 0)"/>
      <use xlink:href="#DejaVuSans-5d" transform="translate(378.857422 0)"/>
     </g>
    </g>
   </g>
   <g id="matplotlib.axis_2">
    <g id="ytick_1">
     <g id="line2d_9">
      <defs>
       <path id="m5eb9a94546" d="M 0 0 
L -3.5 0 
" style="stroke: #000000; stroke-width: 0.8"/>
      </defs>
      <g>
       <use xlink:href="#m5eb9a94546" x="47.81" y="236.012727" style="stroke: #000000; stroke-width: 0.8"/>
      </g>
     </g>
     <g id="text_10">
      <!-- 0.0 -->
      <g transform="translate(24.906875 239.811946) scale(0.1 -0.1)">
       <defs>
        <path id="DejaVuSans-2e" d="M 684 794 
L 1344 794 
L 1344 0 
L 684 0 
L 684 794 
z
" transform="scale(0.015625)"/>
       </defs>
       <use xlink:href="#DejaVuSans-30"/>
       <use xlink:href="#DejaVuSans-2e" transform="translate(63.623047 0)"/>
       <use xlink:href="#DejaVuSans-30" transform="translate(95.410156 0)"/>
      </g>
     </g>
    </g>
    <g id="ytick_2">
     <g id="line2d_10">
      <g>
       <use xlink:href="#m5eb9a94546" x="47.81" y="195.903636" style="stroke: #000000; stroke-width: 0.8"/>
      </g>
     </g>
     <g id="text_11">
      <!-- 0.2 -->
      <g transform="translate(24.906875 199.702855) scale(0.1 -0.1)">
       <use xlink:href="#DejaVuSans-30"/>
       <use xlink:href="#DejaVuSans-2e" transform="translate(63.623047 0)"/>
       <use xlink:href="#DejaVuSans-32" transform="translate(95.410156 0)"/>
      </g>
     </g>
    </g>
    <g id="ytick_3">
     <g id="line2d_11">
      <g>
       <use xlink:href="#m5eb9a94546" x="47.81" y="155.794545" style="stroke: #000000; stroke-width: 0.8"/>
      </g>
     </g>
     <g id="text_12">
      <!-- 0.4 -->
      <g transform="translate(24.906875 159.593764) scale(0.1 -0.1)">
       <use xlink:href="#DejaVuSans-30"/>
       <use xlink:href="#DejaVuSans-2e" transform="translate(63.623047 0)"/>
       <use xlink:href="#DejaVuSans-34" transform="translate(95.410156 0)"/>
      </g>
     </g>
    </g>
    <g id="ytick_4">
     <g id="line2d_12">
      <g>
       <use xlink:href="#m5eb9a94546" x="47.81" y="115.685455" style="stroke: #000000; stroke-width: 0.8"/>
      </g>
     </g>
     <g id="text_13">
      <!-- 0.6 -->
      <g transform="translate(24.906875 119.484673) scale(0.1 -0.1)">
       <use xlink:href="#DejaVuSans-30"/>
       <use xlink:href="#DejaVuSans-2e" transform="translate(63.623047 0)"/>
       <use xlink:href="#DejaVuSans-36" transform="translate(95.410156 0)"/>
      </g>
     </g>
    </g>
    <g id="ytick_5">
     <g id="line2d_13">
      <g>
       <use xlink:href="#m5eb9a94546" x="47.81" y="75.576364" style="stroke: #000000; stroke-width: 0.8"/>
      </g>
     </g>
     <g id="text_14">
      <!-- 0.8 -->
      <g transform="translate(24.906875 79.375582) scale(0.1 -0.1)">
       <defs>
        <path id="DejaVuSans-38" d="M 2034 2216 
Q 1584 2216 1326 1975 
Q 1069 1734 1069 1313 
Q 1069 891 1326 650 
Q 1584 409 2034 409 
Q 2484 409 2743 651 
Q 3003 894 3003 1313 
Q 3003 1734 2745 1975 
Q 2488 2216 2034 2216 
z
M 1403 2484 
Q 997 2584 770 2862 
Q 544 3141 544 3541 
Q 544 4100 942 4425 
Q 1341 4750 2034 4750 
Q 2731 4750 3128 4425 
Q 3525 4100 3525 3541 
Q 3525 3141 3298 2862 
Q 3072 2584 2669 2484 
Q 3125 2378 3379 2068 
Q 3634 1759 3634 1313 
Q 3634 634 3220 271 
Q 2806 -91 2034 -91 
Q 1263 -91 848 271 
Q 434 634 434 1313 
Q 434 1759 690 2068 
Q 947 2378 1403 2484 
z
M 1172 3481 
Q 1172 3119 1398 2916 
Q 1625 2713 2034 2713 
Q 2441 2713 2670 2916 
Q 2900 3119 2900 3481 
Q 2900 3844 2670 4047 
Q 2441 4250 2034 4250 
Q 1625 4250 1398 4047 
Q 1172 3844 1172 3481 
z
" transform="scale(0.015625)"/>
       </defs>
       <use xlink:href="#DejaVuSans-30"/>
       <use xlink:href="#DejaVuSans-2e" transform="translate(63.623047 0)"/>
       <use xlink:href="#DejaVuSans-38" transform="translate(95.410156 0)"/>
      </g>
     </g>
    </g>
    <g id="ytick_6">
     <g id="line2d_14">
      <g>
       <use xlink:href="#m5eb9a94546" x="47.81" y="35.467273" style="stroke: #000000; stroke-width: 0.8"/>
      </g>
     </g>
     <g id="text_15">
      <!-- 1.0 -->
      <g transform="translate(24.906875 39.266491) scale(0.1 -0.1)">
       <use xlink:href="#DejaVuSans-31"/>
       <use xlink:href="#DejaVuSans-2e" transform="translate(63.623047 0)"/>
       <use xlink:href="#DejaVuSans-30" transform="translate(95.410156 0)"/>
      </g>
     </g>
    </g>
    <g id="text_16">
     <!-- Mole fraction -->
     <g transform="translate(18.827188 168.374375) rotate(-90) scale(0.1 -0.1)">
      <defs>
       <path id="DejaVuSans-4d" d="M 628 4666 
L 1569 4666 
L 2759 1491 
L 3956 4666 
L 4897 4666 
L 4897 0 
L 4281 0 
L 4281 4097 
L 3078 897 
L 2444 897 
L 1241 4097 
L 1241 0 
L 628 0 
L 628 4666 
z
" transform="scale(0.015625)"/>
       <path id="DejaVuSans-6f" d="M 1959 3097 
Q 1497 3097 1228 2736 
Q 959 2375 959 1747 
Q 959 1119 1226 758 
Q 1494 397 1959 397 
Q 2419 397 2687 759 
Q 2956 1122 2956 1747 
Q 2956 2369 2687 2733 
Q 2419 3097 1959 3097 
z
M 1959 3584 
Q 2709 3584 3137 3096 
Q 3566 2609 3566 1747 
Q 3566 888 3137 398 
Q 2709 -91 1959 -91 
Q 1206 -91 779 398 
Q 353 888 353 1747 
Q 353 2609 779 3096 
Q 1206 3584 1959 3584 
z
" transform="scale(0.015625)"/>
       <path id="DejaVuSans-6c" d="M 603 4863 
L 1178 4863 
L 1178 0 
L 603 0 
L 603 4863 
z
" transform="scale(0.015625)"/>
       <path id="DejaVuSans-66" d="M 2375 4863 
L 2375 4384 
L 1825 4384 
Q 1516 4384 1395 4259 
Q 1275 4134 1275 3809 
L 1275 3500 
L 2222 3500 
L 2222 3053 
L 1275 3053 
L 1275 0 
L 697 0 
L 697 3053 
L 147 3053 
L 147 3500 
L 697 3500 
L 697 3744 
Q 697 4328 969 4595 
Q 1241 4863 1831 4863 
L 2375 4863 
z
" transform="scale(0.015625)"/>
       <path id="DejaVuSans-72" d="M 2631 2963 
Q 2534 3019 2420 3045 
Q 2306 3072 2169 3072 
Q 1681 3072 1420 2755 
Q 1159 2438 1159 1844 
L 1159 0 
L 581 0 
L 581 3500 
L 1159 3500 
L 1159 2956 
Q 1341 3275 1631 3429 
Q 1922 3584 2338 3584 
Q 2397 3584 2469 3576 
Q 2541 3569 2628 3553 
L 2631 2963 
z
" transform="scale(0.015625)"/>
       <path id="DejaVuSans-61" d="M 2194 1759 
Q 1497 1759 1228 1600 
Q 959 1441 959 1056 
Q 959 750 1161 570 
Q 1363 391 1709 391 
Q 2188 391 2477 730 
Q 2766 1069 2766 1631 
L 2766 1759 
L 2194 1759 
z
M 3341 1997 
L 3341 0 
L 2766 0 
L 2766 531 
Q 2569 213 2275 61 
Q 1981 -91 1556 -91 
Q 1019 -91 701 211 
Q 384 513 384 1019 
Q 384 1609 779 1909 
Q 1175 2209 1959 2209 
L 2766 2209 
L 2766 2266 
Q 2766 2663 2505 2880 
Q 2244 3097 1772 3097 
Q 1472 3097 1187 3025 
Q 903 2953 641 2809 
L 641 3341 
Q 956 3463 1253 3523 
Q 1550 3584 1831 3584 
Q 2591 3584 2966 3190 
Q 3341 2797 3341 1997 
z
" transform="scale(0.015625)"/>
       <path id="DejaVuSans-63" d="M 3122 3366 
L 3122 2828 
Q 2878 2963 2633 3030 
Q 2388 3097 2138 3097 
Q 1578 3097 1268 2742 
Q 959 2388 959 1747 
Q 959 1106 1268 751 
Q 1578 397 2138 397 
Q 2388 397 2633 464 
Q 2878 531 3122 666 
L 3122 134 
Q 2881 22 2623 -34 
Q 2366 -91 2075 -91 
Q 1284 -91 818 406 
Q 353 903 353 1747 
Q 353 2603 823 3093 
Q 1294 3584 2113 3584 
Q 2378 3584 2631 3529 
Q 2884 3475 3122 3366 
z
" transform="scale(0.015625)"/>
       <path id="DejaVuSans-74" d="M 1172 4494 
L 1172 3500 
L 2356 3500 
L 2356 3053 
L 1172 3053 
L 1172 1153 
Q 1172 725 1289 603 
Q 1406 481 1766 481 
L 2356 481 
L 2356 0 
L 1766 0 
Q 1100 0 847 248 
Q 594 497 594 1153 
L 594 3053 
L 172 3053 
L 172 3500 
L 594 3500 
L 594 4494 
L 1172 4494 
z
" transform="scale(0.015625)"/>
       <path id="DejaVuSans-6e" d="M 3513 2113 
L 3513 0 
L 2938 0 
L 2938 2094 
Q 2938 2591 2744 2837 
Q 2550 3084 2163 3084 
Q 1697 3084 1428 2787 
Q 1159 2491 1159 1978 
L 1159 0 
L 581 0 
L 581 3500 
L 1159 3500 
L 1159 2956 
Q 1366 3272 1645 3428 
Q 1925 3584 2291 3584 
Q 2894 3584 3203 3211 
Q 3513 2838 3513 2113 
z
" transform="scale(0.015625)"/>
      </defs>
      <use xlink:href="#DejaVuSans-4d"/>
      <use xlink:href="#DejaVuSans-6f" transform="translate(86.279297 0)"/>
      <use xlink:href="#DejaVuSans-6c" transform="translate(147.460938 0)"/>
      <use xlink:href="#DejaVuSans-65" transform="translate(175.244141 0)"/>
      <use xlink:href="#DejaVuSans-20" transform="translate(236.767578 0)"/>
      <use xlink:href="#DejaVuSans-66" transform="translate(268.554688 0)"/>
      <use xlink:href="#DejaVuSans-72" transform="translate(303.759766 0)"/>
      <use xlink:href="#DejaVuSans-61" transform="translate(344.873047 0)"/>
      <use xlink:href="#DejaVuSans-63" transform="translate(406.152344 0)"/>
      <use xlink:href="#DejaVuSans-74" transform="translate(461.132812 0)"/>
      <use xlink:href="#DejaVuSans-69" transform="translate(500.341797 0)"/>
      <use xlink:href="#DejaVuSans-6f" transform="translate(528.125 0)"/>
      <use xlink:href="#DejaVuSans-6e" transform="translate(589.306641 0)"/>
     </g>
    </g>
   </g>
   <g id="line2d_15">
    <path d="M 64.782273 236.012727 
L 67.854177 236.012727 
L 69.39013 233.212792 
L 70.158106 232.885 
L 70.926082 232.885 
L 71.694058 232.623082 
L 72.462034 232.491329 
L 73.23001 232.491329 
L 73.997986 232.092396 
L 74.765963 232.092396 
L 75.533939 231.962271 
L 77.069891 231.860823 
L 77.837867 232.684147 
L 78.605843 233.186957 
L 79.373819 233.003797 
L 80.141796 233.25916 
L 81.677748 233.365438 
L 83.2137 233.195437 
L 83.981676 232.449303 
L 84.749652 232.626719 
L 85.517629 232.31689 
L 86.285605 232.321864 
L 87.053581 232.686607 
L 87.821557 232.207935 
L 88.589533 232.803371 
L 89.357509 232.699491 
L 90.125485 233.118919 
L 91.661438 232.888876 
L 93.19739 233.472401 
L 93.965366 233.108868 
L 94.733342 233.928582 
L 95.501318 233.477504 
L 96.269295 233.826333 
L 97.805247 232.928575 
L 98.573223 233.337642 
L 99.341199 233.402611 
L 100.109175 233.899336 
L 100.877151 233.482947 
L 101.645128 233.997265 
L 102.413104 235.195933 
L 103.949056 235.386517 
L 104.717032 235.654699 
L 105.485008 235.199136 
L 106.252984 235.252423 
L 107.020961 234.624056 
L 107.788937 234.624056 
L 108.556913 234.106932 
L 109.324889 234.980811 
L 110.092865 234.980811 
L 110.860841 234.044588 
L 111.628817 234.781185 
L 112.396793 234.07044 
L 113.16477 234.000128 
L 113.932746 235.002463 
L 114.700722 233.972103 
L 115.468698 234.63381 
L 116.236674 234.848482 
L 117.00465 233.605474 
L 117.772626 234.102849 
L 120.076555 233.610054 
L 120.844531 234.361117 
L 121.612507 233.763029 
L 122.380483 234.665303 
L 123.148459 233.53409 
L 124.684412 233.4581 
L 125.452388 233.791688 
L 126.220364 233.953089 
L 126.98834 233.811645 
L 127.756316 233.421996 
L 128.524292 234.29165 
L 129.292269 233.531862 
L 130.060245 232.515907 
L 130.828221 231.233518 
L 131.596197 232.021405 
L 132.364173 230.978322 
L 133.132149 229.664714 
L 133.900125 227.355464 
L 134.668102 228.261015 
L 135.436078 226.941437 
L 136.204054 227.971039 
L 136.97203 227.271559 
L 137.740006 227.51455 
L 139.275958 226.580523 
L 140.043935 225.469335 
L 140.811911 225.171527 
L 141.579887 224.367583 
L 142.347863 224.646817 
L 143.115839 223.24364 
L 144.651791 222.271091 
L 145.419768 220.099526 
L 146.187744 220.109675 
L 146.95572 219.088695 
L 147.723696 218.699124 
L 149.259648 217.767036 
L 150.027624 217.828933 
L 150.795601 217.35779 
L 151.563577 216.047959 
L 152.331553 215.521655 
L 153.099529 215.489449 
L 153.867505 214.516711 
L 154.635481 214.016298 
L 155.403457 214.022351 
L 156.171434 212.625452 
L 156.93941 211.80961 
L 157.707386 209.562612 
L 158.475362 209.23909 
L 159.243338 209.23909 
L 160.011314 208.757737 
L 160.77929 209.026041 
L 161.547267 209.161371 
L 162.315243 206.896834 
L 163.083219 205.44833 
L 163.851195 204.619046 
L 164.619171 204.26064 
L 165.387147 203.76717 
L 166.155123 202.39527 
L 166.9231 201.838484 
L 167.691076 200.459638 
L 168.459052 200.266759 
L 169.995004 198.616184 
L 171.530956 195.564073 
L 172.298933 195.265544 
L 173.066909 193.341496 
L 174.602861 192.327007 
L 175.370837 190.746902 
L 176.138813 190.660842 
L 176.906789 190.42449 
L 177.674766 189.975406 
L 178.442742 189.320943 
L 179.978694 186.467128 
L 180.74667 185.248952 
L 181.514646 185.187731 
L 182.282622 183.794614 
L 185.354527 183.334598 
L 186.122503 182.806229 
L 186.890479 182.806229 
L 187.658455 182.382326 
L 188.426431 180.383463 
L 189.194408 180.190122 
L 189.962384 179.489061 
L 190.73036 178.500613 
L 192.266312 177.037394 
L 193.034288 174.912748 
L 193.802264 174.089627 
L 194.570241 172.150094 
L 195.338217 170.995237 
L 196.106193 170.255078 
L 196.874169 168.858953 
L 197.642145 167.884371 
L 198.410121 165.902891 
L 199.178098 164.549118 
L 199.946074 162.886403 
L 200.71405 161.507337 
L 201.482026 160.777657 
L 202.250002 157.384836 
L 203.017978 155.760194 
L 203.785954 155.267522 
L 204.55393 152.594268 
L 205.321907 151.242644 
L 206.089883 149.065071 
L 206.857859 148.043746 
L 208.393811 144.70817 
L 209.161787 144.026274 
L 209.929763 141.352239 
L 210.69774 139.784772 
L 211.465716 139.498951 
L 212.233692 136.949534 
L 213.001668 134.867494 
L 213.769644 134.037574 
L 214.53762 132.23127 
L 216.073573 129.612081 
L 216.841549 127.498381 
L 217.609525 126.512565 
L 218.377501 126.337138 
L 219.145477 123.973203 
L 220.681429 121.921065 
L 221.449406 121.776105 
L 222.217382 120.019211 
L 222.985358 119.41759 
L 223.753334 117.793609 
L 224.52131 115.853585 
L 225.289286 114.775171 
L 226.057262 114.197278 
L 226.825239 113.177529 
L 227.593215 112.378099 
L 228.361191 109.732744 
L 229.129167 108.972109 
L 229.897143 108.021973 
L 230.665119 107.250221 
L 232.201072 106.858577 
L 232.969048 106.307175 
L 233.737024 106.100249 
L 234.505 105.378711 
L 235.272976 101.40284 
L 236.040952 96.470495 
L 237.576905 94.339358 
L 238.344881 94.339358 
L 239.112857 92.44234 
L 239.880833 92.36531 
L 241.416785 91.393772 
L 242.184761 89.20425 
L 242.952738 89.20425 
L 243.720714 88.363839 
L 244.48869 84.089407 
L 245.256666 82.674612 
L 246.024642 82.447308 
L 246.792618 81.634817 
L 247.560594 80.060032 
L 248.328571 79.614236 
L 249.096547 76.481199 
L 249.864523 75.208328 
L 250.632499 74.818878 
L 252.168451 70.858117 
L 252.936427 69.877014 
L 253.704404 69.746566 
L 254.47238 69.318197 
L 255.240356 68.013777 
L 256.776308 67.511198 
L 257.544284 66.877771 
L 258.31226 63.99326 
L 259.080237 63.429938 
L 260.616189 63.101392 
L 261.384165 61.762137 
L 262.152141 61.644884 
L 262.920117 59.692505 
L 264.456069 58.981641 
L 265.224046 58.400527 
L 265.992022 55.979567 
L 266.759998 55.944571 
L 267.527974 52.707857 
L 268.29595 52.013314 
L 269.063926 51.534614 
L 269.831902 51.676731 
L 270.599879 49.770358 
L 271.367855 50.034371 
L 272.135831 50.672326 
L 272.903807 51.957002 
L 273.671783 52.83639 
L 274.439759 56.707493 
L 275.207736 59.708637 
L 275.975712 59.872557 
L 276.743688 60.760266 
L 277.511664 61.394296 
L 278.27964 64.96398 
L 279.047616 65.703456 
L 280.583568 73.104014 
L 282.887497 80.403608 
L 283.655473 86.308101 
L 284.423449 87.256377 
L 285.959401 91.798474 
L 286.727378 92.988141 
L 287.495354 97.505988 
L 288.26333 99.083387 
L 289.031306 101.001591 
L 289.799282 101.789256 
L 290.567258 105.197876 
L 291.335234 109.697205 
L 292.103211 111.151148 
L 293.639163 113.377706 
L 294.407139 113.960402 
L 295.175115 115.101199 
L 295.943091 115.71083 
L 296.711067 117.458976 
L 297.479044 118.103143 
L 298.24702 119.10477 
L 299.014996 120.680925 
L 299.782972 122.643982 
L 300.550948 125.128939 
L 301.318924 125.846021 
L 302.0869 126.721224 
L 302.854877 129.6879 
L 303.622853 131.71804 
L 304.390829 132.176203 
L 305.158805 132.931593 
L 305.926781 136.619768 
L 306.694757 137.789523 
L 307.462733 138.267397 
L 308.23071 139.976328 
L 308.998686 142.035504 
L 309.766662 143.537655 
L 310.534638 146.898945 
L 311.302614 147.741774 
L 312.07059 150.851874 
L 312.838566 152.197911 
L 313.606543 152.813468 
L 314.374519 153.991866 
L 315.142495 154.652266 
L 315.910471 156.888785 
L 316.678447 159.843159 
L 318.214399 163.033767 
L 318.982376 163.708995 
L 319.750352 166.433097 
L 320.518328 167.398979 
L 321.286304 169.261454 
L 322.05428 170.281987 
L 322.822256 173.250989 
L 323.590232 173.564406 
L 324.358209 174.993447 
L 325.894161 177.012174 
L 326.662137 177.310139 
L 327.430113 180.000894 
L 328.198089 182.272743 
L 328.966065 182.604742 
L 329.734042 186.224314 
L 330.502018 187.034548 
L 331.269994 189.178042 
L 332.03797 189.824474 
L 332.805946 190.96827 
L 333.573922 192.63187 
L 334.341898 194.67426 
L 335.877851 195.75693 
L 336.645827 196.179543 
L 337.413803 196.250456 
L 338.181779 197.606474 
L 338.949755 197.606474 
L 339.717731 199.893331 
L 340.485707 200.691327 
L 342.789636 200.774456 
L 343.557612 200.820273 
L 344.325588 201.262866 
L 345.093564 201.262866 
L 345.861541 201.436381 
L 346.629517 201.436381 
L 347.397493 201.55807 
L 348.933445 201.55807 
L 349.701421 201.92041 
L 350.469397 202.043256 
L 354.309278 202.043256 
L 355.077254 202.966161 
L 355.84523 203.072009 
L 356.613206 203.938673 
L 358.149159 203.938673 
L 358.917135 205.822053 
L 359.685111 206.374648 
L 360.453087 206.376398 
L 361.221063 206.736991 
L 362.757016 206.79529 
L 363.524992 207.20792 
L 364.292968 207.20792 
L 365.060944 207.993866 
L 365.82892 207.985582 
L 366.596896 208.526835 
L 367.364872 208.920949 
L 368.132849 209.742218 
L 368.900825 209.742218 
L 369.668801 212.369791 
L 370.436777 212.51108 
L 371.972729 213.679406 
L 372.740705 215.336292 
L 373.508682 215.336292 
L 374.276658 216.168671 
L 375.044634 217.693892 
L 375.81261 217.58139 
L 376.580586 217.913567 
L 377.348562 219.919775 
L 378.116538 220.062379 
L 378.884515 221.842165 
L 379.652491 222.304133 
L 380.420467 222.304133 
L 381.188443 222.620221 
L 381.956419 224.999156 
L 382.724395 225.161062 
L 383.492371 226.617927 
L 384.260348 226.96423 
L 385.028324 227.686619 
L 385.7963 227.738944 
L 386.564276 230.350897 
L 387.332252 230.350897 
L 388.113028 230.96177 
L 388.868204 230.96177 
L 389.636181 231.278888 
L 390.404157 232.583043 
L 391.940109 232.583043 
L 392.708085 233.276793 
L 393.476061 233.276793 
L 394.244037 233.649172 
L 395.012014 234.643699 
L 395.77999 234.643699 
L 396.547966 234.785918 
L 398.851894 234.785918 
L 399.61987 235.107256 
L 401.923799 235.107256 
L 402.691775 235.930265 
L 404.227727 236.012727 
L 404.227727 236.012727 
" clip-path="url(#pc7f6cf7109)" style="fill: none; stroke: #1f77b4; stroke-width: 1.5; stroke-linecap: square"/>
   </g>
   <g id="line2d_16">
    <path d="M 64.782273 236.012727 
L 67.854177 236.012727 
L 68.622153 234.290341 
L 69.39013 232.85159 
L 70.158106 232.523798 
L 70.926082 232.523798 
L 71.694058 232.26188 
L 72.462034 232.130126 
L 73.23001 232.130126 
L 73.997986 231.731194 
L 74.765963 231.731194 
L 75.533939 231.601069 
L 77.069891 231.499621 
L 77.837867 232.322945 
L 78.605843 232.825755 
L 79.373819 232.642595 
L 80.141796 232.897958 
L 81.677748 233.004236 
L 83.2137 232.834235 
L 83.981676 232.088101 
L 84.749652 232.265517 
L 85.517629 231.955688 
L 86.285605 231.960662 
L 87.053581 232.325405 
L 87.821557 231.846733 
L 88.589533 232.442169 
L 89.357509 232.338289 
L 90.125485 232.757717 
L 91.661438 232.527674 
L 93.19739 233.111199 
L 93.965366 232.747666 
L 94.733342 233.56738 
L 95.501318 233.116302 
L 96.269295 233.465131 
L 97.805247 232.567373 
L 98.573223 232.97644 
L 99.341199 233.041408 
L 100.109175 233.538134 
L 100.877151 233.121745 
L 101.645128 233.636063 
L 102.413104 234.834731 
L 103.949056 235.025315 
L 104.717032 235.293497 
L 105.485008 234.837934 
L 106.252984 234.891221 
L 107.020961 234.262854 
L 107.788937 234.262854 
L 108.556913 233.74573 
L 109.324889 234.619609 
L 110.092865 234.619609 
L 110.860841 233.683386 
L 111.628817 234.419983 
L 112.396793 233.709238 
L 113.16477 233.638926 
L 113.932746 234.641261 
L 114.700722 233.610901 
L 115.468698 234.272608 
L 116.236674 234.48728 
L 117.00465 233.244272 
L 117.772626 233.741647 
L 120.076555 233.248852 
L 120.844531 233.999915 
L 121.612507 233.401827 
L 122.380483 234.304101 
L 123.148459 233.172888 
L 124.684412 233.096898 
L 125.452388 233.430486 
L 126.220364 233.591887 
L 127.756316 233.242453 
L 128.524292 234.112108 
L 129.292269 233.352319 
L 130.060245 233.761824 
L 130.828221 232.940341 
L 131.596197 233.728229 
L 132.364173 232.685145 
L 133.132149 233.458478 
L 133.900125 232.888925 
L 134.668102 234.245711 
L 135.436078 232.926133 
L 136.204054 233.955735 
L 136.97203 233.256255 
L 137.740006 233.499246 
L 138.507982 232.983978 
L 139.275958 233.596752 
L 140.043935 233.759226 
L 141.579887 233.665068 
L 142.347863 233.944301 
L 143.115839 233.78449 
L 143.883815 233.24713 
L 144.651791 233.059691 
L 145.419768 233.435105 
L 146.187744 233.511379 
L 146.95572 233.851706 
L 148.491672 232.897681 
L 149.259648 233.482708 
L 150.027624 233.544605 
L 150.795601 232.788248 
L 151.563577 233.224858 
L 152.331553 232.481408 
L 153.099529 232.270831 
L 154.635481 231.326061 
L 155.403457 231.05286 
L 156.171434 231.518494 
L 156.93941 230.550551 
L 157.707386 231.282855 
L 158.475362 230.959333 
L 159.243338 230.959333 
L 160.011314 230.47798 
L 160.77929 230.826969 
L 161.547267 231.478864 
L 163.083219 231.117655 
L 163.851195 231.383286 
L 164.619171 231.290442 
L 165.387147 230.949479 
L 166.155123 231.406779 
L 166.9231 230.849993 
L 167.691076 231.309609 
L 168.459052 231.11673 
L 169.227028 231.10953 
L 169.995004 230.395519 
L 170.76298 230.649279 
L 171.530956 231.11635 
L 172.298933 231.21586 
L 173.066909 231.85721 
L 174.602861 230.842722 
L 175.370837 231.369423 
L 176.138813 230.107354 
L 176.906789 229.871002 
L 177.674766 230.020697 
L 178.442742 229.366234 
L 179.210718 229.695547 
L 179.978694 229.462037 
L 180.74667 229.60209 
L 181.514646 229.540868 
L 182.282622 229.816173 
L 184.586551 229.550459 
L 185.354527 229.615227 
L 186.122503 229.086858 
L 186.890479 229.086858 
L 187.658455 229.228159 
L 188.426431 229.894447 
L 189.194408 229.701106 
L 189.962384 229.934793 
L 190.73036 228.946344 
L 192.266312 229.434084 
L 193.034288 230.047252 
L 193.802264 229.224132 
L 194.570241 229.870643 
L 195.338217 229.908495 
L 196.106193 229.223673 
L 197.642145 229.305657 
L 198.410121 229.678256 
L 199.178098 228.372687 
L 199.946074 228.926925 
L 200.71405 229.130603 
L 201.482026 228.402374 
L 202.250002 229.417879 
L 203.017978 229.360914 
L 203.785954 228.868242 
L 204.55393 229.506544 
L 205.321907 229.901007 
L 206.089883 229.884177 
L 206.857859 229.736031 
L 207.625835 229.033357 
L 208.393811 229.213898 
L 209.161787 228.532001 
L 209.929763 229.371188 
L 210.69774 229.514727 
L 211.465716 229.283895 
L 212.233692 229.648275 
L 213.001668 229.700439 
L 213.769644 229.118737 
L 214.53762 229.661998 
L 215.305596 229.221084 
L 216.073573 229.530836 
L 216.841549 230.177266 
L 217.609525 229.150599 
L 218.377501 228.975171 
L 219.145477 229.654864 
L 219.913453 228.642805 
L 220.681429 228.989498 
L 221.449406 228.844538 
L 222.217382 229.430169 
L 222.985358 228.828549 
L 223.753334 229.190828 
L 224.52131 228.66838 
L 225.289286 228.348315 
L 226.057262 227.586902 
L 226.825239 227.00887 
L 227.593215 226.20944 
L 228.361191 227.091225 
L 229.129167 226.779116 
L 229.897143 226.731293 
L 230.665119 225.959541 
L 232.201072 226.042317 
L 232.969048 225.490915 
L 233.737024 225.355644 
L 234.505 224.634107 
L 235.272976 225.037568 
L 236.040952 226.681683 
L 236.808928 226.933128 
L 237.576905 225.90377 
L 238.344881 225.90377 
L 239.112857 226.536109 
L 239.880833 226.561785 
L 241.416785 225.590248 
L 242.184761 226.320088 
L 242.952738 226.320088 
L 243.720714 225.479677 
L 244.48869 226.904488 
L 245.256666 226.617126 
L 246.024642 226.661941 
L 246.792618 226.932772 
L 247.560594 227.4577 
L 248.328571 227.011904 
L 249.096547 227.73101 
L 249.864523 228.1553 
L 250.632499 227.76585 
L 251.400475 227.969412 
L 252.168451 228.59751 
L 252.936427 228.588763 
L 253.704404 228.458315 
L 254.47238 228.029946 
L 255.240356 228.464752 
L 256.776308 227.962172 
L 257.544284 227.328746 
L 258.31226 228.290249 
L 259.080237 227.726928 
L 260.616189 227.398382 
L 261.384165 227.753072 
L 262.920117 227.76115 
L 264.456069 227.050287 
L 265.224046 226.956964 
L 265.992022 227.529516 
L 266.759998 227.494519 
L 267.527974 228.573424 
L 268.29595 227.878881 
L 269.831902 226.860771 
L 270.599879 226.90115 
L 271.367855 226.629555 
L 272.903807 225.066839 
L 273.671783 222.428677 
L 274.439759 219.350877 
L 275.207736 217.05158 
L 275.975712 216.559819 
L 276.743688 213.896694 
L 277.511664 211.994604 
L 278.27964 209.48828 
L 279.047616 208.422433 
L 280.583568 202.326956 
L 281.351545 199.866406 
L 282.887497 194.274166 
L 283.655473 190.518095 
L 284.423449 189.100105 
L 285.959401 184.573474 
L 286.727378 183.228205 
L 287.495354 179.268345 
L 289.031306 175.6786 
L 289.799282 174.523515 
L 290.567258 171.72251 
L 291.335234 168.327551 
L 292.103211 167.132654 
L 292.871187 165.451917 
L 293.639163 164.511395 
L 294.407139 162.763306 
L 295.175115 161.583191 
L 295.943091 159.754298 
L 296.711067 158.817298 
L 297.479044 156.884798 
L 298.24702 155.907888 
L 299.014996 154.583107 
L 299.782972 152.464888 
L 300.550948 150.914111 
L 301.318924 148.762863 
L 302.0869 147.764915 
L 302.854877 146.007556 
L 304.390829 143.415337 
L 305.158805 142.039409 
L 305.926781 139.374495 
L 306.694757 137.304616 
L 307.462733 135.761651 
L 308.23071 134.530974 
L 308.998686 131.669738 
L 309.766662 130.501227 
L 310.534638 128.545539 
L 311.302614 126.017052 
L 312.838566 123.469532 
L 313.606543 121.622862 
L 314.374519 120.264017 
L 315.142495 119.435559 
L 316.678447 114.761275 
L 317.446423 113.653382 
L 318.982376 111.050221 
L 319.750352 107.888661 
L 320.518328 107.431977 
L 321.286304 105.241764 
L 322.05428 104.289306 
L 322.822256 102.261707 
L 323.590232 101.321457 
L 324.358209 97.342958 
L 325.126185 96.850855 
L 325.894161 95.608137 
L 326.662137 95.215833 
L 327.430113 92.33231 
L 328.198089 89.907261 
L 328.966065 89.243262 
L 329.734042 87.771064 
L 330.502018 85.475421 
L 331.269994 84.715904 
L 332.03797 83.75762 
L 332.805946 83.354406 
L 333.573922 81.259488 
L 334.341898 80.578691 
L 335.109875 78.873696 
L 336.645827 76.499068 
L 337.413803 76.340449 
L 338.181779 75.870403 
L 338.949755 75.870403 
L 339.717731 75.108117 
L 340.485707 74.842118 
L 343.557612 74.799136 
L 344.325588 74.651605 
L 345.093564 74.651605 
L 345.861541 74.131059 
L 348.933445 74.090496 
L 349.701421 73.003479 
L 352.00535 72.96253 
L 354.309278 72.96253 
L 355.077254 72.654895 
L 355.84523 72.619612 
L 356.613206 72.330724 
L 358.149159 72.330724 
L 358.917135 71.702931 
L 359.685111 70.045148 
L 360.453087 70.039895 
L 361.221063 68.958116 
L 362.014639 68.958116 
L 363.524992 68.567568 
L 364.292968 68.567568 
L 365.060944 66.20973 
L 365.82892 66.201445 
L 367.364872 65.744212 
L 368.132849 63.280405 
L 368.900825 63.280405 
L 369.668801 62.404548 
L 370.436777 61.980681 
L 371.204753 60.241926 
L 371.972729 60.045678 
L 372.740705 59.493383 
L 373.508682 59.493383 
L 374.276658 59.215924 
L 375.044634 54.640261 
L 375.81261 54.527758 
L 376.580586 53.566433 
L 377.348562 52.786938 
L 378.116538 52.359127 
L 378.884515 51.765865 
L 379.652491 50.379962 
L 380.420467 50.379962 
L 381.956419 48.58831 
L 382.724395 48.102594 
L 383.492371 47.089224 
L 384.260348 46.78616 
L 385.028324 44.999863 
L 385.7963 44.842886 
L 386.564276 43.972235 
L 387.332252 43.972235 
L 388.113028 42.139615 
L 388.868204 42.139615 
L 389.636181 41.188262 
L 390.404157 40.753544 
L 391.940109 40.753544 
L 392.708085 38.729613 
L 393.476061 38.729613 
L 394.244037 38.543424 
L 395.012014 38.201583 
L 395.77999 38.201583 
L 396.547966 37.774927 
L 398.851894 37.774927 
L 399.61987 37.631335 
L 401.923799 37.631335 
L 402.691775 35.673099 
L 403.459751 35.467273 
L 404.227727 35.467273 
L 404.227727 35.467273 
" clip-path="url(#pc7f6cf7109)" style="fill: none; stroke: #ff7f0e; stroke-width: 1.5; stroke-linecap: square"/>
   </g>
   <g id="line2d_17">
    <path d="M 64.782273 35.467273 
L 65.550249 35.467273 
L 66.318225 35.909042 
L 67.086201 35.909042 
L 67.854177 36.232365 
L 69.39013 45.456075 
L 70.158106 46.439449 
L 70.926082 46.439449 
L 71.694058 47.225205 
L 72.462034 47.620465 
L 73.23001 47.620465 
L 73.997986 48.817262 
L 74.765963 48.817262 
L 75.533939 49.207639 
L 76.301915 49.207639 
L 77.069891 49.511981 
L 79.373819 51.836314 
L 80.141796 52.091677 
L 82.445724 52.366177 
L 83.2137 52.70796 
L 83.981676 54.946362 
L 84.749652 55.123777 
L 85.517629 56.053264 
L 86.285605 56.058238 
L 87.053581 56.652292 
L 87.821557 58.088309 
L 88.589533 58.893349 
L 89.357509 60.701636 
L 90.125485 66.407954 
L 90.893462 67.612124 
L 91.661438 68.439623 
L 92.429414 71.900079 
L 93.19739 74.479456 
L 93.965366 76.008195 
L 94.733342 77.055329 
L 95.501318 78.408563 
L 96.269295 80.227257 
L 97.805247 82.920529 
L 98.573223 83.380752 
L 99.341199 85.356641 
L 100.877151 87.979343 
L 101.645128 91.444461 
L 102.413104 93.310104 
L 103.18108 93.390006 
L 103.949056 95.162963 
L 104.717032 95.431145 
L 105.485008 96.797834 
L 106.252984 96.851121 
L 107.020961 98.736223 
L 107.788937 98.736223 
L 108.556913 100.287595 
L 109.324889 101.161475 
L 110.092865 101.161475 
L 110.860841 103.970145 
L 111.628817 104.706742 
L 112.396793 106.838978 
L 113.16477 107.049913 
L 113.932746 108.052248 
L 114.700722 111.143329 
L 115.468698 111.805036 
L 116.236674 112.019708 
L 117.00465 115.748731 
L 120.076555 117.724493 
L 120.844531 118.475556 
L 121.612507 120.269821 
L 122.380483 122.484295 
L 123.148459 125.877933 
L 123.916436 126.018114 
L 124.684412 128.609119 
L 125.452388 131.613298 
L 126.220364 133.176742 
L 126.98834 135.439379 
L 127.756316 136.245008 
L 129.292269 141.193619 
L 130.060245 141.603123 
L 130.828221 144.528476 
L 131.596197 145.316364 
L 132.364173 148.445615 
L 133.132149 149.218948 
L 133.900125 152.667302 
L 134.668102 154.024088 
L 135.436078 157.982821 
L 136.204054 159.012423 
L 136.97203 161.110863 
L 137.740006 161.353855 
L 140.043935 166.163675 
L 140.811911 166.64861 
L 141.579887 168.167526 
L 142.347863 168.446759 
L 143.883815 171.781639 
L 144.651791 172.591707 
L 145.419768 175.731172 
L 146.187744 176.777039 
L 146.95572 177.117366 
L 147.723696 178.332079 
L 148.491672 179.887439 
L 149.259648 180.472466 
L 150.027624 180.534363 
L 150.795601 182.233007 
L 151.563577 182.669617 
L 152.331553 184.465676 
L 153.099529 184.740664 
L 153.867505 186.234243 
L 154.635481 187.239503 
L 155.403457 187.500598 
L 156.171434 187.966231 
L 156.93941 190.565856 
L 158.475362 192.361201 
L 159.243338 192.361201 
L 160.011314 193.80526 
L 160.77929 194.154249 
L 161.547267 195.648103 
L 162.315243 198.987209 
L 163.083219 200.151067 
L 164.619171 200.644937 
L 165.387147 201.820331 
L 166.155123 202.277631 
L 166.9231 203.527659 
L 168.459052 204.565911 
L 169.227028 205.371044 
L 169.995004 207.266993 
L 170.76298 208.410371 
L 171.530956 208.877442 
L 172.298933 208.976952 
L 173.066909 209.618301 
L 173.834885 211.346866 
L 174.602861 212.284522 
L 175.370837 212.811223 
L 176.138813 213.890547 
L 176.906789 214.599605 
L 177.674766 214.749299 
L 178.442742 214.094837 
L 179.210718 214.941054 
L 179.978694 216.757044 
L 180.74667 217.213791 
L 181.514646 217.397457 
L 182.282622 218.239964 
L 183.818575 218.112395 
L 185.354527 218.177163 
L 186.122503 219.271121 
L 186.890479 219.271121 
L 187.658455 219.412423 
L 189.194408 220.658733 
L 189.962384 220.89242 
L 190.73036 220.843343 
L 192.266312 221.331083 
L 193.034288 222.229392 
L 193.802264 224.599842 
L 194.570241 225.246353 
L 195.338217 225.434482 
L 196.106193 224.74966 
L 196.874169 224.810548 
L 197.642145 225.742937 
L 198.410121 226.934438 
L 199.178098 225.698179 
L 199.946074 226.252417 
L 200.71405 227.224127 
L 201.482026 226.495898 
L 202.250002 227.85771 
L 203.017978 229.596281 
L 203.785954 229.959481 
L 204.55393 231.35613 
L 205.321907 231.918829 
L 206.089883 233.653168 
L 206.857859 233.874074 
L 207.625835 233.429583 
L 208.393811 233.610123 
L 209.161787 232.928227 
L 209.929763 233.767413 
L 210.69774 233.910952 
L 211.465716 233.680121 
L 212.233692 234.044501 
L 213.001668 234.096665 
L 213.769644 233.544715 
L 214.53762 234.087976 
L 215.305596 233.647062 
L 216.073573 233.956814 
L 216.841549 234.603244 
L 217.609525 233.879047 
L 218.377501 233.703619 
L 219.145477 234.54574 
L 219.913453 233.533681 
L 220.681429 233.880373 
L 221.449406 233.735413 
L 222.217382 234.321045 
L 222.985358 233.719425 
L 223.753334 234.350276 
L 224.52131 233.853396 
L 225.289286 233.922027 
L 226.057262 233.344133 
L 226.825239 233.569374 
L 227.593215 232.769944 
L 228.361191 233.651729 
L 229.129167 233.339621 
L 229.897143 233.291798 
L 230.665119 232.520046 
L 232.201072 232.602821 
L 232.969048 232.051419 
L 233.737024 231.916149 
L 234.505 231.194611 
L 235.272976 231.598073 
L 236.040952 233.242188 
L 236.808928 233.493632 
L 237.576905 232.464274 
L 238.344881 232.464274 
L 239.112857 233.096613 
L 239.880833 233.12229 
L 241.416785 232.150752 
L 242.184761 232.880593 
L 242.952738 232.880593 
L 243.720714 232.040182 
L 244.48869 233.464992 
L 245.256666 233.17763 
L 246.024642 233.222446 
L 246.792618 233.493276 
L 247.560594 234.018204 
L 248.328571 233.572409 
L 249.096547 234.291514 
L 249.864523 234.715805 
L 250.632499 234.326355 
L 251.400475 234.529917 
L 252.168451 235.158014 
L 252.936427 235.149267 
L 253.704404 235.018819 
L 254.47238 234.59045 
L 255.240356 235.025257 
L 256.776308 234.522677 
L 257.544284 233.88925 
L 258.31226 234.850754 
L 259.080237 234.287432 
L 260.616189 233.958886 
L 261.384165 234.313576 
L 262.920117 234.321655 
L 264.456069 233.610791 
L 265.224046 233.517469 
L 265.992022 234.09002 
L 266.759998 234.055023 
L 267.527974 235.133928 
L 268.29595 234.439385 
L 269.063926 233.960685 
L 270.599879 234.405812 
L 271.367855 234.409603 
L 272.135831 234.251952 
L 272.903807 233.542123 
L 273.671783 234.42151 
L 274.439759 233.850831 
L 275.207736 233.499908 
L 275.975712 233.663828 
L 276.743688 234.551536 
L 277.511664 235.185566 
L 278.27964 234.653886 
L 279.047616 234.817071 
L 279.815592 234.570589 
L 281.351545 233.753436 
L 282.119521 233.719518 
L 282.887497 233.84822 
L 283.655473 232.707098 
L 284.423449 232.941955 
L 286.727378 233.012023 
L 287.495354 232.708162 
L 289.799282 232.935998 
L 290.567258 232.63219 
L 291.335234 232.080005 
L 292.103211 231.950482 
L 292.871187 232.199139 
L 293.639163 232.147833 
L 294.407139 232.730529 
L 295.175115 232.750188 
L 295.943091 233.359819 
L 296.711067 232.954246 
L 297.479044 233.598412 
L 298.24702 233.586054 
L 299.014996 233.460367 
L 299.782972 233.537948 
L 300.550948 233.070858 
L 301.318924 233.787941 
L 302.0869 233.849313 
L 302.854877 233.244655 
L 303.622853 232.83845 
L 304.390829 233.296613 
L 305.158805 233.606882 
L 305.926781 233.095251 
L 306.694757 233.545313 
L 307.462733 234.132531 
L 308.23071 233.893404 
L 308.998686 234.294434 
L 309.766662 234.127614 
L 310.534638 233.424813 
L 311.302614 234.267642 
L 312.07059 233.405049 
L 312.838566 233.313333 
L 313.606543 233.92889 
L 315.910471 234.217916 
L 317.446423 233.539359 
L 318.214399 233.462333 
L 319.750352 234.009335 
L 320.518328 233.754736 
L 321.286304 233.918605 
L 322.05428 233.884567 
L 322.822256 233.413865 
L 323.590232 233.727282 
L 324.358209 235.156323 
L 325.126185 234.703596 
L 328.966065 235.644723 
L 329.734042 234.172525 
L 330.502018 234.982758 
L 331.269994 234.223241 
L 332.03797 234.379167 
L 332.805946 234.008875 
L 333.573922 234.224535 
L 334.341898 233.543738 
L 335.109875 234.11207 
L 335.877851 234.408296 
L 336.645827 234.830908 
L 337.413803 234.901822 
L 338.181779 234.431776 
L 338.949755 234.431776 
L 339.717731 233.66949 
L 340.485707 233.403491 
L 343.557612 233.360509 
L 344.325588 233.212978 
L 345.093564 233.212978 
L 345.861541 233.386493 
L 348.933445 233.34593 
L 349.701421 233.70827 
L 352.00535 233.667321 
L 354.309278 233.667321 
L 355.077254 233.359686 
L 355.84523 233.324403 
L 356.613206 233.035515 
L 358.149159 233.035515 
L 358.917135 232.407722 
L 359.685111 232.960316 
L 360.453087 232.962067 
L 361.221063 233.32266 
L 364.292968 233.399631 
L 365.060944 234.185578 
L 365.82892 234.210431 
L 366.596896 234.030014 
L 367.364872 234.189529 
L 368.132849 235.010798 
L 368.900825 235.010798 
L 369.668801 234.134941 
L 370.436777 234.27623 
L 371.204753 234.855815 
L 371.972729 234.659568 
L 372.740705 234.107272 
L 373.508682 234.107272 
L 374.276658 233.829813 
L 375.044634 235.355034 
L 376.580586 236.012727 
L 377.348562 235.542293 
L 378.116538 235.684896 
L 378.884515 235.091634 
L 379.652491 235.553602 
L 380.420467 235.553602 
L 381.188443 235.86969 
L 381.956419 235.177529 
L 382.724395 235.339434 
L 383.492371 235.191014 
L 384.260348 235.169395 
L 385.028324 235.701349 
L 385.7963 235.753675 
L 386.564276 234.883024 
L 387.332252 234.883024 
L 388.113028 235.493897 
L 388.868204 235.493897 
L 389.636181 235.811015 
L 390.404157 235.376297 
L 391.940109 235.376297 
L 392.708085 236.012727 
L 394.244037 236.012727 
L 395.012014 235.701881 
L 395.77999 235.701881 
L 396.547966 235.8441 
L 398.851894 235.8441 
L 399.61987 235.700508 
L 401.923799 235.700508 
L 402.691775 236.012727 
L 404.227727 236.012727 
L 404.227727 236.012727 
" clip-path="url(#pc7f6cf7109)" style="fill: none; stroke: #2ca02c; stroke-width: 1.5; stroke-linecap: square"/>
   </g>
   <g id="line2d_18">
    <path d="M 64.782273 236.012727 
L 65.550249 236.012727 
L 66.318225 235.570958 
L 67.086201 235.570958 
L 67.854177 235.247635 
L 68.622153 233.423749 
L 69.39013 231.984998 
L 70.158106 231.657206 
L 70.926082 231.657206 
L 71.694058 231.395288 
L 72.462034 231.263535 
L 73.23001 231.263535 
L 73.997986 230.864602 
L 74.765963 230.864602 
L 75.533939 230.734477 
L 77.069891 230.633029 
L 77.837867 228.16306 
L 78.605843 226.382329 
L 79.373819 226.022749 
L 80.141796 225.25666 
L 80.909772 224.937824 
L 82.445724 224.881751 
L 83.2137 224.767823 
L 83.981676 224.021689 
L 84.749652 223.489442 
L 85.517629 223.179613 
L 86.285605 223.16469 
L 87.053581 221.84115 
L 87.821557 221.362478 
L 88.589533 219.366565 
L 89.357509 217.766039 
L 90.125485 211.220865 
L 90.893462 210.238005 
L 91.661438 209.649281 
L 92.429414 205.55128 
L 93.19739 202.442398 
L 93.965366 201.640725 
L 94.733342 198.954164 
L 95.501318 198.503086 
L 96.269295 195.986734 
L 97.805247 195.088977 
L 98.573223 193.81062 
L 100.109175 189.337808 
L 100.877151 188.921419 
L 102.413104 180.164686 
L 103.18108 179.92498 
L 103.949056 177.930658 
L 104.717032 177.126113 
L 105.485008 176.67055 
L 106.252984 176.51069 
L 107.020961 175.882322 
L 107.788937 175.882322 
L 108.556913 175.365198 
L 109.324889 172.743559 
L 110.092865 172.743559 
L 110.860841 171.807336 
L 111.628817 169.597544 
L 112.396793 168.886799 
L 113.16477 168.816487 
L 113.932746 165.809483 
L 114.700722 164.779122 
L 115.468698 162.794 
L 116.236674 162.149984 
L 117.00465 160.906977 
L 117.772626 159.414852 
L 120.076555 158.922056 
L 120.844531 156.668866 
L 121.612507 156.070778 
L 122.380483 152.051756 
L 123.148459 150.920543 
L 123.916436 150.873817 
L 124.684412 148.341339 
L 125.452388 144.669983 
L 126.98834 140.803987 
L 127.756316 140.595997 
L 128.524292 136.187443 
L 129.292269 135.427654 
L 130.060245 135.624601 
L 130.828221 134.803118 
L 131.596197 132.439457 
L 132.364173 131.396373 
L 133.132149 131.163315 
L 133.900125 130.593763 
L 134.668102 126.974641 
L 135.436078 125.655063 
L 136.204054 122.566257 
L 137.740006 121.137803 
L 138.507982 120.622535 
L 139.275958 118.829407 
L 140.043935 118.113219 
L 140.811911 118.019655 
L 142.347863 116.467577 
L 143.115839 116.307766 
L 143.883815 115.770406 
L 144.651791 115.582966 
L 146.187744 113.107361 
L 146.95572 113.447688 
L 147.723696 113.058118 
L 148.491672 112.539664 
L 149.259648 111.783244 
L 150.027624 111.597554 
L 150.795601 111.12641 
L 151.563577 111.56302 
L 152.331553 111.036716 
L 155.403457 110.929645 
L 156.171434 111.395278 
L 156.93941 110.579437 
L 157.707386 111.269353 
L 158.475362 110.945831 
L 159.243338 110.945831 
L 160.011314 110.464478 
L 160.77929 109.498196 
L 161.547267 107.217117 
L 162.315243 106.362751 
L 163.083219 106.788403 
L 164.619171 107.309436 
L 165.387147 106.968474 
L 166.155123 107.425774 
L 166.9231 107.289318 
L 167.691076 107.748934 
L 168.459052 107.556055 
L 169.227028 107.548855 
L 169.995004 107.226758 
L 170.76298 107.480518 
L 171.530956 107.947589 
L 172.298933 108.047099 
L 173.066909 108.688448 
L 173.834885 108.11226 
L 174.602861 108.051204 
L 175.370837 108.577906 
L 176.138813 108.846711 
L 176.906789 108.610358 
L 177.674766 108.760053 
L 178.442742 110.723442 
L 179.210718 111.052755 
L 179.978694 110.819245 
L 180.74667 111.440621 
L 181.514646 111.379399 
L 183.818575 112.3137 
L 186.890479 112.341246 
L 187.658455 112.482547 
L 188.426431 113.148835 
L 189.194408 112.955494 
L 189.962384 113.189181 
L 190.73036 115.215155 
L 192.266312 115.702894 
L 193.034288 116.316063 
L 193.802264 115.591854 
L 194.570241 116.238365 
L 195.338217 117.16724 
L 196.106193 119.277044 
L 196.874169 120.551393 
L 197.642145 120.572489 
L 198.410121 120.98987 
L 199.178098 124.885471 
L 199.946074 125.439709 
L 200.71405 125.643387 
L 201.482026 127.829525 
L 202.250002 128.84503 
L 203.017978 128.788065 
L 204.55393 130.048512 
L 206.089883 130.903038 
L 206.857859 131.851604 
L 207.625835 134.66148 
L 208.393811 135.973263 
L 209.161787 138.018952 
L 209.929763 139.014614 
L 210.69774 140.295004 
L 211.465716 141.042487 
L 213.001668 144.840856 
L 213.769644 146.804429 
L 214.53762 147.52421 
L 215.305596 149.81239 
L 216.073573 150.405724 
L 216.841549 151.226563 
L 217.609525 153.963244 
L 218.377501 154.489526 
L 219.145477 155.331647 
L 219.913453 158.367825 
L 221.449406 159.149398 
L 222.217382 159.73503 
L 222.985358 161.53989 
L 223.753334 162.170742 
L 224.52131 165.130095 
L 225.289286 166.459942 
L 226.057262 168.377142 
L 226.825239 169.749682 
L 227.593215 172.147971 
L 228.361191 173.029756 
L 229.129167 174.414609 
L 229.897143 175.460391 
L 230.665119 177.775646 
L 232.201072 178.00174 
L 232.969048 179.655946 
L 233.737024 180.133412 
L 234.505 182.298025 
L 235.272976 185.466973 
L 236.040952 187.111089 
L 236.808928 187.70998 
L 237.576905 190.798053 
L 238.344881 190.798053 
L 239.112857 191.430392 
L 239.880833 191.456069 
L 241.416785 194.370682 
L 242.184761 195.100523 
L 242.952738 195.100523 
L 243.720714 197.621757 
L 244.48869 199.046568 
L 245.256666 201.036087 
L 246.024642 201.17376 
L 246.792618 201.44459 
L 247.560594 201.969518 
L 248.328571 203.306906 
L 249.096547 205.001732 
L 249.864523 205.426022 
L 250.632499 206.594371 
L 251.400475 208.263715 
L 252.168451 208.891813 
L 252.936427 209.89041 
L 253.704404 210.281754 
L 254.47238 211.566862 
L 255.240356 212.001668 
L 256.008332 212.641679 
L 256.776308 213.509408 
L 257.544284 215.409688 
L 258.31226 216.371192 
L 259.080237 218.061157 
L 259.848213 218.720616 
L 260.616189 219.046795 
L 261.384165 219.67667 
L 262.152141 219.715754 
L 262.920117 221.730144 
L 264.456069 223.862735 
L 265.224046 224.630495 
L 265.992022 225.906351 
L 266.759998 226.011342 
L 267.527974 227.090246 
L 268.29595 229.173875 
L 269.063926 230.609976 
L 269.831902 230.808622 
L 270.599879 232.428135 
L 271.367855 232.431926 
L 272.903807 232.939491 
L 273.671783 233.818878 
L 274.439759 233.596253 
L 275.207736 233.24533 
L 275.975712 233.40925 
L 276.743688 234.296959 
L 277.511664 234.930989 
L 278.27964 234.399309 
L 279.047616 234.562494 
L 279.815592 234.316011 
L 280.583568 233.909954 
L 281.351545 234.249095 
L 282.119521 234.45589 
L 282.887497 234.979461 
L 283.655473 233.972161 
L 284.423449 234.207017 
L 286.727378 234.277085 
L 287.495354 234.022959 
L 289.799282 234.256686 
L 290.567258 233.952878 
L 291.335234 233.400694 
L 292.103211 233.271171 
L 292.871187 233.519827 
L 293.639163 233.468521 
L 294.407139 234.051217 
L 295.175115 234.070876 
L 295.943091 234.680507 
L 296.711067 234.274934 
L 297.479044 234.919101 
L 298.24702 234.906742 
L 299.014996 234.781056 
L 299.782972 234.858636 
L 300.550948 234.391546 
L 301.318924 235.108629 
L 302.0869 235.170002 
L 302.854877 234.565344 
L 303.622853 234.159138 
L 304.390829 234.617301 
L 305.158805 234.92757 
L 305.926781 234.41594 
L 307.462733 235.343875 
L 308.23071 235.104748 
L 308.998686 235.505778 
L 309.766662 235.338959 
L 310.534638 234.636157 
L 311.302614 235.478987 
L 312.07059 234.616394 
L 312.838566 234.524678 
L 313.606543 235.140234 
L 315.910471 235.429261 
L 317.446423 234.750703 
L 318.214399 234.673678 
L 319.750352 235.174362 
L 320.518328 234.919763 
L 321.286304 235.083632 
L 322.05428 235.049594 
L 322.822256 234.578893 
L 323.590232 234.892309 
L 324.358209 236.012727 
L 325.126185 235.868623 
L 325.894161 236.012727 
L 328.966065 236.012727 
L 329.734042 235.337552 
L 330.502018 236.012727 
L 331.269994 235.388268 
L 332.03797 235.544194 
L 332.805946 235.173902 
L 333.573922 235.389562 
L 334.341898 234.708765 
L 335.109875 235.277097 
L 335.877851 235.573323 
L 336.645827 235.995935 
L 337.413803 236.012727 
L 338.181779 235.596803 
L 338.949755 235.596803 
L 339.717731 234.834517 
L 340.485707 234.568518 
L 343.557612 234.525536 
L 344.325588 234.378005 
L 345.093564 234.378005 
L 345.861541 234.55152 
L 348.933445 234.510957 
L 349.701421 234.873297 
L 352.00535 234.832348 
L 354.309278 234.832348 
L 355.077254 234.524713 
L 355.84523 234.48943 
L 356.613206 234.200542 
L 358.149159 234.200542 
L 358.917135 233.572749 
L 359.685111 234.125343 
L 360.453087 234.127094 
L 361.221063 234.487687 
L 362.757016 234.545986 
L 363.524992 234.330335 
L 364.292968 234.330335 
L 365.060944 235.116281 
L 365.82892 235.107997 
L 367.364872 234.650764 
L 368.132849 235.472033 
L 368.900825 235.472033 
L 369.668801 234.596175 
L 370.436777 234.737464 
L 371.204753 235.317049 
L 371.972729 235.120802 
L 372.740705 234.568507 
L 373.508682 234.568507 
L 374.276658 234.291047 
L 375.044634 235.816268 
L 375.81261 235.703766 
L 376.580586 236.012727 
L 377.348562 235.256449 
L 378.116538 235.399052 
L 378.884515 234.80579 
L 379.652491 235.267758 
L 380.420467 235.267758 
L 381.188443 235.583846 
L 381.956419 234.740459 
L 382.724395 234.902365 
L 383.492371 234.607289 
L 384.260348 234.585669 
L 385.028324 235.117623 
L 385.7963 235.169949 
L 386.564276 234.299298 
L 387.332252 234.299298 
L 388.113028 234.910171 
L 388.868204 234.910171 
L 389.636181 235.227289 
L 390.404157 234.792571 
L 391.940109 234.792571 
L 392.708085 235.486321 
L 393.476061 235.486321 
L 394.244037 235.300132 
L 395.012014 234.958291 
L 395.77999 234.958291 
L 396.547966 235.10051 
L 401.923799 235.066355 
L 402.691775 235.889364 
L 403.459751 236.012727 
L 404.227727 236.012727 
L 404.227727 236.012727 
" clip-path="url(#pc7f6cf7109)" style="fill: none; stroke: #d62728; stroke-width: 1.5; stroke-linecap: square"/>
   </g>
   <g id="patch_3">
    <path d="M 47.81 246.04 
L 47.81 25.44 
" style="fill: none; stroke: #000000; stroke-width: 0.8; stroke-linejoin: miter; stroke-linecap: square"/>
   </g>
   <g id="patch_4">
    <path d="M 421.2 246.04 
L 421.2 25.44 
" style="fill: none; stroke: #000000; stroke-width: 0.8; stroke-linejoin: miter; stroke-linecap: square"/>
   </g>
   <g id="patch_5">
    <path d="M 47.81 246.04 
L 421.2 246.04 
" style="fill: none; stroke: #000000; stroke-width: 0.8; stroke-linejoin: miter; stroke-linecap: square"/>
   </g>
   <g id="patch_6">
    <path d="M 47.81 25.44 
L 421.2 25.44 
" style="fill: none; stroke: #000000; stroke-width: 0.8; stroke-linejoin: miter; stroke-linecap: square"/>
   </g>
   <g id="text_17">
    <!-- Concentration Profiles with Conflicting Constraints -->
    <g transform="translate(83.65375 19.44) scale(0.12 -0.12)">
     <defs>
      <path id="DejaVuSans-43" d="M 4122 4306 
L 4122 3641 
Q 3803 3938 3442 4084 
Q 3081 4231 2675 4231 
Q 1875 4231 1450 3742 
Q 1025 3253 1025 2328 
Q 1025 1406 1450 917 
Q 1875 428 2675 428 
Q 3081 428 3442 575 
Q 3803 722 4122 1019 
L 4122 359 
Q 3791 134 3420 21 
Q 3050 -91 2638 -91 
Q 1578 -91 968 557 
Q 359 1206 359 2328 
Q 359 3453 968 4101 
Q 1578 4750 2638 4750 
Q 3056 4750 3426 4639 
Q 3797 4528 4122 4306 
z
" transform="scale(0.015625)"/>
      <path id="DejaVuSans-50" d="M 1259 4147 
L 1259 2394 
L 2053 2394 
Q 2494 2394 2734 2622 
Q 2975 2850 2975 3272 
Q 2975 3691 2734 3919 
Q 2494 4147 2053 4147 
L 1259 4147 
z
M 628 4666 
L 2053 4666 
Q 2838 4666 3239 4311 
Q 3641 3956 3641 3272 
Q 3641 2581 3239 2228 
Q 2838 1875 2053 1875 
L 1259 1875 
L 1259 0 
L 628 0 
L 628 4666 
z
" transform="scale(0.015625)"/>
      <path id="DejaVuSans-73" d="M 2834 3397 
L 2834 2853 
Q 2591 2978 2328 3040 
Q 2066 3103 1784 3103 
Q 1356 3103 1142 2972 
Q 928 2841 928 2578 
Q 928 2378 1081 2264 
Q 1234 2150 1697 2047 
L 1894 2003 
Q 2506 1872 2764 1633 
Q 3022 1394 3022 966 
Q 3022 478 2636 193 
Q 2250 -91 1575 -91 
Q 1294 -91 989 -36 
Q 684 19 347 128 
L 347 722 
Q 666 556 975 473 
Q 1284 391 1588 391 
Q 1994 391 2212 530 
Q 2431 669 2431 922 
Q 2431 1156 2273 1281 
Q 2116 1406 1581 1522 
L 1381 1569 
Q 847 1681 609 1914 
Q 372 2147 372 2553 
Q 372 3047 722 3315 
Q 1072 3584 1716 3584 
Q 2034 3584 2315 3537 
Q 2597 3491 2834 3397 
z
" transform="scale(0.015625)"/>
      <path id="DejaVuSans-77" d="M 269 3500 
L 844 3500 
L 1563 769 
L 2278 3500 
L 2956 3500 
L 3675 769 
L 4391 3500 
L 4966 3500 
L 4050 0 
L 3372 0 
L 2619 2869 
L 1863 0 
L 1184 0 
L 269 3500 
z
" transform="scale(0.015625)"/>
      <path id="DejaVuSans-67" d="M 2906 1791 
Q 2906 2416 2648 2759 
Q 2391 3103 1925 3103 
Q 1463 3103 1205 2759 
Q 947 2416 947 1791 
Q 947 1169 1205 825 
Q 1463 481 1925 481 
Q 2391 481 2648 825 
Q 2906 1169 2906 1791 
z
M 3481 434 
Q 3481 -459 3084 -895 
Q 2688 -1331 1869 -1331 
Q 1566 -1331 1297 -1286 
Q 1028 -1241 775 -1147 
L 775 -588 
Q 1028 -725 1275 -790 
Q 1522 -856 1778 -856 
Q 2344 -856 2625 -561 
Q 2906 -266 2906 331 
L 2906 616 
Q 2728 306 2450 153 
Q 2172 0 1784 0 
Q 1141 0 747 490 
Q 353 981 353 1791 
Q 353 2603 747 3093 
Q 1141 3584 1784 3584 
Q 2172 3584 2450 3431 
Q 2728 3278 2906 2969 
L 2906 3500 
L 3481 3500 
L 3481 434 
z
" transform="scale(0.015625)"/>
     </defs>
     <use xlink:href="#DejaVuSans-43"/>
     <use xlink:href="#DejaVuSans-6f" transform="translate(69.824219 0)"/>
     <use xlink:href="#DejaVuSans-6e" transform="translate(131.005859 0)"/>
     <use xlink:href="#DejaVuSans-63" transform="translate(194.384766 0)"/>
     <use xlink:href="#DejaVuSans-65" transform="translate(249.365234 0)"/>
     <use xlink:href="#DejaVuSans-6e" transform="translate(310.888672 0)"/>
     <use xlink:href="#DejaVuSans-74" transform="translate(374.267578 0)"/>
     <use xlink:href="#DejaVuSans-72" transform="translate(413.476562 0)"/>
     <use xlink:href="#DejaVuSans-61" transform="translate(454.589844 0)"/>
     <use xlink:href="#DejaVuSans-74" transform="translate(515.869141 0)"/>
     <use xlink:href="#DejaVuSans-69" transform="translate(555.078125 0)"/>
     <use xlink:href="#DejaVuSans-6f" transform="translate(582.861328 0)"/>
     <use xlink:href="#DejaVuSans-6e" transform="translate(644.042969 0)"/>
     <use xlink:href="#DejaVuSans-20" transform="translate(707.421875 0)"/>
     <use xlink:href="#DejaVuSans-50" transform="translate(739.208984 0)"/>
     <use xlink:href="#DejaVuSans-72" transform="translate(797.761719 0)"/>
     <use xlink:href="#DejaVuSans-6f" transform="translate(836.625 0)"/>
     <use xlink:href="#DejaVuSans-66" transform="translate(897.806641 0)"/>
     <use xlink:href="#DejaVuSans-69" transform="translate(933.011719 0)"/>
     <use xlink:href="#DejaVuSans-6c" transform="translate(960.794922 0)"/>
     <use xlink:href="#DejaVuSans-65" transform="translate(988.578125 0)"/>
     <use xlink:href="#DejaVuSans-73" transform="translate(1050.101562 0)"/>
     <use xlink:href="#DejaVuSans-20" transform="translate(1102.201172 0)"/>
     <use xlink:href="#DejaVuSans-77" transform="translate(1133.988281 0)"/>
     <use xlink:href="#DejaVuSans-69" transform="translate(1215.775391 0)"/>
     <use xlink:href="#DejaVuSans-74" transform="translate(1243.558594 0)"/>
     <use xlink:href="#DejaVuSans-68" transform="translate(1282.767578 0)"/>
     <use xlink:href="#DejaVuSans-20" transform="translate(1346.146484 0)"/>
     <use xlink:href="#DejaVuSans-43" transform="translate(1377.933594 0)"/>
     <use xlink:href="#DejaVuSans-6f" transform="translate(1447.757812 0)"/>
     <use xlink:href="#DejaVuSans-6e" transform="translate(1508.939453 0)"/>
     <use xlink:href="#DejaVuSans-66" transform="translate(1572.318359 0)"/>
     <use xlink:href="#DejaVuSans-6c" transform="translate(1607.523438 0)"/>
     <use xlink:href="#DejaVuSans-69" transform="translate(1635.306641 0)"/>
     <use xlink:href="#DejaVuSans-63" transform="translate(1663.089844 0)"/>
     <use xlink:href="#DejaVuSans-74" transform="translate(1718.070312 0)"/>
     <use xlink:href="#DejaVuSans-69" transform="translate(1757.279297 0)"/>
     <use xlink:href="#DejaVuSans-6e" transform="translate(1785.0625 0)"/>
     <use xlink:href="#DejaVuSans-67" transform="translate(1848.441406 0)"/>
     <use xlink:href="#DejaVuSans-20" transform="translate(1911.917969 0)"/>
     <use xlink:href="#DejaVuSans-43" transform="translate(1943.705078 0)"/>
     <use xlink:href="#DejaVuSans-6f" transform="translate(2013.529297 0)"/>
     <use xlink:href="#DejaVuSans-6e" transform="translate(2074.710938 0)"/>
     <use xlink:href="#DejaVuSans-73" transform="translate(2138.089844 0)"/>
     <use xlink:href="#DejaVuSans-74" transform="translate(2190.189453 0)"/>
     <use xlink:href="#DejaVuSans-72" transform="translate(2229.398438 0)"/>
     <use xlink:href="#DejaVuSans-61" transform="translate(2270.511719 0)"/>
     <use xlink:href="#DejaVuSans-69" transform="translate(2331.791016 0)"/>
     <use xlink:href="#DejaVuSans-6e" transform="translate(2359.574219 0)"/>
     <use xlink:href="#DejaVuSans-74" transform="translate(2422.953125 0)"/>
     <use xlink:href="#DejaVuSans-73" transform="translate(2462.162109 0)"/>
    </g>
   </g>
   <g id="legend_1">
    <g id="patch_7">
     <path d="M 352.142187 173.935313 
L 414.2 173.935313 
Q 416.2 173.935313 416.2 171.935313 
L 416.2 99.544688 
Q 416.2 97.544688 414.2 97.544688 
L 352.142187 97.544688 
Q 350.142187 97.544688 350.142187 99.544688 
L 350.142187 171.935313 
Q 350.142187 173.935313 352.142187 173.935313 
z
" style="fill: #ffffff; opacity: 0.8; stroke: #cccccc; stroke-linejoin: miter"/>
    </g>
    <g id="text_18">
     <!-- Component -->
     <g transform="translate(354.142187 109.143125) scale(0.1 -0.1)">
      <defs>
       <path id="DejaVuSans-70" d="M 1159 525 
L 1159 -1331 
L 581 -1331 
L 581 3500 
L 1159 3500 
L 1159 2969 
Q 1341 3281 1617 3432 
Q 1894 3584 2278 3584 
Q 2916 3584 3314 3078 
Q 3713 2572 3713 1747 
Q 3713 922 3314 415 
Q 2916 -91 2278 -91 
Q 1894 -91 1617 61 
Q 1341 213 1159 525 
z
M 3116 1747 
Q 3116 2381 2855 2742 
Q 2594 3103 2138 3103 
Q 1681 3103 1420 2742 
Q 1159 2381 1159 1747 
Q 1159 1113 1420 752 
Q 1681 391 2138 391 
Q 2594 391 2855 752 
Q 3116 1113 3116 1747 
z
" transform="scale(0.015625)"/>
      </defs>
      <use xlink:href="#DejaVuSans-43"/>
      <use xlink:href="#DejaVuSans-6f" transform="translate(69.824219 0)"/>
      <use xlink:href="#DejaVuSans-6d" transform="translate(131.005859 0)"/>
      <use xlink:href="#DejaVuSans-70" transform="translate(228.417969 0)"/>
      <use xlink:href="#DejaVuSans-6f" transform="translate(291.894531 0)"/>
      <use xlink:href="#DejaVuSans-6e" transform="translate(353.076172 0)"/>
      <use xlink:href="#DejaVuSans-65" transform="translate(416.455078 0)"/>
      <use xlink:href="#DejaVuSans-6e" transform="translate(477.978516 0)"/>
      <use xlink:href="#DejaVuSans-74" transform="translate(541.357422 0)"/>
     </g>
    </g>
    <g id="line2d_19">
     <path d="M 365.989844 120.32125 
L 375.989844 120.32125 
L 385.989844 120.32125 
" style="fill: none; stroke: #1f77b4; stroke-width: 1.5; stroke-linecap: square"/>
    </g>
    <g id="text_19">
     <!-- 0 -->
     <g transform="translate(393.989844 123.82125) scale(0.1 -0.1)">
      <use xlink:href="#DejaVuSans-30"/>
     </g>
    </g>
    <g id="line2d_20">
     <path d="M 365.989844 134.999375 
L 375.989844 134.999375 
L 385.989844 134.999375 
" style="fill: none; stroke: #ff7f0e; stroke-width: 1.5; stroke-linecap: square"/>
    </g>
    <g id="text_20">
     <!-- 1 -->
     <g transform="translate(393.989844 138.499375) scale(0.1 -0.1)">
      <use xlink:href="#DejaVuSans-31"/>
     </g>
    </g>
    <g id="line2d_21">
     <path d="M 365.989844 149.6775 
L 375.989844 149.6775 
L 385.989844 149.6775 
" style="fill: none; stroke: #2ca02c; stroke-width: 1.5; stroke-linecap: square"/>
    </g>
    <g id="text_21">
     <!-- 2 -->
     <g transform="translate(393.989844 153.1775) scale(0.1 -0.1)">
      <use xlink:href="#DejaVuSans-32"/>
     </g>
    </g>
    <g id="line2d_22">
     <path d="M 365.989844 164.355625 
L 375.989844 164.355625 
L 385.989844 164.355625 
" style="fill: none; stroke: #d62728; stroke-width: 1.5; stroke-linecap: square"/>
    </g>
    <g id="text_22">
     <!-- 3 -->
     <g transform="translate(393.989844 167.855625) scale(0.1 -0.1)">
      <use xlink:href="#DejaVuSans-33"/>
     </g>
    </g>
   </g>
  </g>
 </g>
 <defs>
  <clipPath id="pc7f6cf7109">
   <rect x="47.81" y="25.44" width="373.39" height="220.6"/>
  </clipPath>
 </defs>
</svg>
