<?xml version="1.0" encoding="utf-8" standalone="no"?>
<!DOCTYPE svg PUBLIC "-//W3C//DTD SVG 1.1//EN"
  "http://www.w3.org/Graphics/SVG/1.1/DTD/svg11.dtd">
<svg xmlns:xlink="http://www.w3.org/1999/xlink" width="432pt" height="288pt" viewBox="0 0 432 288" xmlns="http://www.w3.org/2000/svg" version="1.1">
 <metadata>
  <rdf:RDF xmlns:dc="http://purl.org/dc/elements/1.1/" xmlns:cc="http://creativecommons.org/ns#" xmlns:rdf="http://www.w3.org/1999/02/22-rdf-syntax-ns#">
   <cc:Work>
    <dc:type rdf:resource="http://purl.org/dc/dcmitype/StillImage"/>
    <dc:date>2025-06-18T11:30:46.876331</dc:date>
    <dc:format>image/svg+xml</dc:format>
    <dc:creator>
     <cc:Agent>
      <dc:title>Matplotlib v3.10.1, https://matplotlib.org/</dc:title>
     </cc:Agent>
    </dc:creator>
   </cc:Work>
  </rdf:RDF>
 </metadata>
 <defs>
  <style type="text/css">*{stroke-linejoin: round; stroke-linecap: butt}</style>
 </defs>
 <g id="figure_1">
  <g id="patch_1">
   <path d="M 0 288 
L 432 288 
L 432 0 
L 0 0 
z
" style="fill: #ffffff"/>
  </g>
  <g id="axes_1">
   <g id="patch_2">
    <path d="M 47.81 246.04 
L 421.2 246.04 
L 421.2 25.44 
L 47.81 25.44 
z
" style="fill: #ffffff"/>
   </g>
   <g id="PathCollection_1">
    <defs>
     <path id="m51a51c30ed" d="M 0 3 
C 0.795609 3 1.55874 2.683901 2.12132 2.12132 
C 2.683901 1.55874 3 0.795609 3 0 
C 3 -0.795609 2.683901 -1.55874 2.12132 -2.12132 
C 1.55874 -2.683901 0.795609 -3 0 -3 
C -0.795609 -3 -1.55874 -2.683901 -2.12132 -2.12132 
C -2.683901 -1.55874 -3 -0.795609 -3 0 
C -3 0.795609 -2.683901 1.55874 -2.12132 2.12132 
C -1.55874 2.683901 -0.795609 3 0 3 
z
" style="stroke: #1f77b4; stroke-opacity: 0.7"/>
    </defs>
    <g clip-path="url(#p191c671a67)">
     <use xlink:href="#m51a51c30ed" x="64.782273" y="236.012727" style="fill: #1f77b4; fill-opacity: 0.7; stroke: #1f77b4; stroke-opacity: 0.7"/>
     <use xlink:href="#m51a51c30ed" x="404.227727" y="236.012727" style="fill: #1f77b4; fill-opacity: 0.7; stroke: #1f77b4; stroke-opacity: 0.7"/>
    </g>
   </g>
   <g id="PathCollection_2">
    <defs>
     <path id="m831c9c8fb6" d="M 0 3 
C 0.795609 3 1.55874 2.683901 2.12132 2.12132 
C 2.683901 1.55874 3 0.795609 3 0 
C 3 -0.795609 2.683901 -1.55874 2.12132 -2.12132 
C 1.55874 -2.683901 0.795609 -3 0 -3 
C -0.795609 -3 -1.55874 -2.683901 -2.12132 -2.12132 
C -2.683901 -1.55874 -3 -0.795609 -3 0 
C -3 0.795609 -2.683901 1.55874 -2.12132 2.12132 
C -1.55874 2.683901 -0.795609 3 0 3 
z
" style="stroke: #ff7f0e; stroke-opacity: 0.7"/>
    </defs>
    <g clip-path="url(#p191c671a67)">
     <use xlink:href="#m831c9c8fb6" x="64.782273" y="236.012727" style="fill: #ff7f0e; fill-opacity: 0.7; stroke: #ff7f0e; stroke-opacity: 0.7"/>
     <use xlink:href="#m831c9c8fb6" x="404.227727" y="63.543636" style="fill: #ff7f0e; fill-opacity: 0.7; stroke: #ff7f0e; stroke-opacity: 0.7"/>
    </g>
   </g>
   <g id="PathCollection_3">
    <defs>
     <path id="m5238761cf9" d="M 0 3 
C 0.795609 3 1.55874 2.683901 2.12132 2.12132 
C 2.683901 1.55874 3 0.795609 3 0 
C 3 -0.795609 2.683901 -1.55874 2.12132 -2.12132 
C 1.55874 -2.683901 0.795609 -3 0 -3 
C -0.795609 -3 -1.55874 -2.683901 -2.12132 -2.12132 
C -2.683901 -1.55874 -3 -0.795609 -3 0 
C -3 0.795609 -2.683901 1.55874 -2.12132 2.12132 
C -1.55874 2.683901 -0.795609 3 0 3 
z
" style="stroke: #2ca02c; stroke-opacity: 0.7"/>
    </defs>
    <g clip-path="url(#p191c671a67)">
     <use xlink:href="#m5238761cf9" x="64.782273" y="35.467273" style="fill: #2ca02c; fill-opacity: 0.7; stroke: #2ca02c; stroke-opacity: 0.7"/>
     <use xlink:href="#m5238761cf9" x="404.227727" y="236.012727" style="fill: #2ca02c; fill-opacity: 0.7; stroke: #2ca02c; stroke-opacity: 0.7"/>
    </g>
   </g>
   <g id="PathCollection_4">
    <defs>
     <path id="m83b5affa73" d="M 0 3 
C 0.795609 3 1.55874 2.683901 2.12132 2.12132 
C 2.683901 1.55874 3 0.795609 3 0 
C 3 -0.795609 2.683901 -1.55874 2.12132 -2.12132 
C 1.55874 -2.683901 0.795609 -3 0 -3 
C -0.795609 -3 -1.55874 -2.683901 -2.12132 -2.12132 
C -2.683901 -1.55874 -3 -0.795609 -3 0 
C -3 0.795609 -2.683901 1.55874 -2.12132 2.12132 
C -1.55874 2.683901 -0.795609 3 0 3 
z
" style="stroke: #d62728; stroke-opacity: 0.7"/>
    </defs>
    <g clip-path="url(#p191c671a67)">
     <use xlink:href="#m83b5affa73" x="64.782273" y="236.012727" style="fill: #d62728; fill-opacity: 0.7; stroke: #d62728; stroke-opacity: 0.7"/>
     <use xlink:href="#m83b5affa73" x="404.227727" y="236.012727" style="fill: #d62728; fill-opacity: 0.7; stroke: #d62728; stroke-opacity: 0.7"/>
    </g>
   </g>
   <g id="matplotlib.axis_1">
    <g id="xtick_1">
     <g id="line2d_1">
      <defs>
       <path id="m4da9ef8992" d="M 0 0 
L 0 3.5 
" style="stroke: #000000; stroke-width: 0.8"/>
      </defs>
      <g>
       <use xlink:href="#m4da9ef8992" x="64.782273" y="246.04" style="stroke: #000000; stroke-width: 0.8"/>
      </g>
     </g>
     <g id="text_1">
      <!-- 0 -->
      <g transform="translate(61.601023 260.638438) scale(0.1 -0.1)">
       <defs>
        <path id="DejaVuSans-30" d="M 2034 4250 
Q 1547 4250 1301 3770 
Q 1056 3291 1056 2328 
Q 1056 1369 1301 889 
Q 1547 409 2034 409 
Q 2525 409 2770 889 
Q 3016 1369 3016 2328 
Q 3016 3291 2770 3770 
Q 2525 4250 2034 4250 
z
M 2034 4750 
Q 2819 4750 3233 4129 
Q 3647 3509 3647 2328 
Q 3647 1150 3233 529 
Q 2819 -91 2034 -91 
Q 1250 -91 836 529 
Q 422 1150 422 2328 
Q 422 3509 836 4129 
Q 1250 4750 2034 4750 
z
" transform="scale(0.015625)"/>
       </defs>
       <use xlink:href="#DejaVuSans-30"/>
      </g>
     </g>
    </g>
    <g id="xtick_2">
     <g id="line2d_2">
      <g>
       <use xlink:href="#m4da9ef8992" x="110.860841" y="246.04" style="stroke: #000000; stroke-width: 0.8"/>
      </g>
     </g>
     <g id="text_2">
      <!-- 1 -->
      <g transform="translate(107.679591 260.638438) scale(0.1 -0.1)">
       <defs>
        <path id="DejaVuSans-31" d="M 794 531 
L 1825 531 
L 1825 4091 
L 703 3866 
L 703 4441 
L 1819 4666 
L 2450 4666 
L 2450 531 
L 3481 531 
L 3481 0 
L 794 0 
L 794 531 
z
" transform="scale(0.015625)"/>
       </defs>
       <use xlink:href="#DejaVuSans-31"/>
      </g>
     </g>
    </g>
    <g id="xtick_3">
     <g id="line2d_3">
      <g>
       <use xlink:href="#m4da9ef8992" x="156.93941" y="246.04" style="stroke: #000000; stroke-width: 0.8"/>
      </g>
     </g>
     <g id="text_3">
      <!-- 2 -->
      <g transform="translate(153.75816 260.638438) scale(0.1 -0.1)">
       <defs>
        <path id="DejaVuSans-32" d="M 1228 531 
L 3431 531 
L 3431 0 
L 469 0 
L 469 531 
Q 828 903 1448 1529 
Q 2069 2156 2228 2338 
Q 2531 2678 2651 2914 
Q 2772 3150 2772 3378 
Q 2772 3750 2511 3984 
Q 2250 4219 1831 4219 
Q 1534 4219 1204 4116 
Q 875 4013 500 3803 
L 500 4441 
Q 881 4594 1212 4672 
Q 1544 4750 1819 4750 
Q 2544 4750 2975 4387 
Q 3406 4025 3406 3419 
Q 3406 3131 3298 2873 
Q 3191 2616 2906 2266 
Q 2828 2175 2409 1742 
Q 1991 1309 1228 531 
z
" transform="scale(0.015625)"/>
       </defs>
       <use xlink:href="#DejaVuSans-32"/>
      </g>
     </g>
    </g>
    <g id="xtick_4">
     <g id="line2d_4">
      <g>
       <use xlink:href="#m4da9ef8992" x="203.017978" y="246.04" style="stroke: #000000; stroke-width: 0.8"/>
      </g>
     </g>
     <g id="text_4">
      <!-- 3 -->
      <g transform="translate(199.836728 260.638438) scale(0.1 -0.1)">
       <defs>
        <path id="DejaVuSans-33" d="M 2597 2516 
Q 3050 2419 3304 2112 
Q 3559 1806 3559 1356 
Q 3559 666 3084 287 
Q 2609 -91 1734 -91 
Q 1441 -91 1130 -33 
Q 819 25 488 141 
L 488 750 
Q 750 597 1062 519 
Q 1375 441 1716 441 
Q 2309 441 2620 675 
Q 2931 909 2931 1356 
Q 2931 1769 2642 2001 
Q 2353 2234 1838 2234 
L 1294 2234 
L 1294 2753 
L 1863 2753 
Q 2328 2753 2575 2939 
Q 2822 3125 2822 3475 
Q 2822 3834 2567 4026 
Q 2313 4219 1838 4219 
Q 1578 4219 1281 4162 
Q 984 4106 628 3988 
L 628 4550 
Q 988 4650 1302 4700 
Q 1616 4750 1894 4750 
Q 2613 4750 3031 4423 
Q 3450 4097 3450 3541 
Q 3450 3153 3228 2886 
Q 3006 2619 2597 2516 
z
" transform="scale(0.015625)"/>
       </defs>
       <use xlink:href="#DejaVuSans-33"/>
      </g>
     </g>
    </g>
    <g id="xtick_5">
     <g id="line2d_5">
      <g>
       <use xlink:href="#m4da9ef8992" x="249.096547" y="246.04" style="stroke: #000000; stroke-width: 0.8"/>
      </g>
     </g>
     <g id="text_5">
      <!-- 4 -->
      <g transform="translate(245.915297 260.638438) scale(0.1 -0.1)">
       <defs>
        <path id="DejaVuSans-34" d="M 2419 4116 
L 825 1625 
L 2419 1625 
L 2419 4116 
z
M 2253 4666 
L 3047 4666 
L 3047 1625 
L 3713 1625 
L 3713 1100 
L 3047 1100 
L 3047 0 
L 2419 0 
L 2419 1100 
L 313 1100 
L 313 1709 
L 2253 4666 
z
" transform="scale(0.015625)"/>
       </defs>
       <use xlink:href="#DejaVuSans-34"/>
      </g>
     </g>
    </g>
    <g id="xtick_6">
     <g id="line2d_6">
      <g>
       <use xlink:href="#m4da9ef8992" x="295.175115" y="246.04" style="stroke: #000000; stroke-width: 0.8"/>
      </g>
     </g>
     <g id="text_6">
      <!-- 5 -->
      <g transform="translate(291.993865 260.638438) scale(0.1 -0.1)">
       <defs>
        <path id="DejaVuSans-35" d="M 691 4666 
L 3169 4666 
L 3169 4134 
L 1269 4134 
L 1269 2991 
Q 1406 3038 1543 3061 
Q 1681 3084 1819 3084 
Q 2600 3084 3056 2656 
Q 3513 2228 3513 1497 
Q 3513 744 3044 326 
Q 2575 -91 1722 -91 
Q 1428 -91 1123 -41 
Q 819 9 494 109 
L 494 744 
Q 775 591 1075 516 
Q 1375 441 1709 441 
Q 2250 441 2565 725 
Q 2881 1009 2881 1497 
Q 2881 1984 2565 2268 
Q 2250 2553 1709 2553 
Q 1456 2553 1204 2497 
Q 953 2441 691 2322 
L 691 4666 
z
" transform="scale(0.015625)"/>
       </defs>
       <use xlink:href="#DejaVuSans-35"/>
      </g>
     </g>
    </g>
    <g id="xtick_7">
     <g id="line2d_7">
      <g>
       <use xlink:href="#m4da9ef8992" x="341.253684" y="246.04" style="stroke: #000000; stroke-width: 0.8"/>
      </g>
     </g>
     <g id="text_7">
      <!-- 6 -->
      <g transform="translate(338.072434 260.638438) scale(0.1 -0.1)">
       <defs>
        <path id="DejaVuSans-36" d="M 2113 2584 
Q 1688 2584 1439 2293 
Q 1191 2003 1191 1497 
Q 1191 994 1439 701 
Q 1688 409 2113 409 
Q 2538 409 2786 701 
Q 3034 994 3034 1497 
Q 3034 2003 2786 2293 
Q 2538 2584 2113 2584 
z
M 3366 4563 
L 3366 3988 
Q 3128 4100 2886 4159 
Q 2644 4219 2406 4219 
Q 1781 4219 1451 3797 
Q 1122 3375 1075 2522 
Q 1259 2794 1537 2939 
Q 1816 3084 2150 3084 
Q 2853 3084 3261 2657 
Q 3669 2231 3669 1497 
Q 3669 778 3244 343 
Q 2819 -91 2113 -91 
Q 1303 -91 875 529 
Q 447 1150 447 2328 
Q 447 3434 972 4092 
Q 1497 4750 2381 4750 
Q 2619 4750 2861 4703 
Q 3103 4656 3366 4563 
z
" transform="scale(0.015625)"/>
       </defs>
       <use xlink:href="#DejaVuSans-36"/>
      </g>
     </g>
    </g>
    <g id="xtick_8">
     <g id="line2d_8">
      <g>
       <use xlink:href="#m4da9ef8992" x="387.332252" y="246.04" style="stroke: #000000; stroke-width: 0.8"/>
      </g>
     </g>
     <g id="text_8">
      <!-- 7 -->
      <g transform="translate(384.151002 260.638438) scale(0.1 -0.1)">
       <defs>
        <path id="DejaVuSans-37" d="M 525 4666 
L 3525 4666 
L 3525 4397 
L 1831 0 
L 1172 0 
L 2766 4134 
L 525 4134 
L 525 4666 
z
" transform="scale(0.015625)"/>
       </defs>
       <use xlink:href="#DejaVuSans-37"/>
      </g>
     </g>
    </g>
    <g id="text_9">
     <!-- Time [h] -->
     <g transform="translate(213.612031 274.316562) scale(0.1 -0.1)">
      <defs>
       <path id="DejaVuSans-54" d="M -19 4666 
L 3928 4666 
L 3928 4134 
L 2272 4134 
L 2272 0 
L 1638 0 
L 1638 4134 
L -19 4134 
L -19 4666 
z
" transform="scale(0.015625)"/>
       <path id="DejaVuSans-69" d="M 603 3500 
L 1178 3500 
L 1178 0 
L 603 0 
L 603 3500 
z
M 603 4863 
L 1178 4863 
L 1178 4134 
L 603 4134 
L 603 4863 
z
" transform="scale(0.015625)"/>
       <path id="DejaVuSans-6d" d="M 3328 2828 
Q 3544 3216 3844 3400 
Q 4144 3584 4550 3584 
Q 5097 3584 5394 3201 
Q 5691 2819 5691 2113 
L 5691 0 
L 5113 0 
L 5113 2094 
Q 5113 2597 4934 2840 
Q 4756 3084 4391 3084 
Q 3944 3084 3684 2787 
Q 3425 2491 3425 1978 
L 3425 0 
L 2847 0 
L 2847 2094 
Q 2847 2600 2669 2842 
Q 2491 3084 2119 3084 
Q 1678 3084 1418 2786 
Q 1159 2488 1159 1978 
L 1159 0 
L 581 0 
L 581 3500 
L 1159 3500 
L 1159 2956 
Q 1356 3278 1631 3431 
Q 1906 3584 2284 3584 
Q 2666 3584 2933 3390 
Q 3200 3197 3328 2828 
z
" transform="scale(0.015625)"/>
       <path id="DejaVuSans-65" d="M 3597 1894 
L 3597 1613 
L 953 1613 
Q 991 1019 1311 708 
Q 1631 397 2203 397 
Q 2534 397 2845 478 
Q 3156 559 3463 722 
L 3463 178 
Q 3153 47 2828 -22 
Q 2503 -91 2169 -91 
Q 1331 -91 842 396 
Q 353 884 353 1716 
Q 353 2575 817 3079 
Q 1281 3584 2069 3584 
Q 2775 3584 3186 3129 
Q 3597 2675 3597 1894 
z
M 3022 2063 
Q 3016 2534 2758 2815 
Q 2500 3097 2075 3097 
Q 1594 3097 1305 2825 
Q 1016 2553 972 2059 
L 3022 2063 
z
" transform="scale(0.015625)"/>
       <path id="DejaVuSans-20" transform="scale(0.015625)"/>
       <path id="DejaVuSans-5b" d="M 550 4863 
L 1875 4863 
L 1875 4416 
L 1125 4416 
L 1125 -397 
L 1875 -397 
L 1875 -844 
L 550 -844 
L 550 4863 
z
" transform="scale(0.015625)"/>
       <path id="DejaVuSans-68" d="M 3513 2113 
L 3513 0 
L 2938 0 
L 2938 2094 
Q 2938 2591 2744 2837 
Q 2550 3084 2163 3084 
Q 1697 3084 1428 2787 
Q 1159 2491 1159 1978 
L 1159 0 
L 581 0 
L 581 4863 
L 1159 4863 
L 1159 2956 
Q 1366 3272 1645 3428 
Q 1925 3584 2291 3584 
Q 2894 3584 3203 3211 
Q 3513 2838 3513 2113 
z
" transform="scale(0.015625)"/>
       <path id="DejaVuSans-5d" d="M 1947 4863 
L 1947 -844 
L 622 -844 
L 622 -397 
L 1369 -397 
L 1369 4416 
L 622 4416 
L 622 4863 
L 1947 4863 
z
" transform="scale(0.015625)"/>
      </defs>
      <use xlink:href="#DejaVuSans-54"/>
      <use xlink:href="#DejaVuSans-69" transform="translate(57.958984 0)"/>
      <use xlink:href="#DejaVuSans-6d" transform="translate(85.742188 0)"/>
      <use xlink:href="#DejaVuSans-65" transform="translate(183.154297 0)"/>
      <use xlink:href="#DejaVuSans-20" transform="translate(244.677734 0)"/>
      <use xlink:href="#DejaVuSans-5b" transform="translate(276.464844 0)"/>
      <use xlink:href="#DejaVuSans-68" transform="translate(315.478516 0)"/>
      <use xlink:href="#DejaVuSans-5d" transform="translate(378.857422 0)"/>
     </g>
    </g>
   </g>
   <g id="matplotlib.axis_2">
    <g id="ytick_1">
     <g id="line2d_9">
      <defs>
       <path id="mef600718d2" d="M 0 0 
L -3.5 0 
" style="stroke: #000000; stroke-width: 0.8"/>
      </defs>
      <g>
       <use xlink:href="#mef600718d2" x="47.81" y="236.012727" style="stroke: #000000; stroke-width: 0.8"/>
      </g>
     </g>
     <g id="text_10">
      <!-- 0.0 -->
      <g transform="translate(24.906875 239.811946) scale(0.1 -0.1)">
       <defs>
        <path id="DejaVuSans-2e" d="M 684 794 
L 1344 794 
L 1344 0 
L 684 0 
L 684 794 
z
" transform="scale(0.015625)"/>
       </defs>
       <use xlink:href="#DejaVuSans-30"/>
       <use xlink:href="#DejaVuSans-2e" transform="translate(63.623047 0)"/>
       <use xlink:href="#DejaVuSans-30" transform="translate(95.410156 0)"/>
      </g>
     </g>
    </g>
    <g id="ytick_2">
     <g id="line2d_10">
      <g>
       <use xlink:href="#mef600718d2" x="47.81" y="195.903636" style="stroke: #000000; stroke-width: 0.8"/>
      </g>
     </g>
     <g id="text_11">
      <!-- 0.2 -->
      <g transform="translate(24.906875 199.702855) scale(0.1 -0.1)">
       <use xlink:href="#DejaVuSans-30"/>
       <use xlink:href="#DejaVuSans-2e" transform="translate(63.623047 0)"/>
       <use xlink:href="#DejaVuSans-32" transform="translate(95.410156 0)"/>
      </g>
     </g>
    </g>
    <g id="ytick_3">
     <g id="line2d_11">
      <g>
       <use xlink:href="#mef600718d2" x="47.81" y="155.794545" style="stroke: #000000; stroke-width: 0.8"/>
      </g>
     </g>
     <g id="text_12">
      <!-- 0.4 -->
      <g transform="translate(24.906875 159.593764) scale(0.1 -0.1)">
       <use xlink:href="#DejaVuSans-30"/>
       <use xlink:href="#DejaVuSans-2e" transform="translate(63.623047 0)"/>
       <use xlink:href="#DejaVuSans-34" transform="translate(95.410156 0)"/>
      </g>
     </g>
    </g>
    <g id="ytick_4">
     <g id="line2d_12">
      <g>
       <use xlink:href="#mef600718d2" x="47.81" y="115.685455" style="stroke: #000000; stroke-width: 0.8"/>
      </g>
     </g>
     <g id="text_13">
      <!-- 0.6 -->
      <g transform="translate(24.906875 119.484673) scale(0.1 -0.1)">
       <use xlink:href="#DejaVuSans-30"/>
       <use xlink:href="#DejaVuSans-2e" transform="translate(63.623047 0)"/>
       <use xlink:href="#DejaVuSans-36" transform="translate(95.410156 0)"/>
      </g>
     </g>
    </g>
    <g id="ytick_5">
     <g id="line2d_13">
      <g>
       <use xlink:href="#mef600718d2" x="47.81" y="75.576364" style="stroke: #000000; stroke-width: 0.8"/>
      </g>
     </g>
     <g id="text_14">
      <!-- 0.8 -->
      <g transform="translate(24.906875 79.375582) scale(0.1 -0.1)">
       <defs>
        <path id="DejaVuSans-38" d="M 2034 2216 
Q 1584 2216 1326 1975 
Q 1069 1734 1069 1313 
Q 1069 891 1326 650 
Q 1584 409 2034 409 
Q 2484 409 2743 651 
Q 3003 894 3003 1313 
Q 3003 1734 2745 1975 
Q 2488 2216 2034 2216 
z
M 1403 2484 
Q 997 2584 770 2862 
Q 544 3141 544 3541 
Q 544 4100 942 4425 
Q 1341 4750 2034 4750 
Q 2731 4750 3128 4425 
Q 3525 4100 3525 3541 
Q 3525 3141 3298 2862 
Q 3072 2584 2669 2484 
Q 3125 2378 3379 2068 
Q 3634 1759 3634 1313 
Q 3634 634 3220 271 
Q 2806 -91 2034 -91 
Q 1263 -91 848 271 
Q 434 634 434 1313 
Q 434 1759 690 2068 
Q 947 2378 1403 2484 
z
M 1172 3481 
Q 1172 3119 1398 2916 
Q 1625 2713 2034 2713 
Q 2441 2713 2670 2916 
Q 2900 3119 2900 3481 
Q 2900 3844 2670 4047 
Q 2441 4250 2034 4250 
Q 1625 4250 1398 4047 
Q 1172 3844 1172 3481 
z
" transform="scale(0.015625)"/>
       </defs>
       <use xlink:href="#DejaVuSans-30"/>
       <use xlink:href="#DejaVuSans-2e" transform="translate(63.623047 0)"/>
       <use xlink:href="#DejaVuSans-38" transform="translate(95.410156 0)"/>
      </g>
     </g>
    </g>
    <g id="ytick_6">
     <g id="line2d_14">
      <g>
       <use xlink:href="#mef600718d2" x="47.81" y="35.467273" style="stroke: #000000; stroke-width: 0.8"/>
      </g>
     </g>
     <g id="text_15">
      <!-- 1.0 -->
      <g transform="translate(24.906875 39.266491) scale(0.1 -0.1)">
       <use xlink:href="#DejaVuSans-31"/>
       <use xlink:href="#DejaVuSans-2e" transform="translate(63.623047 0)"/>
       <use xlink:href="#DejaVuSans-30" transform="translate(95.410156 0)"/>
      </g>
     </g>
    </g>
    <g id="text_16">
     <!-- Mole fraction -->
     <g transform="translate(18.827188 168.374375) rotate(-90) scale(0.1 -0.1)">
      <defs>
       <path id="DejaVuSans-4d" d="M 628 4666 
L 1569 4666 
L 2759 1491 
L 3956 4666 
L 4897 4666 
L 4897 0 
L 4281 0 
L 4281 4097 
L 3078 897 
L 2444 897 
L 1241 4097 
L 1241 0 
L 628 0 
L 628 4666 
z
" transform="scale(0.015625)"/>
       <path id="DejaVuSans-6f" d="M 1959 3097 
Q 1497 3097 1228 2736 
Q 959 2375 959 1747 
Q 959 1119 1226 758 
Q 1494 397 1959 397 
Q 2419 397 2687 759 
Q 2956 1122 2956 1747 
Q 2956 2369 2687 2733 
Q 2419 3097 1959 3097 
z
M 1959 3584 
Q 2709 3584 3137 3096 
Q 3566 2609 3566 1747 
Q 3566 888 3137 398 
Q 2709 -91 1959 -91 
Q 1206 -91 779 398 
Q 353 888 353 1747 
Q 353 2609 779 3096 
Q 1206 3584 1959 3584 
z
" transform="scale(0.015625)"/>
       <path id="DejaVuSans-6c" d="M 603 4863 
L 1178 4863 
L 1178 0 
L 603 0 
L 603 4863 
z
" transform="scale(0.015625)"/>
       <path id="DejaVuSans-66" d="M 2375 4863 
L 2375 4384 
L 1825 4384 
Q 1516 4384 1395 4259 
Q 1275 4134 1275 3809 
L 1275 3500 
L 2222 3500 
L 2222 3053 
L 1275 3053 
L 1275 0 
L 697 0 
L 697 3053 
L 147 3053 
L 147 3500 
L 697 3500 
L 697 3744 
Q 697 4328 969 4595 
Q 1241 4863 1831 4863 
L 2375 4863 
z
" transform="scale(0.015625)"/>
       <path id="DejaVuSans-72" d="M 2631 2963 
Q 2534 3019 2420 3045 
Q 2306 3072 2169 3072 
Q 1681 3072 1420 2755 
Q 1159 2438 1159 1844 
L 1159 0 
L 581 0 
L 581 3500 
L 1159 3500 
L 1159 2956 
Q 1341 3275 1631 3429 
Q 1922 3584 2338 3584 
Q 2397 3584 2469 3576 
Q 2541 3569 2628 3553 
L 2631 2963 
z
" transform="scale(0.015625)"/>
       <path id="DejaVuSans-61" d="M 2194 1759 
Q 1497 1759 1228 1600 
Q 959 1441 959 1056 
Q 959 750 1161 570 
Q 1363 391 1709 391 
Q 2188 391 2477 730 
Q 2766 1069 2766 1631 
L 2766 1759 
L 2194 1759 
z
M 3341 1997 
L 3341 0 
L 2766 0 
L 2766 531 
Q 2569 213 2275 61 
Q 1981 -91 1556 -91 
Q 1019 -91 701 211 
Q 384 513 384 1019 
Q 384 1609 779 1909 
Q 1175 2209 1959 2209 
L 2766 2209 
L 2766 2266 
Q 2766 2663 2505 2880 
Q 2244 3097 1772 3097 
Q 1472 3097 1187 3025 
Q 903 2953 641 2809 
L 641 3341 
Q 956 3463 1253 3523 
Q 1550 3584 1831 3584 
Q 2591 3584 2966 3190 
Q 3341 2797 3341 1997 
z
" transform="scale(0.015625)"/>
       <path id="DejaVuSans-63" d="M 3122 3366 
L 3122 2828 
Q 2878 2963 2633 3030 
Q 2388 3097 2138 3097 
Q 1578 3097 1268 2742 
Q 959 2388 959 1747 
Q 959 1106 1268 751 
Q 1578 397 2138 397 
Q 2388 397 2633 464 
Q 2878 531 3122 666 
L 3122 134 
Q 2881 22 2623 -34 
Q 2366 -91 2075 -91 
Q 1284 -91 818 406 
Q 353 903 353 1747 
Q 353 2603 823 3093 
Q 1294 3584 2113 3584 
Q 2378 3584 2631 3529 
Q 2884 3475 3122 3366 
z
" transform="scale(0.015625)"/>
       <path id="DejaVuSans-74" d="M 1172 4494 
L 1172 3500 
L 2356 3500 
L 2356 3053 
L 1172 3053 
L 1172 1153 
Q 1172 725 1289 603 
Q 1406 481 1766 481 
L 2356 481 
L 2356 0 
L 1766 0 
Q 1100 0 847 248 
Q 594 497 594 1153 
L 594 3053 
L 172 3053 
L 172 3500 
L 594 3500 
L 594 4494 
L 1172 4494 
z
" transform="scale(0.015625)"/>
       <path id="DejaVuSans-6e" d="M 3513 2113 
L 3513 0 
L 2938 0 
L 2938 2094 
Q 2938 2591 2744 2837 
Q 2550 3084 2163 3084 
Q 1697 3084 1428 2787 
Q 1159 2491 1159 1978 
L 1159 0 
L 581 0 
L 581 3500 
L 1159 3500 
L 1159 2956 
Q 1366 3272 1645 3428 
Q 1925 3584 2291 3584 
Q 2894 3584 3203 3211 
Q 3513 2838 3513 2113 
z
" transform="scale(0.015625)"/>
      </defs>
      <use xlink:href="#DejaVuSans-4d"/>
      <use xlink:href="#DejaVuSans-6f" transform="translate(86.279297 0)"/>
      <use xlink:href="#DejaVuSans-6c" transform="translate(147.460938 0)"/>
      <use xlink:href="#DejaVuSans-65" transform="translate(175.244141 0)"/>
      <use xlink:href="#DejaVuSans-20" transform="translate(236.767578 0)"/>
      <use xlink:href="#DejaVuSans-66" transform="translate(268.554688 0)"/>
      <use xlink:href="#DejaVuSans-72" transform="translate(303.759766 0)"/>
      <use xlink:href="#DejaVuSans-61" transform="translate(344.873047 0)"/>
      <use xlink:href="#DejaVuSans-63" transform="translate(406.152344 0)"/>
      <use xlink:href="#DejaVuSans-74" transform="translate(461.132812 0)"/>
      <use xlink:href="#DejaVuSans-69" transform="translate(500.341797 0)"/>
      <use xlink:href="#DejaVuSans-6f" transform="translate(528.125 0)"/>
      <use xlink:href="#DejaVuSans-6e" transform="translate(589.306641 0)"/>
     </g>
    </g>
   </g>
   <g id="line2d_15">
    <path d="M 64.782273 236.012727 
L 126.98834 236.012727 
L 127.756316 235.718112 
L 129.292269 235.718112 
L 130.060245 234.858468 
L 130.828221 233.571302 
L 132.364173 233.571302 
L 133.132149 231.578736 
L 133.900125 230.24248 
L 134.668102 229.857391 
L 137.740006 229.857391 
L 138.507982 229.65524 
L 139.275958 228.849107 
L 140.043935 227.712927 
L 140.811911 227.425144 
L 141.579887 226.877768 
L 142.347863 226.877768 
L 143.115839 225.276707 
L 143.883815 225.216119 
L 144.651791 224.521854 
L 145.419768 222.800191 
L 146.187744 222.800191 
L 146.95572 221.527072 
L 147.723696 221.054992 
L 148.491672 221.009261 
L 149.259648 220.380093 
L 150.027624 220.380093 
L 150.795601 220.183316 
L 151.563577 218.52969 
L 152.331553 218.52969 
L 153.099529 218.149906 
L 153.867505 216.99022 
L 154.635481 216.500698 
L 155.403457 216.500698 
L 156.171434 214.656006 
L 156.93941 214.656006 
L 157.707386 211.996162 
L 160.011314 211.996162 
L 160.77929 211.874221 
L 161.547267 211.46596 
L 162.315243 209.422268 
L 163.083219 208.180607 
L 163.851195 207.190805 
L 164.619171 206.980076 
L 165.387147 206.476523 
L 166.155123 205.056447 
L 166.9231 204.855502 
L 167.691076 203.089146 
L 168.459052 203.089146 
L 169.227028 202.248516 
L 170.76298 200.167797 
L 171.530956 198.443156 
L 172.298933 198.080476 
L 173.066909 195.539095 
L 174.602861 195.539095 
L 175.370837 193.443345 
L 176.906789 193.443345 
L 177.674766 192.719643 
L 178.442742 192.719643 
L 179.210718 190.93353 
L 180.74667 188.123283 
L 181.514646 188.123283 
L 182.282622 186.567976 
L 184.586551 186.567976 
L 185.354527 186.065581 
L 186.890479 186.065581 
L 187.658455 185.450587 
L 188.426431 183.022009 
L 189.194408 183.022009 
L 189.962384 181.982466 
L 190.73036 181.982466 
L 192.266312 179.961077 
L 193.034288 177.49597 
L 193.802264 177.49597 
L 194.570241 174.976721 
L 195.338217 173.681483 
L 196.106193 173.270047 
L 196.874169 171.813655 
L 197.642145 170.865745 
L 198.410121 168.667424 
L 199.178098 167.86485 
L 199.946074 165.816356 
L 200.71405 164.701594 
L 201.482026 163.951713 
L 202.250002 160.380438 
L 203.017978 158.860836 
L 203.785954 158.313745 
L 204.55393 155.712876 
L 205.321907 154.2071 
L 206.089883 152.053548 
L 206.857859 150.987538 
L 207.625835 149.611904 
L 208.393811 147.709397 
L 209.161787 147.709397 
L 209.929763 144.638044 
L 210.69774 142.98251 
L 211.465716 142.779107 
L 212.233692 140.057078 
L 213.001668 137.92028 
L 213.769644 137.487153 
L 214.53762 135.371629 
L 216.073573 132.887444 
L 216.841549 130.721698 
L 217.609525 129.799762 
L 218.377501 129.799762 
L 219.145477 126.758052 
L 219.913453 126.758052 
L 220.681429 125.306878 
L 221.449406 125.306878 
L 222.217382 123.093589 
L 222.985358 123.093589 
L 224.52131 119.3548 
L 225.289286 117.831648 
L 226.057262 117.831648 
L 226.825239 116.211889 
L 227.593215 116.211889 
L 228.361191 113.307297 
L 229.129167 112.621643 
L 229.897143 111.481866 
L 230.665119 111.481866 
L 232.969048 110.936089 
L 233.737024 110.432205 
L 234.505 110.432205 
L 235.272976 106.274964 
L 236.040952 100.227565 
L 236.808928 98.712049 
L 238.344881 98.654303 
L 239.112857 96.261034 
L 239.880833 95.969541 
L 241.416785 95.969541 
L 242.184761 93.057077 
L 243.720714 93.057077 
L 244.48869 87.697872 
L 245.256666 86.438246 
L 246.024642 86.115109 
L 246.792618 85.117268 
L 247.560594 83.15088 
L 248.328571 83.15088 
L 249.096547 79.493467 
L 249.864523 77.900461 
L 250.632499 77.900461 
L 252.168451 73.406186 
L 252.936427 72.356319 
L 254.47238 72.200343 
L 255.240356 70.306257 
L 257.544284 70.279726 
L 258.31226 66.424037 
L 260.616189 66.424037 
L 261.384165 64.634262 
L 262.152141 64.488178 
L 262.920117 62.375516 
L 264.456069 62.375516 
L 265.224046 61.671291 
L 265.992022 58.902421 
L 266.759998 58.902421 
L 267.527974 55.115922 
L 269.831902 55.079951 
L 270.599879 53.415144 
L 271.367855 53.665872 
L 272.135831 54.118351 
L 272.903807 55.978875 
L 273.671783 55.978875 
L 275.207736 63.770622 
L 275.975712 63.891014 
L 277.511664 63.891014 
L 278.27964 68.394356 
L 279.047616 69.145544 
L 280.583568 76.2437 
L 282.887497 83.6342 
L 283.655473 89.257402 
L 284.423449 90.237269 
L 285.959401 94.682635 
L 286.727378 95.861076 
L 287.495354 100.254836 
L 288.26333 101.80549 
L 289.031306 103.68712 
L 289.799282 104.500836 
L 290.567258 107.772727 
L 291.335234 112.060277 
L 293.639163 116.025335 
L 294.407139 116.025335 
L 295.175115 117.58945 
L 295.943091 118.125381 
L 296.711067 120.062169 
L 297.479044 120.404305 
L 298.24702 121.604659 
L 299.014996 123.111358 
L 299.782972 125.054692 
L 300.550948 127.761638 
L 301.318924 127.859347 
L 302.0869 129.120664 
L 302.854877 131.883438 
L 303.622853 134.02521 
L 304.390829 134.090146 
L 305.158805 135.136931 
L 305.926781 138.640052 
L 306.694757 139.997235 
L 307.462733 140.407627 
L 308.23071 142.134982 
L 308.998686 144.243575 
L 309.766662 145.674789 
L 310.534638 149.240057 
L 311.302614 149.302489 
L 312.07059 152.782807 
L 312.838566 154.176444 
L 313.606543 154.519001 
L 314.374519 155.887875 
L 315.142495 156.550292 
L 315.910471 158.767953 
L 316.678447 161.580842 
L 318.214399 164.618898 
L 318.982376 165.372552 
L 319.750352 168.033809 
L 320.518328 169.026411 
L 321.286304 170.821437 
L 322.05428 171.8221 
L 322.822256 174.939961 
L 323.590232 175.570306 
L 324.358209 175.623093 
L 325.126185 177.669673 
L 325.894161 178.616588 
L 326.662137 178.850597 
L 327.430113 181.413527 
L 328.198089 183.192069 
L 328.966065 183.192069 
L 329.734042 188.200166 
L 330.502018 188.200166 
L 331.269994 190.849912 
L 332.03797 190.894274 
L 333.573922 193.522479 
L 334.341898 196.100421 
L 335.109875 196.100421 
L 335.877851 196.523984 
L 337.413803 196.523984 
L 338.181779 198.075344 
L 338.949755 198.075344 
L 339.717731 200.862921 
L 340.485707 201.831911 
L 342.789636 201.939235 
L 343.557612 201.988964 
L 344.325588 202.405457 
L 349.701421 202.434298 
L 350.469397 202.596711 
L 354.309278 202.596711 
L 355.077254 203.720853 
L 355.84523 203.858942 
L 356.613206 204.919016 
L 358.149159 204.919016 
L 358.917135 207.254534 
L 362.757016 207.254534 
L 363.524992 208.238893 
L 365.060944 208.238893 
L 365.82892 208.511211 
L 366.596896 209.243971 
L 367.364872 210.333751 
L 368.900825 210.333751 
L 369.668801 213.632568 
L 371.204753 213.632568 
L 371.972729 214.410841 
L 372.740705 216.444624 
L 373.508682 216.444624 
L 374.276658 217.924957 
L 375.044634 217.924957 
L 375.81261 218.601513 
L 376.580586 218.601513 
L 377.348562 221.053659 
L 378.116538 221.053659 
L 378.884515 223.20168 
L 381.188443 223.20168 
L 381.956419 225.999121 
L 382.724395 225.999121 
L 383.492371 227.343703 
L 384.260348 227.678524 
L 385.028324 228.288495 
L 385.7963 228.288495 
L 386.564276 231.565239 
L 389.636181 231.565239 
L 390.404157 233.483457 
L 393.476061 233.483457 
L 394.244037 234.276384 
L 395.012014 235.498424 
L 398.851894 235.498424 
L 399.61987 236.012727 
L 404.227727 236.012727 
L 404.227727 236.012727 
" clip-path="url(#p191c671a67)" style="fill: none; stroke: #1f77b4; stroke-width: 1.5; stroke-linecap: square"/>
   </g>
   <g id="line2d_16">
    <path d="M 64.782273 236.012727 
L 133.132149 235.908119 
L 133.900125 235.554017 
L 144.651791 235.554017 
L 145.419768 234.946291 
L 150.027624 234.946291 
L 150.795601 234.735099 
L 151.563577 234.735099 
L 152.331553 234.562452 
L 153.099529 234.548038 
L 153.867505 234.125038 
L 155.403457 233.583718 
L 156.93941 233.541017 
L 157.707386 232.974574 
L 165.387147 232.974574 
L 166.155123 232.816373 
L 169.227028 232.816373 
L 171.530956 232.521885 
L 175.370837 232.521885 
L 176.138813 230.874441 
L 198.410121 230.874441 
L 199.178098 230.747995 
L 201.482026 230.747995 
L 202.250002 230.426076 
L 206.089883 230.426076 
L 206.857859 229.836546 
L 209.161787 229.754374 
L 209.929763 229.436569 
L 213.001668 229.436569 
L 213.769644 229.240876 
L 215.305596 229.240876 
L 216.073573 229.126708 
L 216.841549 228.756585 
L 219.913453 228.4937 
L 222.985358 228.416336 
L 223.753334 227.994724 
L 226.057262 227.994724 
L 226.825239 227.371793 
L 227.593215 227.371793 
L 228.361191 226.884008 
L 230.665119 226.884008 
L 231.433095 226.611438 
L 245.256666 226.605211 
L 251.400475 226.605211 
L 252.168451 226.761685 
L 253.704404 226.625914 
L 258.31226 226.605211 
L 266.759998 226.605211 
L 267.527974 226.356462 
L 268.29595 226.320492 
L 269.063926 225.912149 
L 269.831902 225.011601 
L 270.599879 224.308904 
L 272.135831 223.937065 
L 272.903807 223.937065 
L 273.671783 220.803546 
L 275.207736 217.205417 
L 275.975712 216.520868 
L 276.743688 213.278773 
L 277.511664 210.968638 
L 278.27964 209.079085 
L 279.047616 207.855046 
L 280.583568 204.012821 
L 281.351545 202.761646 
L 282.887497 197.884531 
L 283.655473 197.016206 
L 284.423449 195.345768 
L 285.959401 191.535374 
L 286.727378 190.243597 
L 287.495354 187.513121 
L 290.567258 181.28934 
L 291.335234 179.524445 
L 292.103211 178.775024 
L 292.871187 176.856928 
L 293.639163 175.903406 
L 294.407139 173.779719 
L 295.175115 172.410612 
L 295.943091 169.788691 
L 296.711067 169.577321 
L 297.479044 166.971971 
L 299.014996 165.144225 
L 299.782972 163.19743 
L 300.550948 162.5395 
L 301.318924 159.852009 
L 302.0869 158.597171 
L 302.854877 158.327809 
L 303.622853 157.934399 
L 305.926781 153.021262 
L 306.694757 150.283932 
L 307.462733 148.208267 
L 308.23071 147.56505 
L 308.998686 144.34025 
L 310.534638 143.127012 
L 311.302614 140.053068 
L 312.07059 140.053068 
L 312.838566 139.230118 
L 313.606543 136.728783 
L 314.374519 135.252753 
L 315.142495 134.385605 
L 315.910471 132.069913 
L 316.678447 130.951725 
L 317.446423 130.628364 
L 318.214399 129.668452 
L 318.982376 128.022548 
L 319.750352 124.976073 
L 320.518328 124.976073 
L 321.286304 122.864543 
L 322.05428 122.122714 
L 322.822256 121.121782 
L 323.590232 119.505585 
L 324.358209 114.316111 
L 325.126185 114.199395 
L 325.894161 112.800505 
L 326.662137 112.272278 
L 327.430113 109.416903 
L 328.198089 107.323996 
L 328.966065 106.622529 
L 329.734042 106.622529 
L 330.502018 104.349443 
L 331.269994 104.349443 
L 332.03797 103.980456 
L 332.805946 103.980456 
L 333.573922 102.293225 
L 334.341898 102.293225 
L 335.109875 100.339358 
L 335.877851 98.925312 
L 336.645827 97.773068 
L 345.093564 97.773068 
L 345.861541 97.552292 
L 348.933445 97.552292 
L 349.701421 96.413029 
L 358.917135 96.413029 
L 359.685111 94.805696 
L 360.453087 94.800765 
L 361.221063 93.479151 
L 362.014639 93.479151 
L 362.757016 93.159206 
L 364.292968 93.159206 
L 365.060944 90.10852 
L 367.364872 90.10852 
L 368.132849 87.185464 
L 369.668801 87.185464 
L 370.436777 86.889282 
L 371.204753 84.912921 
L 374.276658 84.912921 
L 375.044634 79.16962 
L 375.81261 79.16962 
L 376.580586 78.031956 
L 377.348562 78.031956 
L 378.116538 77.834097 
L 378.884515 77.834097 
L 379.652491 76.294398 
L 380.420467 76.294398 
L 381.188443 75.327565 
L 381.956419 75.327565 
L 382.724395 74.933643 
L 384.260348 74.553219 
L 385.028324 72.159826 
L 387.332252 72.159826 
L 388.113028 70.050006 
L 388.868204 70.050006 
L 389.636181 68.858023 
L 391.940109 68.858023 
L 392.708085 66.385805 
L 395.77999 66.385805 
L 396.547966 65.992156 
L 401.923799 65.992156 
L 402.691775 63.154727 
L 403.459751 62.404764 
L 404.227727 63.543636 
L 404.227727 63.543636 
" clip-path="url(#p191c671a67)" style="fill: none; stroke: #ff7f0e; stroke-width: 1.5; stroke-linecap: square"/>
   </g>
   <g id="line2d_17">
    <path d="M 64.782273 35.467273 
L 65.550249 35.467273 
L 66.318225 39.758203 
L 67.086201 39.758203 
L 67.854177 40.949598 
L 68.622153 48.102351 
L 69.39013 53.786674 
L 70.158106 55.880055 
L 70.926082 56.166891 
L 71.694058 57.253406 
L 72.462034 60.015655 
L 73.23001 60.076562 
L 73.997986 63.911797 
L 74.765963 63.911797 
L 75.533939 65.781332 
L 76.301915 66.030402 
L 77.069891 66.613113 
L 78.605843 66.613113 
L 79.373819 66.808957 
L 81.677748 66.808957 
L 82.445724 66.984749 
L 83.2137 67.424418 
L 83.981676 71.625954 
L 84.749652 71.625954 
L 85.517629 73.517915 
L 86.285605 73.517915 
L 87.053581 73.660546 
L 87.821557 75.468289 
L 88.589533 75.468289 
L 89.357509 76.770332 
L 90.125485 79.86622 
L 91.661438 82.95494 
L 92.429414 84.461734 
L 93.19739 85.445656 
L 93.965366 87.175455 
L 94.733342 87.175455 
L 95.501318 88.810345 
L 96.269295 89.696792 
L 97.037271 92.789341 
L 97.805247 94.570988 
L 100.109175 94.570988 
L 100.877151 95.730196 
L 104.717032 95.730196 
L 105.485008 97.608702 
L 106.252984 97.619588 
L 107.020961 101.531394 
L 107.788937 101.531394 
L 108.556913 104.029241 
L 110.092865 104.029241 
L 110.860841 107.918753 
L 111.628817 107.918753 
L 112.396793 110.883327 
L 113.16477 111.140925 
L 113.932746 111.140925 
L 114.700722 115.305292 
L 116.236674 115.305292 
L 117.00465 120.730285 
L 117.772626 120.730285 
L 119.308579 122.311114 
L 120.076555 122.905272 
L 120.844531 122.905272 
L 121.612507 125.323563 
L 122.380483 126.231411 
L 123.148459 130.697267 
L 123.916436 132.318503 
L 124.684412 135.560465 
L 125.452388 136.622559 
L 126.220364 137.204908 
L 126.98834 140.398165 
L 127.756316 141.478002 
L 128.524292 141.478002 
L 129.292269 144.913583 
L 130.060245 144.996003 
L 130.828221 149.521081 
L 131.596197 149.521081 
L 132.364173 153.496445 
L 133.132149 153.496445 
L 133.900125 156.914124 
L 134.668102 156.914124 
L 135.436078 161.750218 
L 136.204054 161.750218 
L 136.97203 164.503582 
L 137.740006 164.503582 
L 138.507982 166.753136 
L 139.275958 166.753136 
L 140.043935 167.230679 
L 140.811911 167.951233 
L 141.579887 169.448357 
L 142.347863 169.448357 
L 144.651791 175.972963 
L 145.419768 177.318809 
L 146.187744 178.063233 
L 146.95572 178.063233 
L 148.491672 182.128208 
L 150.027624 182.128208 
L 150.795601 184.616393 
L 151.563577 184.616393 
L 152.331553 186.97753 
L 153.099529 187.498775 
L 153.867505 189.02682 
L 154.635481 190.119946 
L 155.403457 190.350681 
L 156.171434 190.350681 
L 156.93941 193.545842 
L 157.707386 193.545842 
L 158.475362 194.841283 
L 159.243338 194.841283 
L 160.011314 196.604672 
L 161.547267 196.604672 
L 162.315243 199.171381 
L 163.083219 200.872766 
L 163.851195 200.872766 
L 164.619171 201.407311 
L 165.387147 203.199395 
L 166.155123 203.199395 
L 166.9231 204.986865 
L 167.691076 204.986865 
L 169.227028 206.49728 
L 169.995004 209.539854 
L 173.066909 209.539854 
L 173.834885 211.299807 
L 174.602861 212.03253 
L 175.370837 212.03253 
L 176.138813 212.627785 
L 176.906789 213.607901 
L 177.674766 213.607901 
L 178.442742 214.842331 
L 179.210718 215.242877 
L 179.978694 217.402672 
L 181.514646 217.402672 
L 182.282622 217.743344 
L 183.050599 217.743344 
L 183.818575 218.396239 
L 185.354527 218.396239 
L 186.122503 220.570375 
L 188.426431 220.570375 
L 189.194408 220.844916 
L 189.962384 220.844916 
L 190.73036 222.549593 
L 193.034288 222.549593 
L 193.802264 224.778714 
L 195.338217 224.778714 
L 196.106193 226.385683 
L 196.874169 226.385683 
L 197.642145 227.185269 
L 198.410121 227.185269 
L 199.178098 230.013157 
L 199.946074 230.013157 
L 200.71405 230.203466 
L 202.250002 230.203466 
L 203.017978 230.994398 
L 203.785954 231.590429 
L 205.321907 231.590429 
L 206.089883 232.331817 
L 206.857859 234.721281 
L 207.625835 235.139813 
L 251.400475 235.139813 
L 252.168451 235.296286 
L 253.704404 235.160516 
L 258.31226 235.139813 
L 362.757016 235.139813 
L 363.524992 235.282627 
L 376.580586 235.305322 
L 377.348562 235.707275 
L 381.188443 235.707275 
L 381.956419 236.012727 
L 404.227727 236.012727 
L 404.227727 236.012727 
" clip-path="url(#p191c671a67)" style="fill: none; stroke: #2ca02c; stroke-width: 1.5; stroke-linecap: square"/>
   </g>
   <g id="line2d_18">
    <path d="M 64.782273 236.012727 
L 69.39013 236.012727 
L 70.158106 235.238335 
L 70.926082 234.830244 
L 71.694058 234.830244 
L 73.23001 231.66604 
L 73.997986 231.050835 
L 74.765963 229.154504 
L 75.533939 229.154504 
L 76.301915 227.993415 
L 77.069891 227.993415 
L 77.837867 224.655221 
L 78.605843 222.873679 
L 79.373819 222.873679 
L 80.141796 222.083398 
L 80.909772 221.589955 
L 83.2137 221.589955 
L 84.749652 219.302491 
L 85.517629 218.94236 
L 86.285605 218.730881 
L 87.053581 217.098966 
L 87.821557 217.098966 
L 88.589533 214.717713 
L 89.357509 213.621234 
L 90.125485 208.342544 
L 90.893462 207.029213 
L 91.661438 206.021613 
L 92.429414 202.931702 
L 93.19739 200.644973 
L 93.965366 200.15545 
L 94.733342 196.937571 
L 95.501318 196.937571 
L 96.269295 194.448979 
L 97.037271 193.040264 
L 97.805247 193.040264 
L 98.573223 191.336378 
L 99.341199 190.80482 
L 100.109175 188.899862 
L 100.877151 188.899862 
L 101.645128 186.632411 
L 102.413104 181.922128 
L 103.18108 181.611822 
L 103.949056 180.943229 
L 104.717032 179.77864 
L 105.485008 179.77864 
L 106.252984 179.168881 
L 107.020961 178.028512 
L 108.556913 177.38444 
L 109.324889 173.69146 
L 110.860841 173.611025 
L 111.628817 170.121358 
L 113.16477 170.121358 
L 113.932746 165.842637 
L 114.700722 165.842637 
L 115.468698 163.035226 
L 116.236674 161.711029 
L 117.00465 161.711029 
L 117.772626 159.011686 
L 120.076555 159.011686 
L 120.844531 155.888434 
L 121.612507 155.783976 
L 122.380483 150.897956 
L 123.148459 150.897956 
L 123.916436 149.401657 
L 124.684412 146.037912 
L 125.452388 143.374926 
L 126.220364 142.003065 
L 126.98834 139.184556 
L 127.756316 139.184556 
L 128.524292 135.37865 
L 129.292269 134.977623 
L 130.060245 133.955862 
L 130.828221 133.955862 
L 131.596197 130.64013 
L 132.364173 130.64013 
L 133.132149 129.621562 
L 133.900125 129.621562 
L 134.668102 124.753713 
L 135.436078 124.753713 
L 136.204054 120.559843 
L 136.97203 120.559843 
L 137.740006 119.368838 
L 138.507982 119.368838 
L 139.275958 117.596799 
L 140.811911 117.383097 
L 142.347863 115.151953 
L 143.115839 115.023919 
L 143.883815 115.023919 
L 144.651791 114.277095 
L 146.187744 111.892572 
L 148.491672 111.841065 
L 149.259648 110.046161 
L 150.027624 109.575049 
L 150.795601 109.575049 
L 151.563577 109.218609 
L 156.93941 109.218609 
L 157.707386 109.002162 
L 160.011314 109.002162 
L 160.77929 107.685932 
L 161.547267 105.553045 
L 165.387147 105.513697 
L 166.155123 105.292193 
L 166.9231 105.796557 
L 169.227028 105.796557 
L 169.995004 106.397966 
L 173.066909 106.397966 
L 173.834885 106.749895 
L 174.602861 107.752123 
L 177.674766 107.752123 
L 178.442742 109.310984 
L 179.978694 109.310984 
L 180.74667 110.213993 
L 181.514646 110.48567 
L 182.282622 110.48567 
L 183.050599 111.008225 
L 188.426431 111.064452 
L 189.194408 111.345937 
L 189.962384 111.345937 
L 190.73036 113.800862 
L 193.034288 113.800862 
L 193.802264 114.641623 
L 194.570241 114.641623 
L 195.338217 115.837847 
L 196.106193 117.363297 
L 196.874169 118.63132 
L 197.642145 118.63132 
L 198.410121 119.356803 
L 199.178098 122.392034 
L 200.71405 122.392034 
L 201.482026 126.019969 
L 202.250002 126.019969 
L 203.017978 126.753425 
L 203.785954 128.648887 
L 205.321907 128.65239 
L 206.089883 129.979778 
L 206.857859 129.979778 
L 207.625835 132.702622 
L 208.393811 134.021003 
L 209.161787 136.657898 
L 209.929763 136.876461 
L 212.233692 140.520412 
L 213.001668 142.513642 
L 213.769644 145.243378 
L 214.53762 145.344227 
L 215.305596 148.253466 
L 216.841549 148.810948 
L 217.609525 152.420915 
L 218.377501 153.140156 
L 219.145477 153.140156 
L 219.913453 157.172975 
L 220.681429 157.172975 
L 221.449406 157.84627 
L 222.217382 157.84627 
L 222.985358 160.236659 
L 223.753334 160.236659 
L 224.52131 163.970325 
L 225.289286 165.34215 
L 226.057262 167.63502 
L 226.825239 169.14159 
L 227.593215 172.259386 
L 228.361191 172.259386 
L 229.129167 174.166944 
L 229.897143 175.4945 
L 230.665119 178.4796 
L 231.433095 178.917044 
L 232.201072 178.917044 
L 232.969048 181.071533 
L 233.737024 182.058189 
L 235.272976 187.529866 
L 236.040952 187.529866 
L 236.808928 188.045804 
L 237.576905 192.0405 
L 238.344881 192.156954 
L 239.880833 192.156954 
L 241.416785 196.169901 
L 242.952738 196.169901 
L 243.720714 199.493972 
L 244.48869 199.493972 
L 245.256666 201.890835 
L 246.024642 202.048555 
L 247.560594 202.048555 
L 248.328571 203.774669 
L 249.096547 204.778451 
L 249.864523 204.778451 
L 251.400475 207.884825 
L 252.168451 208.041298 
L 252.936427 209.116438 
L 253.704404 209.485839 
L 254.47238 211.152995 
L 255.240356 211.401113 
L 256.008332 212.217205 
L 256.776308 213.34853 
L 257.544284 215.908025 
L 258.31226 215.908025 
L 259.080237 218.214567 
L 259.848213 219.048436 
L 261.384165 219.934951 
L 262.152141 219.934951 
L 262.920117 222.198582 
L 265.224046 226.004663 
L 265.992022 226.657389 
L 266.759998 226.821317 
L 267.527974 226.857287 
L 269.063926 231.821986 
L 269.831902 231.821986 
L 270.599879 233.387701 
L 271.367855 233.387701 
L 272.135831 233.806168 
L 272.903807 234.777259 
L 273.671783 234.777259 
L 274.439759 235.062179 
L 280.583568 235.062179 
L 281.351545 235.688517 
L 282.119521 235.926231 
L 283.655473 236.012727 
L 404.227727 236.012727 
L 404.227727 236.012727 
" clip-path="url(#p191c671a67)" style="fill: none; stroke: #d62728; stroke-width: 1.5; stroke-linecap: square"/>
   </g>
   <g id="patch_3">
    <path d="M 47.81 246.04 
L 47.81 25.44 
" style="fill: none; stroke: #000000; stroke-width: 0.8; stroke-linejoin: miter; stroke-linecap: square"/>
   </g>
   <g id="patch_4">
    <path d="M 421.2 246.04 
L 421.2 25.44 
" style="fill: none; stroke: #000000; stroke-width: 0.8; stroke-linejoin: miter; stroke-linecap: square"/>
   </g>
   <g id="patch_5">
    <path d="M 47.81 246.04 
L 421.2 246.04 
" style="fill: none; stroke: #000000; stroke-width: 0.8; stroke-linejoin: miter; stroke-linecap: square"/>
   </g>
   <g id="patch_6">
    <path d="M 47.81 25.44 
L 421.2 25.44 
" style="fill: none; stroke: #000000; stroke-width: 0.8; stroke-linejoin: miter; stroke-linecap: square"/>
   </g>
   <g id="text_17">
    <!-- Concentration Profiles with Known Values -->
    <g transform="translate(110.20375 19.44) scale(0.12 -0.12)">
     <defs>
      <path id="DejaVuSans-43" d="M 4122 4306 
L 4122 3641 
Q 3803 3938 3442 4084 
Q 3081 4231 2675 4231 
Q 1875 4231 1450 3742 
Q 1025 3253 1025 2328 
Q 1025 1406 1450 917 
Q 1875 428 2675 428 
Q 3081 428 3442 575 
Q 3803 722 4122 1019 
L 4122 359 
Q 3791 134 3420 21 
Q 3050 -91 2638 -91 
Q 1578 -91 968 557 
Q 359 1206 359 2328 
Q 359 3453 968 4101 
Q 1578 4750 2638 4750 
Q 3056 4750 3426 4639 
Q 3797 4528 4122 4306 
z
" transform="scale(0.015625)"/>
      <path id="DejaVuSans-50" d="M 1259 4147 
L 1259 2394 
L 2053 2394 
Q 2494 2394 2734 2622 
Q 2975 2850 2975 3272 
Q 2975 3691 2734 3919 
Q 2494 4147 2053 4147 
L 1259 4147 
z
M 628 4666 
L 2053 4666 
Q 2838 4666 3239 4311 
Q 3641 3956 3641 3272 
Q 3641 2581 3239 2228 
Q 2838 1875 2053 1875 
L 1259 1875 
L 1259 0 
L 628 0 
L 628 4666 
z
" transform="scale(0.015625)"/>
      <path id="DejaVuSans-73" d="M 2834 3397 
L 2834 2853 
Q 2591 2978 2328 3040 
Q 2066 3103 1784 3103 
Q 1356 3103 1142 2972 
Q 928 2841 928 2578 
Q 928 2378 1081 2264 
Q 1234 2150 1697 2047 
L 1894 2003 
Q 2506 1872 2764 1633 
Q 3022 1394 3022 966 
Q 3022 478 2636 193 
Q 2250 -91 1575 -91 
Q 1294 -91 989 -36 
Q 684 19 347 128 
L 347 722 
Q 666 556 975 473 
Q 1284 391 1588 391 
Q 1994 391 2212 530 
Q 2431 669 2431 922 
Q 2431 1156 2273 1281 
Q 2116 1406 1581 1522 
L 1381 1569 
Q 847 1681 609 1914 
Q 372 2147 372 2553 
Q 372 3047 722 3315 
Q 1072 3584 1716 3584 
Q 2034 3584 2315 3537 
Q 2597 3491 2834 3397 
z
" transform="scale(0.015625)"/>
      <path id="DejaVuSans-77" d="M 269 3500 
L 844 3500 
L 1563 769 
L 2278 3500 
L 2956 3500 
L 3675 769 
L 4391 3500 
L 4966 3500 
L 4050 0 
L 3372 0 
L 2619 2869 
L 1863 0 
L 1184 0 
L 269 3500 
z
" transform="scale(0.015625)"/>
      <path id="DejaVuSans-4b" d="M 628 4666 
L 1259 4666 
L 1259 2694 
L 3353 4666 
L 4166 4666 
L 1850 2491 
L 4331 0 
L 3500 0 
L 1259 2247 
L 1259 0 
L 628 0 
L 628 4666 
z
" transform="scale(0.015625)"/>
      <path id="DejaVuSans-56" d="M 1831 0 
L 50 4666 
L 709 4666 
L 2188 738 
L 3669 4666 
L 4325 4666 
L 2547 0 
L 1831 0 
z
" transform="scale(0.015625)"/>
      <path id="DejaVuSans-75" d="M 544 1381 
L 544 3500 
L 1119 3500 
L 1119 1403 
Q 1119 906 1312 657 
Q 1506 409 1894 409 
Q 2359 409 2629 706 
Q 2900 1003 2900 1516 
L 2900 3500 
L 3475 3500 
L 3475 0 
L 2900 0 
L 2900 538 
Q 2691 219 2414 64 
Q 2138 -91 1772 -91 
Q 1169 -91 856 284 
Q 544 659 544 1381 
z
M 1991 3584 
L 1991 3584 
z
" transform="scale(0.015625)"/>
     </defs>
     <use xlink:href="#DejaVuSans-43"/>
     <use xlink:href="#DejaVuSans-6f" transform="translate(69.824219 0)"/>
     <use xlink:href="#DejaVuSans-6e" transform="translate(131.005859 0)"/>
     <use xlink:href="#DejaVuSans-63" transform="translate(194.384766 0)"/>
     <use xlink:href="#DejaVuSans-65" transform="translate(249.365234 0)"/>
     <use xlink:href="#DejaVuSans-6e" transform="translate(310.888672 0)"/>
     <use xlink:href="#DejaVuSans-74" transform="translate(374.267578 0)"/>
     <use xlink:href="#DejaVuSans-72" transform="translate(413.476562 0)"/>
     <use xlink:href="#DejaVuSans-61" transform="translate(454.589844 0)"/>
     <use xlink:href="#DejaVuSans-74" transform="translate(515.869141 0)"/>
     <use xlink:href="#DejaVuSans-69" transform="translate(555.078125 0)"/>
     <use xlink:href="#DejaVuSans-6f" transform="translate(582.861328 0)"/>
     <use xlink:href="#DejaVuSans-6e" transform="translate(644.042969 0)"/>
     <use xlink:href="#DejaVuSans-20" transform="translate(707.421875 0)"/>
     <use xlink:href="#DejaVuSans-50" transform="translate(739.208984 0)"/>
     <use xlink:href="#DejaVuSans-72" transform="translate(797.761719 0)"/>
     <use xlink:href="#DejaVuSans-6f" transform="translate(836.625 0)"/>
     <use xlink:href="#DejaVuSans-66" transform="translate(897.806641 0)"/>
     <use xlink:href="#DejaVuSans-69" transform="translate(933.011719 0)"/>
     <use xlink:href="#DejaVuSans-6c" transform="translate(960.794922 0)"/>
     <use xlink:href="#DejaVuSans-65" transform="translate(988.578125 0)"/>
     <use xlink:href="#DejaVuSans-73" transform="translate(1050.101562 0)"/>
     <use xlink:href="#DejaVuSans-20" transform="translate(1102.201172 0)"/>
     <use xlink:href="#DejaVuSans-77" transform="translate(1133.988281 0)"/>
     <use xlink:href="#DejaVuSans-69" transform="translate(1215.775391 0)"/>
     <use xlink:href="#DejaVuSans-74" transform="translate(1243.558594 0)"/>
     <use xlink:href="#DejaVuSans-68" transform="translate(1282.767578 0)"/>
     <use xlink:href="#DejaVuSans-20" transform="translate(1346.146484 0)"/>
     <use xlink:href="#DejaVuSans-4b" transform="translate(1377.933594 0)"/>
     <use xlink:href="#DejaVuSans-6e" transform="translate(1443.509766 0)"/>
     <use xlink:href="#DejaVuSans-6f" transform="translate(1506.888672 0)"/>
     <use xlink:href="#DejaVuSans-77" transform="translate(1568.070312 0)"/>
     <use xlink:href="#DejaVuSans-6e" transform="translate(1649.857422 0)"/>
     <use xlink:href="#DejaVuSans-20" transform="translate(1713.236328 0)"/>
     <use xlink:href="#DejaVuSans-56" transform="translate(1745.023438 0)"/>
     <use xlink:href="#DejaVuSans-61" transform="translate(1805.681641 0)"/>
     <use xlink:href="#DejaVuSans-6c" transform="translate(1866.960938 0)"/>
     <use xlink:href="#DejaVuSans-75" transform="translate(1894.744141 0)"/>
     <use xlink:href="#DejaVuSans-65" transform="translate(1958.123047 0)"/>
     <use xlink:href="#DejaVuSans-73" transform="translate(2019.646484 0)"/>
    </g>
   </g>
   <g id="legend_1">
    <g id="patch_7">
     <path d="M 352.142187 173.935313 
L 414.2 173.935313 
Q 416.2 173.935313 416.2 171.935313 
L 416.2 99.544688 
Q 416.2 97.544688 414.2 97.544688 
L 352.142187 97.544688 
Q 350.142187 97.544688 350.142187 99.544688 
L 350.142187 171.935313 
Q 350.142187 173.935313 352.142187 173.935313 
z
" style="fill: #ffffff; opacity: 0.8; stroke: #cccccc; stroke-linejoin: miter"/>
    </g>
    <g id="text_18">
     <!-- Component -->
     <g transform="translate(354.142187 109.143125) scale(0.1 -0.1)">
      <defs>
       <path id="DejaVuSans-70" d="M 1159 525 
L 1159 -1331 
L 581 -1331 
L 581 3500 
L 1159 3500 
L 1159 2969 
Q 1341 3281 1617 3432 
Q 1894 3584 2278 3584 
Q 2916 3584 3314 3078 
Q 3713 2572 3713 1747 
Q 3713 922 3314 415 
Q 2916 -91 2278 -91 
Q 1894 -91 1617 61 
Q 1341 213 1159 525 
z
M 3116 1747 
Q 3116 2381 2855 2742 
Q 2594 3103 2138 3103 
Q 1681 3103 1420 2742 
Q 1159 2381 1159 1747 
Q 1159 1113 1420 752 
Q 1681 391 2138 391 
Q 2594 391 2855 752 
Q 3116 1113 3116 1747 
z
" transform="scale(0.015625)"/>
      </defs>
      <use xlink:href="#DejaVuSans-43"/>
      <use xlink:href="#DejaVuSans-6f" transform="translate(69.824219 0)"/>
      <use xlink:href="#DejaVuSans-6d" transform="translate(131.005859 0)"/>
      <use xlink:href="#DejaVuSans-70" transform="translate(228.417969 0)"/>
      <use xlink:href="#DejaVuSans-6f" transform="translate(291.894531 0)"/>
      <use xlink:href="#DejaVuSans-6e" transform="translate(353.076172 0)"/>
      <use xlink:href="#DejaVuSans-65" transform="translate(416.455078 0)"/>
      <use xlink:href="#DejaVuSans-6e" transform="translate(477.978516 0)"/>
      <use xlink:href="#DejaVuSans-74" transform="translate(541.357422 0)"/>
     </g>
    </g>
    <g id="line2d_19">
     <path d="M 365.989844 120.32125 
L 375.989844 120.32125 
L 385.989844 120.32125 
" style="fill: none; stroke: #1f77b4; stroke-width: 1.5; stroke-linecap: square"/>
    </g>
    <g id="text_19">
     <!-- 0 -->
     <g transform="translate(393.989844 123.82125) scale(0.1 -0.1)">
      <use xlink:href="#DejaVuSans-30"/>
     </g>
    </g>
    <g id="line2d_20">
     <path d="M 365.989844 134.999375 
L 375.989844 134.999375 
L 385.989844 134.999375 
" style="fill: none; stroke: #ff7f0e; stroke-width: 1.5; stroke-linecap: square"/>
    </g>
    <g id="text_20">
     <!-- 1 -->
     <g transform="translate(393.989844 138.499375) scale(0.1 -0.1)">
      <use xlink:href="#DejaVuSans-31"/>
     </g>
    </g>
    <g id="line2d_21">
     <path d="M 365.989844 149.6775 
L 375.989844 149.6775 
L 385.989844 149.6775 
" style="fill: none; stroke: #2ca02c; stroke-width: 1.5; stroke-linecap: square"/>
    </g>
    <g id="text_21">
     <!-- 2 -->
     <g transform="translate(393.989844 153.1775) scale(0.1 -0.1)">
      <use xlink:href="#DejaVuSans-32"/>
     </g>
    </g>
    <g id="line2d_22">
     <path d="M 365.989844 164.355625 
L 375.989844 164.355625 
L 385.989844 164.355625 
" style="fill: none; stroke: #d62728; stroke-width: 1.5; stroke-linecap: square"/>
    </g>
    <g id="text_22">
     <!-- 3 -->
     <g transform="translate(393.989844 167.855625) scale(0.1 -0.1)">
      <use xlink:href="#DejaVuSans-33"/>
     </g>
    </g>
   </g>
  </g>
 </g>
 <defs>
  <clipPath id="p191c671a67">
   <rect x="47.81" y="25.44" width="373.39" height="220.6"/>
  </clipPath>
 </defs>
</svg>
